<svg width="360" height="429" viewBox="0 0 360 429" fill="none" xmlns="http://www.w3.org/2000/svg">
<ellipse cx="237.5" cy="320.5" rx="122.5" ry="60.5" fill="#D9FF47"/>
<path d="M190.188 315.244C189.133 315.244 188.14 315.16 187.209 314.99V301.924C188.068 301.82 189.064 301.768 190.197 301.768C191.337 301.768 192.365 301.924 193.283 302.236C194.208 302.542 194.979 302.982 195.598 303.555C196.848 304.701 197.473 306.305 197.473 308.369C197.473 310.68 196.776 312.435 195.383 313.633C194.133 314.707 192.401 315.244 190.188 315.244ZM189.748 312.861C190.171 312.939 190.594 312.979 191.018 312.979C191.441 312.979 191.896 312.897 192.385 312.734C192.873 312.565 193.296 312.305 193.654 311.953C194.423 311.211 194.807 310.13 194.807 308.711C194.807 306.38 193.957 304.948 192.258 304.414C191.698 304.238 191.05 304.15 190.314 304.15H190.051C189.953 304.15 189.852 304.154 189.748 304.16V312.861ZM206.877 312.656C207.281 312.656 207.561 312.617 207.717 312.539L207.756 312.549L207.658 315H200.344V301.943C200.52 301.956 200.715 301.966 200.93 301.973L201.613 301.992C202.069 302.005 202.564 302.012 203.098 302.012C204.589 302.012 206.063 301.986 207.521 301.934C207.45 302.507 207.414 303.271 207.414 304.229C207.414 304.333 207.421 304.411 207.434 304.463L207.414 304.492C207.076 304.395 206.594 304.346 205.969 304.346H202.893V306.836H205.207C205.923 306.836 206.353 306.816 206.496 306.777L206.525 309.189C206.213 309.157 205.809 309.141 205.314 309.141H202.893V312.656H206.877ZM218.205 302.734L218.02 305.605L217.951 305.625C217.469 304.902 216.649 304.434 215.49 304.219C215.126 304.147 214.774 304.111 214.436 304.111C214.104 304.111 213.817 304.141 213.576 304.199C213.342 304.258 213.14 304.342 212.971 304.453C212.613 304.688 212.434 304.993 212.434 305.371C212.434 305.866 212.59 306.237 212.902 306.484C213.293 306.784 213.941 306.995 214.846 307.119C215.751 307.236 216.477 307.399 217.023 307.607C217.57 307.816 218.02 308.079 218.371 308.398C219.035 308.997 219.367 309.844 219.367 310.938C219.367 312.37 218.827 313.473 217.746 314.248C216.822 314.912 215.656 315.244 214.25 315.244C213.117 315.244 211.997 315.029 210.891 314.6C210.526 314.456 210.207 314.29 209.934 314.102L210.041 310.84L210.08 310.811C210.887 312.204 212.212 312.9 214.055 312.9C215.363 312.9 216.229 312.585 216.652 311.953C216.796 311.738 216.867 311.501 216.867 311.24C216.867 310.973 216.825 310.755 216.74 310.586C216.656 310.41 216.516 310.26 216.32 310.137C215.943 309.889 215.308 309.723 214.416 309.639C213.524 309.554 212.795 309.395 212.229 309.16C211.662 308.926 211.21 308.636 210.871 308.291C210.259 307.666 209.953 306.794 209.953 305.674C209.953 304.515 210.36 303.577 211.174 302.861C212.001 302.132 213.114 301.768 214.514 301.768C215.92 301.768 217.15 302.09 218.205 302.734ZM222.326 301.973C222.977 301.999 223.371 302.012 223.508 302.012H224.211C224.556 302.012 224.833 301.986 225.041 301.934L225.031 315H222.326V301.973ZM239.406 307.168C239.283 307.389 239.221 307.92 239.221 308.76V311.787C239.221 312.705 238.745 313.503 237.795 314.18C236.812 314.889 235.607 315.244 234.182 315.244C232.202 315.244 230.624 314.622 229.445 313.379C228.306 312.194 227.736 310.684 227.736 308.848C227.736 306.895 228.316 305.267 229.475 303.965C230.77 302.5 232.554 301.768 234.826 301.768C236.343 301.768 237.544 302.061 238.43 302.646L238.273 305.527L238.195 305.547C237.967 305.15 237.518 304.824 236.848 304.57C236.21 304.329 235.539 304.209 234.836 304.209C234.139 304.209 233.527 304.32 233 304.541C232.479 304.762 232.036 305.078 231.672 305.488C230.904 306.328 230.52 307.438 230.52 308.818C230.52 310.023 230.858 310.99 231.535 311.719C232.212 312.441 233.085 312.803 234.152 312.803C235.331 312.803 236.125 312.497 236.535 311.885C236.665 311.689 236.73 311.468 236.73 311.221V309.6H235.471C234.794 309.6 234.426 309.658 234.367 309.775L234.338 309.766L234.25 307.217C234.432 307.269 235.171 307.295 236.467 307.295H237.619C238.335 307.295 238.921 307.246 239.377 307.148L239.406 307.168ZM242.111 315C242.15 314.779 242.17 314.538 242.17 314.277V302.012H244.123L249.299 310.156V302.676C249.299 302.318 249.266 302.096 249.201 302.012H251.838C251.805 302.272 251.789 302.559 251.789 302.871V315H249.758L244.66 307.178V315H242.111ZM268.469 313.848C267.395 314.779 266.096 315.244 264.572 315.244C263.075 315.244 261.838 314.798 260.861 313.906C259.904 313.04 259.426 311.966 259.426 310.684C259.426 309.525 259.927 308.561 260.93 307.793C261.229 307.559 261.551 307.363 261.896 307.207C261.525 306.582 261.34 305.97 261.34 305.371C261.34 304.772 261.438 304.261 261.633 303.838C261.828 303.415 262.098 303.05 262.443 302.744C263.179 302.093 264.123 301.768 265.275 301.768C266.096 301.768 266.848 301.963 267.531 302.354C267.499 302.907 267.482 303.333 267.482 303.633C267.482 304.043 267.486 304.3 267.492 304.404C267.505 304.508 267.508 304.583 267.502 304.629C267.502 304.668 267.499 304.701 267.492 304.727C267.466 304.766 267.46 304.811 267.473 304.863L267.424 304.932C267.163 304.541 266.659 304.261 265.91 304.092C265.682 304.04 265.389 304.014 265.031 304.014C264.673 304.014 264.377 304.121 264.143 304.336C263.915 304.551 263.801 304.821 263.801 305.146C263.801 305.706 264.198 306.419 264.992 307.285C265.24 307.559 265.539 307.868 265.891 308.213L268.186 310.312C268.394 309.746 268.498 309.15 268.498 308.525C268.498 308.141 268.4 307.822 268.205 307.568C268.16 307.51 268.124 307.471 268.098 307.451V307.334L269.514 307.9C269.787 308.011 270.008 308.096 270.178 308.154C270.347 308.213 270.474 308.262 270.559 308.301C270.708 308.366 270.783 308.438 270.783 308.516C270.783 309.688 270.52 310.801 269.992 311.855C270.656 312.402 271.083 312.712 271.271 312.783C271.46 312.855 271.604 312.897 271.701 312.91C272.014 312.949 272.196 312.936 272.248 312.871L272.297 312.93L271.291 315.127C271.18 315.205 270.992 315.244 270.725 315.244C270.314 315.244 269.562 314.779 268.469 313.848ZM262.688 312.197C263.228 312.666 263.876 312.9 264.631 312.9C265.393 312.9 266.076 312.692 266.682 312.275L265.627 311.309C264.501 310.286 263.605 309.395 262.941 308.633C262.232 309.147 261.877 309.753 261.877 310.449C261.877 311.146 262.147 311.729 262.688 312.197ZM281.789 313.848C280.715 314.779 279.416 315.244 277.893 315.244C276.395 315.244 275.158 314.798 274.182 313.906C273.225 313.04 272.746 311.966 272.746 310.684C272.746 309.525 273.247 308.561 274.25 307.793C274.549 307.559 274.872 307.363 275.217 307.207C274.846 306.582 274.66 305.97 274.66 305.371C274.66 304.772 274.758 304.261 274.953 303.838C275.148 303.415 275.419 303.05 275.764 302.744C276.499 302.093 277.443 301.768 278.596 301.768C279.416 301.768 280.168 301.963 280.852 302.354C280.819 302.907 280.803 303.333 280.803 303.633C280.803 304.043 280.806 304.3 280.812 304.404C280.826 304.508 280.829 304.583 280.822 304.629C280.822 304.668 280.819 304.701 280.812 304.727C280.786 304.766 280.78 304.811 280.793 304.863L280.744 304.932C280.484 304.541 279.979 304.261 279.23 304.092C279.003 304.04 278.71 304.014 278.352 304.014C277.993 304.014 277.697 304.121 277.463 304.336C277.235 304.551 277.121 304.821 277.121 305.146C277.121 305.706 277.518 306.419 278.312 307.285C278.56 307.559 278.859 307.868 279.211 308.213L281.506 310.312C281.714 309.746 281.818 309.15 281.818 308.525C281.818 308.141 281.721 307.822 281.525 307.568C281.48 307.51 281.444 307.471 281.418 307.451V307.334L282.834 307.9C283.107 308.011 283.329 308.096 283.498 308.154C283.667 308.213 283.794 308.262 283.879 308.301C284.029 308.366 284.104 308.438 284.104 308.516C284.104 309.688 283.84 310.801 283.312 311.855C283.977 312.402 284.403 312.712 284.592 312.783C284.781 312.855 284.924 312.897 285.021 312.91C285.334 312.949 285.516 312.936 285.568 312.871L285.617 312.93L284.611 315.127C284.501 315.205 284.312 315.244 284.045 315.244C283.635 315.244 282.883 314.779 281.789 313.848ZM276.008 312.197C276.548 312.666 277.196 312.9 277.951 312.9C278.713 312.9 279.396 312.692 280.002 312.275L278.947 311.309C277.821 310.286 276.926 309.395 276.262 308.633C275.552 309.147 275.197 309.753 275.197 310.449C275.197 311.146 275.467 311.729 276.008 312.197ZM188.938 339.078C188.378 339.026 187.723 339 186.975 339H186.203L190.451 327.096C190.64 326.562 190.734 326.253 190.734 326.168C190.734 326.077 190.731 326.021 190.725 326.002L190.734 325.982C191.158 326.002 191.607 326.012 192.082 326.012C192.473 326.012 192.941 326.005 193.488 325.992L193.498 326.012C193.485 326.038 193.479 326.074 193.479 326.119C193.479 326.243 193.576 326.572 193.771 327.105L198.107 339.029C197.977 339.023 197.824 339.02 197.648 339.02C197.648 339.02 197.479 339.013 197.141 339C196.978 339 196.831 339 196.701 339H195.188L194.27 336.188H189.855L188.938 339.078ZM193.508 333.844L192.033 329.303L190.598 333.844H193.508ZM199.777 339C199.816 338.779 199.836 338.538 199.836 338.277V326.012H201.789L206.965 334.156V326.676C206.965 326.318 206.932 326.096 206.867 326.012H209.504C209.471 326.272 209.455 326.559 209.455 326.871V339H207.424L202.326 331.178V339H199.777ZM213.273 325.973C213.924 325.999 214.318 326.012 214.455 326.012H215.158C215.503 326.012 215.78 325.986 215.988 325.934L215.979 339H213.273V325.973ZM222.287 339.059C221.975 339.02 221.372 339 220.48 339H219.699V325.973C220.116 325.999 220.575 326.012 221.076 326.012C221.577 326.012 221.932 325.986 222.141 325.934L225.422 331.51L228.576 325.934C228.785 325.986 229.182 326.012 229.768 326.012C230.354 326.012 230.855 325.999 231.271 325.973V339H230.49C229.598 339 228.996 339.02 228.684 339.059V330.309L225.49 336.021L222.287 330.768V339.059ZM235.637 339.078C235.077 339.026 234.423 339 233.674 339H232.902L237.15 327.096C237.339 326.562 237.434 326.253 237.434 326.168C237.434 326.077 237.43 326.021 237.424 326.002L237.434 325.982C237.857 326.002 238.306 326.012 238.781 326.012C239.172 326.012 239.641 326.005 240.188 325.992L240.197 326.012C240.184 326.038 240.178 326.074 240.178 326.119C240.178 326.243 240.275 326.572 240.471 327.105L244.807 339.029C244.676 339.023 244.523 339.02 244.348 339.02C244.348 339.02 244.178 339.013 243.84 339C243.677 339 243.531 339 243.4 339H241.887L240.969 336.188H236.555L235.637 339.078ZM240.207 333.844L238.732 329.303L237.297 333.844H240.207ZM251.076 339.059C250.764 339.02 249.96 339 248.664 339H248.352V328.199H246.418C245.845 328.199 245.507 328.229 245.402 328.287C245.298 328.346 245.217 328.398 245.158 328.443L245.129 328.434V325.934L245.158 325.904C245.373 325.976 245.952 326.012 246.896 326.012H253.02C253.592 326.012 253.931 325.982 254.035 325.924C254.139 325.865 254.221 325.813 254.279 325.768L254.309 325.777V328.277L254.279 328.307C254.064 328.235 253.485 328.199 252.541 328.199H251.076V339.059ZM256.711 325.973C257.362 325.999 257.756 326.012 257.893 326.012H258.596C258.941 326.012 259.217 325.986 259.426 325.934L259.416 339H256.711V325.973ZM264.152 337.457C263.56 336.891 263.091 336.21 262.746 335.416C262.408 334.622 262.238 333.753 262.238 332.809C262.238 331.858 262.398 330.96 262.717 330.113C263.036 329.267 263.492 328.521 264.084 327.877C264.676 327.232 265.393 326.721 266.232 326.344C267.072 325.96 268.013 325.768 269.055 325.768C270.852 325.768 272.365 326.334 273.596 327.467C274.911 328.678 275.568 330.312 275.568 332.369C275.568 334.361 274.891 336.018 273.537 337.34C272.704 338.154 271.711 338.714 270.559 339.02C269.992 339.169 269.328 339.244 268.566 339.244C267.811 339.244 267.033 339.088 266.232 338.775C265.438 338.463 264.745 338.023 264.152 337.457ZM264.953 332.672C264.953 333.277 265.054 333.834 265.256 334.342C265.458 334.85 265.738 335.286 266.096 335.65C266.857 336.419 267.837 336.803 269.035 336.803C270.174 336.803 271.089 336.435 271.779 335.699C272.482 334.938 272.834 333.899 272.834 332.584C272.834 331.347 272.499 330.315 271.828 329.488C271.105 328.603 270.116 328.16 268.859 328.16C267.642 328.16 266.675 328.609 265.959 329.508C265.288 330.348 264.953 331.402 264.953 332.672ZM278.176 339C278.215 338.779 278.234 338.538 278.234 338.277V326.012H280.188L285.363 334.156V326.676C285.363 326.318 285.331 326.096 285.266 326.012H287.902C287.87 326.272 287.854 326.559 287.854 326.871V339H285.822L280.725 331.178V339H278.176Z" fill="#060606"/>
<path d="M39.2792 390.015L112.84 405.105" stroke="#ED5C01" stroke-width="3" stroke-miterlimit="10"/>
<path d="M53.9952 383.383C53.9952 383.383 49.1003 391.842 39.3167 389.84L39.2416 390.203C49.0252 392.211 50.1894 401.915 50.1894 401.915" stroke="#ED5C01" stroke-width="3" stroke-miterlimit="10"/>
<path d="M136.683 409.992C134.304 421.585 122.968 429.061 111.363 426.678L32.1371 410.436C20.5383 408.052 13.0583 396.722 15.4431 385.129C17.8217 373.536 29.1576 366.059 40.7564 368.443L119.982 384.691C131.587 387.068 139.061 398.399 136.683 409.992Z" stroke="#ED5C01" stroke-width="3" stroke-miterlimit="10"/>
<path d="M322.995 237.982C343.423 237.982 359.982 221.423 359.982 200.995C359.982 180.568 343.423 164.009 322.995 164.009C302.568 164.009 286.009 180.568 286.009 200.995C286.009 221.423 302.568 237.982 322.995 237.982Z" fill="#FFD56A"/>
<path d="M322.995 230.968C339.549 230.968 352.968 217.549 352.968 200.995C352.968 184.442 339.549 171.023 322.995 171.023C306.442 171.023 293.023 184.442 293.023 200.995C293.023 217.549 306.442 230.968 322.995 230.968Z" stroke="#201F1E" stroke-width="3" stroke-miterlimit="10"/>
<path d="M330.669 211.517C325.183 218.467 313.74 215.964 311.643 207.359" stroke="#201F1E" stroke-width="3" stroke-miterlimit="10" stroke-linecap="round"/>
<path d="M335.572 196.084C336.327 192.626 335.616 189.534 333.982 189.177C332.348 188.819 330.411 191.333 329.655 194.791C328.9 198.249 329.611 201.342 331.245 201.699C332.879 202.056 334.816 199.542 335.572 196.084Z" fill="#201F1E"/>
<path d="M319.543 192.577C320.299 189.119 319.587 186.026 317.953 185.669C316.319 185.312 314.382 187.826 313.627 191.284C312.871 194.742 313.583 197.834 315.217 198.191C316.851 198.548 318.788 196.035 319.543 192.577Z" fill="#201F1E"/>
<path d="M272 104.533H183.756L269.004 81.6976L267.72 76.9141L182.472 99.7492L258.908 55.64L256.441 51.36L180.005 95.4692L242.418 33.0819L238.918 29.5824L176.531 91.9948L220.64 15.5591L216.36 13.0918L172.251 89.5275L195.086 4.28L190.302 2.996L167.467 88.2435V0H162.533V88.2435L139.698 2.996L134.914 4.28L157.749 89.5275L113.64 13.0918L109.36 15.5591L153.469 91.9948L91.0819 29.5824L87.5824 33.0819L149.995 95.4692L73.5591 51.36L71.0918 55.64L147.528 99.7492L62.28 76.9141L60.996 81.6976L146.244 104.533H58V109.467H146.244L60.996 132.302L62.28 137.086L147.528 114.251L71.0918 158.36L73.5591 162.64L149.995 118.531L87.5824 180.918L91.0819 184.418L153.494 122.005L109.36 198.441L113.64 200.908L157.749 124.498L134.914 209.72L139.698 211.004L162.533 125.756V214H167.467V125.756L190.302 211.004L195.086 209.72L172.251 124.498L216.36 200.908L220.64 198.441L176.531 122.005L238.918 184.418L242.418 180.918L180.005 118.531L256.441 162.64L258.908 158.36L182.498 114.251L267.72 137.086L269.004 132.302L183.756 109.467H272V104.533Z" fill="#015CFE"/>
<path d="M69.1108 311.714L54.2354 306.165C52.8831 305.663 51.4053 306.43 51.0429 307.824L47.0277 323.19C46.4561 325.393 43.4169 325.658 42.4689 323.581L35.8886 309.135C35.2891 307.824 33.6998 307.322 32.459 308.047L18.7547 316.079C16.789 317.236 14.4608 315.27 15.2554 313.137L20.8041 298.259C21.306 296.906 20.5392 295.428 19.145 295.065L3.80956 291.05C1.60683 290.478 1.34194 287.438 3.4192 286.49L17.8624 279.909C19.1729 279.309 19.6748 277.719 18.9499 276.478L10.9196 262.772C9.76252 260.806 11.7282 258.477 13.8613 259.272L28.7367 264.821C30.089 265.323 31.5668 264.556 31.9293 263.162L35.9444 247.81C36.516 245.607 39.5552 245.342 40.5032 247.419L47.0835 261.865C47.683 263.176 49.2723 263.678 50.5131 262.953L64.2174 254.921C66.1832 253.764 68.5114 255.73 67.7167 257.863L62.1681 272.741C61.6662 274.094 62.4329 275.572 63.8271 275.935L79.1904 279.95C81.3932 280.522 81.6581 283.562 79.5808 284.51L65.1376 291.091C63.8271 291.691 63.3252 293.281 64.0501 294.522L72.0804 308.228C73.2096 310.194 71.2578 312.509 69.1108 311.714Z" stroke="#F68BCB" stroke-width="3" stroke-miterlimit="10"/>
</svg>
