<svg width="340" height="304" viewBox="0 0 340 304" fill="none" xmlns="http://www.w3.org/2000/svg">
<path d="M51.4372 235.465C45.8838 218.542 54.3974 197.927 74.5056 178.006C94.4713 158.226 125.216 139.864 162.039 127.781C198.861 115.697 234.508 112.273 262.311 116.377C290.313 120.511 309.385 132.074 314.939 148.997C320.492 165.92 311.979 186.535 291.87 206.456C271.905 226.236 241.16 244.598 204.337 256.681C167.515 268.765 131.868 272.189 104.065 268.084C76.0631 263.951 56.9905 252.388 51.4372 235.465Z" stroke="#D9FF47" stroke-width="6"/>
<path d="M38.1862 195.085C32.6328 178.162 41.1464 157.547 61.2546 137.626C81.2203 117.846 111.965 99.4838 148.788 87.4004C185.61 75.3171 221.257 71.8926 249.06 75.9971C277.062 80.1309 296.134 91.6932 301.688 108.616C307.241 125.54 298.728 146.154 278.619 166.076C258.654 185.856 227.909 204.217 191.086 216.301C154.264 228.384 118.617 231.809 90.8139 227.704C62.8121 223.57 43.7396 212.008 38.1862 195.085Z" stroke="#D9FF47" stroke-width="6"/>
<path d="M24.9354 154.704C19.3821 137.781 27.8957 117.166 48.0039 97.2453C67.9695 77.4653 98.7143 59.1034 135.537 47.02C172.359 34.9367 208.006 31.5122 235.809 35.6167C263.811 39.7506 282.884 51.3128 288.437 68.2361C293.99 85.1593 285.477 105.774 265.369 125.695C245.403 145.475 214.658 163.837 177.836 175.92C141.013 188.004 105.367 191.428 77.5632 187.324C49.5614 183.19 30.4888 171.628 24.9354 154.704Z" stroke="#D9FF47" stroke-width="6"/>
</svg>
