<svg width="1086" height="527" viewBox="0 0 1086 527" fill="none" xmlns="http://www.w3.org/2000/svg">
<path d="M9.55078 290.088C9.08203 290.029 7.87598 290 5.93262 290H5.46387V273.799H2.56348C1.7041 273.799 1.19629 273.843 1.04004 273.931C0.883789 274.019 0.761719 274.097 0.673828 274.165L0.629883 274.15V270.4L0.673828 270.356C0.996094 270.464 1.86523 270.518 3.28125 270.518H12.4658C13.3252 270.518 13.833 270.474 13.9893 270.386C14.1455 270.298 14.2676 270.22 14.3555 270.151L14.3994 270.166V273.916L14.3555 273.96C14.0332 273.853 13.1641 273.799 11.748 273.799H9.55078V290.088ZM21.5039 290.088C20.5664 290.029 19.4531 290 18.1641 290H17.6953V270.444C18.3008 270.493 18.7305 270.518 18.9844 270.518H19.585C20.3564 270.518 20.9961 270.479 21.5039 270.4V278.208H28.3887V270.444C29.1992 270.493 29.9854 270.518 30.7471 270.518C31.5186 270.518 32.002 270.479 32.1973 270.4V290.088C31.7285 290.029 30.8008 290 29.4141 290H28.3887V281.724H21.5039V290.088ZM38.9502 290.117C38.1104 290.039 37.1289 290 36.0059 290H34.8486L41.2207 272.144C41.5039 271.343 41.6455 270.879 41.6455 270.752C41.6455 270.615 41.6406 270.532 41.6309 270.503L41.6455 270.474C42.2803 270.503 42.9541 270.518 43.667 270.518C44.2529 270.518 44.9561 270.508 45.7764 270.488L45.791 270.518C45.7715 270.557 45.7617 270.61 45.7617 270.679C45.7617 270.864 45.9082 271.357 46.2012 272.158L52.7051 290.044C52.5098 290.034 52.2803 290.029 52.0166 290.029C52.0166 290.029 51.7627 290.02 51.2549 290C51.0107 290 50.791 290 50.5957 290H48.3252L46.9482 285.781H40.3271L38.9502 290.117ZM45.8057 282.266L43.5938 275.454L41.4404 282.266H45.8057ZM55.21 290C55.2686 289.668 55.2979 289.307 55.2979 288.916V270.518H58.2275L65.9912 282.734V271.514C65.9912 270.977 65.9424 270.645 65.8447 270.518H69.7998C69.751 270.908 69.7266 271.338 69.7266 271.807V290H66.6797L59.0332 278.267V290H55.21ZM78.7354 290.088C78.0615 290.029 77.2021 290 76.1572 290H75V270.459L75.5859 270.488C75.9961 270.508 76.3037 270.518 76.5088 270.518H76.9336C77.793 270.518 78.3936 270.479 78.7354 270.4V278.677L84.668 270.459C85.293 270.498 85.8203 270.518 86.25 270.518H87.0557C88.0615 270.518 88.7793 270.479 89.209 270.4L83.5547 277.783L89.1211 288.828C89.3555 289.365 89.5752 289.756 89.7803 290H88.8867C86.8262 290 85.542 290.039 85.0342 290.117C84.9268 289.463 84.7803 288.892 84.5947 288.403L80.8594 281.284L78.7354 284.067V290.088ZM106.538 290C106.665 289.619 106.729 288.73 106.729 287.334V283.262C105.039 279.541 103.96 277.222 103.491 276.304C103.022 275.376 102.627 274.644 102.305 274.106C101.289 272.388 100.674 271.401 100.459 271.147C100.254 270.894 100.044 270.684 99.8291 270.518H104.883C104.99 270.713 105.137 271.001 105.322 271.382L108.867 278.867C109.033 278.457 109.229 277.998 109.453 277.49C111.582 272.91 112.661 270.586 112.69 270.518H117.524C117.026 270.918 116.416 271.758 115.693 273.037C115.469 273.418 115.244 273.853 115.02 274.341L111.709 281.24C111.338 282.07 111.021 282.817 110.757 283.481V287.686C110.757 288.662 110.815 289.434 110.933 290H106.538ZM121.538 287.686C120.649 286.836 119.946 285.815 119.429 284.624C118.921 283.433 118.667 282.129 118.667 280.713C118.667 279.287 118.906 277.939 119.385 276.67C119.863 275.4 120.547 274.282 121.436 273.315C122.324 272.349 123.398 271.582 124.658 271.016C125.918 270.439 127.329 270.151 128.892 270.151C131.587 270.151 133.857 271.001 135.703 272.7C137.676 274.517 138.662 276.968 138.662 280.054C138.662 283.042 137.646 285.527 135.615 287.51C134.365 288.73 132.876 289.57 131.147 290.029C130.298 290.254 129.302 290.366 128.159 290.366C127.026 290.366 125.859 290.132 124.658 289.663C123.467 289.194 122.427 288.535 121.538 287.686ZM122.739 280.508C122.739 281.416 122.891 282.251 123.193 283.013C123.496 283.774 123.916 284.429 124.453 284.976C125.596 286.128 127.065 286.704 128.862 286.704C130.571 286.704 131.943 286.152 132.979 285.049C134.033 283.906 134.561 282.349 134.561 280.376C134.561 278.521 134.058 276.973 133.052 275.732C131.968 274.404 130.483 273.74 128.599 273.74C126.772 273.74 125.322 274.414 124.248 275.762C123.242 277.021 122.739 278.604 122.739 280.508ZM153.545 270.444C154.15 270.493 154.653 270.518 155.054 270.518H156.27C156.68 270.518 157.109 270.479 157.559 270.4V282.515C157.559 284.917 156.831 286.846 155.376 288.301C153.999 289.678 152.271 290.366 150.19 290.366C147.915 290.366 146.074 289.775 144.668 288.594C143.096 287.266 142.31 285.352 142.31 282.852V270.444C143.12 270.493 143.882 270.518 144.595 270.518C145.317 270.518 145.913 270.479 146.382 270.4V283.042C146.382 284.272 146.758 285.229 147.51 285.913C148.213 286.538 149.092 286.851 150.146 286.851C151.709 286.851 152.749 286.05 153.267 284.448C153.452 283.872 153.545 283.159 153.545 282.31V270.444ZM182.71 281.577C182.241 281.528 181.636 281.504 180.894 281.504H176.455V290H172.441V270.415C172.705 270.435 173.008 270.449 173.35 270.459L174.434 270.488C175.176 270.508 175.947 270.518 176.748 270.518C179.15 270.518 181.445 270.479 183.633 270.4C183.525 271.26 183.472 272.407 183.472 273.843C183.472 273.999 183.481 274.116 183.501 274.194L183.472 274.238C182.954 274.092 182.231 274.019 181.304 274.019H176.455V278.047H180.732C181.807 278.047 182.451 278.018 182.666 277.959L182.71 281.577ZM189.009 287.686C188.12 286.836 187.417 285.815 186.899 284.624C186.392 283.433 186.138 282.129 186.138 280.713C186.138 279.287 186.377 277.939 186.855 276.67C187.334 275.4 188.018 274.282 188.906 273.315C189.795 272.349 190.869 271.582 192.129 271.016C193.389 270.439 194.8 270.151 196.362 270.151C199.058 270.151 201.328 271.001 203.174 272.7C205.146 274.517 206.133 276.968 206.133 280.054C206.133 283.042 205.117 285.527 203.086 287.51C201.836 288.73 200.347 289.57 198.618 290.029C197.769 290.254 196.772 290.366 195.63 290.366C194.497 290.366 193.33 290.132 192.129 289.663C190.938 289.194 189.897 288.535 189.009 287.686ZM190.21 280.508C190.21 281.416 190.361 282.251 190.664 283.013C190.967 283.774 191.387 284.429 191.924 284.976C193.066 286.128 194.536 286.704 196.333 286.704C198.042 286.704 199.414 286.152 200.449 285.049C201.504 283.906 202.031 282.349 202.031 280.376C202.031 278.521 201.528 276.973 200.522 275.732C199.438 274.404 197.954 273.74 196.069 273.74C194.243 273.74 192.793 274.414 191.719 275.762C190.713 277.021 190.21 278.604 190.21 280.508ZM216.211 282.427C215.918 282.446 215.605 282.456 215.273 282.456C214.941 282.456 214.448 282.432 213.794 282.383V290H209.912V270.415C211.279 270.239 212.959 270.151 214.951 270.151C217.666 270.151 219.688 270.654 221.016 271.66C222.354 272.656 223.022 274.199 223.022 276.289C223.022 277.91 222.412 279.297 221.191 280.449C220.791 280.82 220.332 281.143 219.814 281.416L222.803 287.715C223.389 289.014 223.838 289.785 224.15 290.029L224.077 290.103C223.13 289.946 221.641 289.951 219.609 290.117L216.211 282.427ZM215.229 273.608C214.731 273.608 214.253 273.633 213.794 273.682V279.277C214.272 279.346 214.834 279.38 215.479 279.38C216.123 279.38 216.665 279.326 217.104 279.219C217.544 279.102 217.925 278.926 218.247 278.691C218.94 278.174 219.287 277.397 219.287 276.362C219.287 275.327 218.926 274.6 218.203 274.18C217.529 273.799 216.538 273.608 215.229 273.608ZM244.336 290.059C244.043 290.02 243.545 290 242.842 290H241.143C240.811 290 240.537 290.01 240.322 290.029L240.308 290C240.347 289.932 240.366 289.854 240.366 289.766C240.366 289.678 240.356 289.585 240.337 289.487C240.327 289.39 240.288 289.214 240.22 288.96C240.161 288.706 240.068 288.34 239.941 287.861L234.961 270.459C235.586 270.498 236.343 270.518 237.231 270.518C238.12 270.518 238.696 270.479 238.96 270.4L242.417 283.657L245.786 270.459C245.933 270.469 246.064 270.479 246.182 270.488H246.504C246.826 270.508 247.231 270.518 247.72 270.518C248.208 270.518 248.711 270.479 249.229 270.4L252.656 283.657L255.601 270.459C256.187 270.498 256.953 270.518 257.9 270.518C258.848 270.518 259.424 270.479 259.629 270.4L255.41 285.854C254.873 287.632 254.59 288.687 254.561 289.019C254.531 289.351 254.517 289.58 254.517 289.707C254.517 289.834 254.536 289.937 254.575 290.015L254.546 290.059C254.233 290.02 253.74 290 253.066 290C252.48 290 251.948 290 251.47 290C250.991 290 250.645 290.01 250.43 290.029L250.415 290C250.454 289.932 250.474 289.854 250.474 289.766C250.474 289.678 250.469 289.59 250.459 289.502C250.449 289.414 250.42 289.248 250.371 289.004C250.332 288.75 250.264 288.379 250.166 287.891L249.771 285.898L247.368 276.772L245.083 285.854C244.614 287.72 244.37 288.794 244.351 289.077C244.312 289.614 244.316 289.927 244.365 290.015L244.336 290.059ZM263.833 290.117C262.993 290.039 262.012 290 260.889 290H259.731L266.104 272.144C266.387 271.343 266.528 270.879 266.528 270.752C266.528 270.615 266.523 270.532 266.514 270.503L266.528 270.474C267.163 270.503 267.837 270.518 268.55 270.518C269.136 270.518 269.839 270.508 270.659 270.488L270.674 270.518C270.654 270.557 270.645 270.61 270.645 270.679C270.645 270.864 270.791 271.357 271.084 272.158L277.588 290.044C277.393 290.034 277.163 290.029 276.899 290.029C276.899 290.029 276.646 290.02 276.138 290C275.894 290 275.674 290 275.479 290H273.208L271.831 285.781H265.21L263.833 290.117ZM270.688 282.266L268.477 275.454L266.323 282.266H270.688ZM286.992 290.088C286.523 290.029 285.317 290 283.374 290H282.905V273.799H280.005C279.146 273.799 278.638 273.843 278.481 273.931C278.325 274.019 278.203 274.097 278.115 274.165L278.071 274.15V270.4L278.115 270.356C278.438 270.464 279.307 270.518 280.723 270.518H289.907C290.767 270.518 291.274 270.474 291.431 270.386C291.587 270.298 291.709 270.22 291.797 270.151L291.841 270.166V273.916L291.797 273.96C291.475 273.853 290.605 273.799 289.189 273.799H286.992V290.088ZM303.721 270.151C305.547 270.151 307.104 270.469 308.394 271.104V275.586L308.364 275.615C307.817 274.775 306.665 274.219 304.907 273.945C304.39 273.857 303.735 273.813 302.944 273.813C302.153 273.813 301.377 273.965 300.615 274.268C299.854 274.561 299.229 274.98 298.74 275.527C297.793 276.592 297.319 278.11 297.319 280.083C297.319 282.378 297.92 284.087 299.121 285.21C300.117 286.147 301.436 286.616 303.076 286.616C304.932 286.616 306.436 286.221 307.588 285.43C308.008 285.146 308.364 284.795 308.657 284.375L308.701 284.404V288.506C307.207 289.746 305.195 290.366 302.666 290.366C299.688 290.366 297.354 289.419 295.664 287.524C294.043 285.718 293.232 283.325 293.232 280.347C293.232 277.192 294.121 274.707 295.898 272.891C297.695 271.064 300.303 270.151 303.721 270.151ZM316.348 290.088C315.41 290.029 314.297 290 313.008 290H312.539V270.444C313.145 270.493 313.574 270.518 313.828 270.518H314.429C315.2 270.518 315.84 270.479 316.348 270.4V278.208H323.232V270.444C324.043 270.493 324.829 270.518 325.591 270.518C326.362 270.518 326.846 270.479 327.041 270.4V290.088C326.572 290.029 325.645 290 324.258 290H323.232V281.724H316.348V290.088ZM332.827 270.459C333.804 270.498 334.395 270.518 334.6 270.518H335.654C336.172 270.518 336.587 270.479 336.899 270.4L336.885 290H332.827V270.459ZM342.524 290C342.583 289.668 342.612 289.307 342.612 288.916V270.518H345.542L353.306 282.734V271.514C353.306 270.977 353.257 270.645 353.159 270.518H357.114C357.065 270.908 357.041 271.338 357.041 271.807V290H353.994L346.348 278.267V290H342.524ZM378.369 278.252C378.184 278.584 378.091 279.38 378.091 280.64V285.181C378.091 286.558 377.378 287.754 375.952 288.77C374.478 289.834 372.671 290.366 370.532 290.366C367.563 290.366 365.195 289.434 363.428 287.568C361.719 285.791 360.864 283.525 360.864 280.771C360.864 277.842 361.733 275.4 363.472 273.447C365.415 271.25 368.091 270.151 371.499 270.151C373.774 270.151 375.576 270.591 376.904 271.47L376.67 275.791L376.553 275.82C376.211 275.225 375.537 274.736 374.531 274.355C373.574 273.994 372.568 273.813 371.514 273.813C370.469 273.813 369.551 273.979 368.76 274.312C367.979 274.644 367.314 275.117 366.768 275.732C365.615 276.992 365.039 278.657 365.039 280.728C365.039 282.534 365.547 283.984 366.562 285.078C367.578 286.162 368.887 286.704 370.488 286.704C372.256 286.704 373.447 286.245 374.062 285.327C374.258 285.034 374.355 284.702 374.355 284.331V281.899H372.466C371.45 281.899 370.898 281.987 370.811 282.163L370.767 282.148L370.635 278.325C370.908 278.403 372.017 278.442 373.96 278.442H375.688C376.763 278.442 377.642 278.369 378.325 278.223L378.369 278.252Z" fill="black"/>
<path d="M404 282H1086" stroke="black" stroke-width="2"/>
<path d="M1048.99 232.973C1069.41 232.973 1085.97 216.413 1085.97 195.986C1085.97 175.559 1069.41 159 1048.99 159C1028.56 159 1012 175.559 1012 195.986C1012 216.413 1028.56 232.973 1048.99 232.973Z" fill="#FFD56A"/>
<path d="M1048.99 225.959C1065.54 225.959 1078.96 212.54 1078.96 195.987C1078.96 179.433 1065.54 166.014 1048.99 166.014C1032.43 166.014 1019.01 179.433 1019.01 195.987C1019.01 212.54 1032.43 225.959 1048.99 225.959Z" stroke="#201F1E" stroke-width="3" stroke-miterlimit="10"/>
<path d="M1056.66 206.507C1051.17 213.458 1039.73 210.954 1037.63 202.35" stroke="#201F1E" stroke-width="3" stroke-miterlimit="10" stroke-linecap="round"/>
<path d="M1061.56 191.075C1062.32 187.617 1061.61 184.525 1059.97 184.168C1058.34 183.811 1056.4 186.324 1055.65 189.782C1054.89 193.24 1055.6 196.333 1057.24 196.69C1058.87 197.047 1060.81 194.533 1061.56 191.075Z" fill="#201F1E"/>
<path d="M1045.53 187.568C1046.29 184.11 1045.58 181.017 1043.94 180.66C1042.31 180.303 1040.37 182.817 1039.62 186.275C1038.86 189.733 1039.57 192.825 1041.21 193.182C1042.84 193.539 1044.78 191.026 1045.53 187.568Z" fill="#201F1E"/>
<path d="M288 104.533H199.756L285.004 81.6976L283.72 76.9141L198.472 99.7492L274.908 55.64L272.441 51.36L196.005 95.4692L258.418 33.0819L254.918 29.5824L192.531 91.9948L236.64 15.5591L232.36 13.0918L188.251 89.5275L211.086 4.28L206.302 2.996L183.467 88.2435V0H178.533V88.2435L155.698 2.996L150.914 4.28L173.749 89.5275L129.64 13.0918L125.36 15.5591L169.469 91.9948L107.082 29.5824L103.582 33.0819L165.995 95.4692L89.5591 51.36L87.0918 55.64L163.528 99.7492L78.28 76.9141L76.996 81.6976L162.244 104.533H74V109.467H162.244L76.996 132.302L78.28 137.086L163.528 114.251L87.0918 158.36L89.5591 162.64L165.995 118.531L103.582 180.918L107.082 184.418L169.494 122.005L125.36 198.441L129.64 200.908L173.749 124.498L150.914 209.72L155.698 211.004L178.533 125.756V214H183.467V125.756L206.302 211.004L211.086 209.72L188.251 124.498L232.36 200.908L236.64 198.441L192.531 122.005L254.918 184.418L258.418 180.918L196.005 118.531L272.441 162.64L274.908 158.36L198.498 114.251L283.72 137.086L285.004 132.302L199.756 109.467H288V104.533Z" fill="#015CFE"/>
<path d="M449.312 346.5C460.951 346.5 471.891 355.974 480.012 372.214C488.087 388.365 493.125 410.782 493.125 435.625C493.125 460.468 488.087 482.885 480.012 499.036C471.891 515.276 460.951 524.75 449.312 524.75C437.674 524.75 426.734 515.276 418.613 499.036C410.538 482.885 405.5 460.468 405.5 435.625C405.5 410.782 410.538 388.365 418.613 372.214C426.734 355.974 437.674 346.5 449.312 346.5Z" stroke="#D9FF47" stroke-width="3"/>
<path d="M476.5 346.5C488.138 346.5 499.079 355.974 507.199 372.214C515.274 388.365 520.312 410.782 520.312 435.625C520.312 460.468 515.274 482.885 507.199 499.036C499.079 515.276 488.138 524.75 476.5 524.75C464.862 524.75 453.921 515.276 445.801 499.036C437.726 482.885 432.687 460.468 432.687 435.625C432.687 410.782 437.725 388.365 445.801 372.214C453.921 355.974 464.862 346.5 476.5 346.5Z" stroke="#D9FF47" stroke-width="3"/>
<path d="M503.687 346.5C515.326 346.5 526.266 355.974 534.387 372.214C542.462 388.365 547.5 410.782 547.5 435.625C547.5 460.468 542.462 482.885 534.387 499.036C526.266 515.276 515.326 524.75 503.687 524.75C492.049 524.75 481.109 515.276 472.988 499.036C464.913 482.885 459.875 460.468 459.875 435.625C459.875 410.782 464.913 388.365 472.988 372.214C481.109 355.974 492.049 346.5 503.687 346.5Z" stroke="#D9FF47" stroke-width="3"/>
</svg>
