<svg width="400" height="104" viewBox="0 0 400 104" fill="none" xmlns="http://www.w3.org/2000/svg">
<path d="M384.041 19.8514C385.654 22.0554 386.217 25.0279 385.651 28.6944C385.083 32.3693 383.393 36.6269 380.657 41.2057C375.189 50.3578 365.698 60.5323 353.451 69.4927C341.205 78.4531 328.635 84.4192 318.257 86.8615C313.065 88.0834 308.495 88.4057 304.821 87.8343C301.155 87.2642 298.493 85.8278 296.88 83.6238C295.267 81.4199 294.704 78.4474 295.27 74.7808C295.838 71.1059 297.528 66.8483 300.264 62.2696C305.733 53.1175 315.223 42.943 327.47 33.9826C339.717 25.0221 352.286 19.056 362.664 16.6137C367.856 15.3919 372.426 15.0696 376.1 15.641C379.766 16.2111 382.429 17.6474 384.041 19.8514Z" stroke="#D9FF47" stroke-width="3"/>
<path d="M83.3398 37.207C88.0469 39.1992 90.4004 42.5781 90.4004 47.3438C90.4004 51.1328 88.8477 54.2773 85.7422 56.7773C82.4805 59.4141 78.1641 60.7324 72.793 60.7324C67.6172 60.7324 63.457 59.5312 60.3125 57.1289L60.1953 49.3066L60.4883 48.9551C62.832 52.1387 66.9141 53.7305 72.7344 53.7305C79.5312 53.7305 82.9297 51.4746 82.9297 46.9629C82.9297 45.3418 81.9336 44.0723 79.9414 43.1543C78.1445 42.334 76.0547 41.9238 73.6719 41.9238C70.3906 41.9238 67.8711 42.4805 66.1133 43.5938L65.9375 43.3887L66.2305 36.4746C68.5938 35.8301 71.0742 35.5078 73.6719 35.5078H75.1953C75.7422 35.5078 76.2793 35.5273 76.8066 35.5664C78.0566 34.8242 78.8672 33.7109 79.2383 32.2266C79.3555 31.8164 79.4141 31.4062 79.4141 30.9961C79.4141 30.5664 79.2871 30.1367 79.0332 29.707C78.7793 29.2578 78.3984 28.8672 77.8906 28.5352C76.7773 27.7734 75.5176 27.3926 74.1113 27.3926C72.7246 27.3926 71.5527 27.4707 70.5957 27.627C69.6387 27.7832 68.7109 28.0078 67.8125 28.3008C65.8789 28.9453 64.4336 29.7461 63.4766 30.7031L63.3301 30.5566L62.9785 23.0566C66.123 21.2207 69.9414 20.3027 74.4336 20.3027C77.9688 20.3027 80.918 21.1133 83.2812 22.7344C85.8203 24.4922 87.0898 26.8359 87.0898 29.7656C87.0898 31.3672 86.7383 32.8125 86.0352 34.1016C85.332 35.3711 84.4336 36.4062 83.3398 37.207ZM74.082 36.2988C74.5703 36.2988 74.9805 36.2598 75.3125 36.1816L74.082 36.2988ZM107.305 60.7324C104.141 60.7324 101.162 60.4785 98.3691 59.9707V20.7715C100.947 20.459 103.936 20.3027 107.334 20.3027C110.752 20.3027 113.838 20.7715 116.592 21.709C119.365 22.627 121.68 23.9453 123.535 25.6641C127.285 29.1016 129.16 33.916 129.16 40.1074C129.16 47.041 127.07 52.3047 122.891 55.8984C119.141 59.1211 113.945 60.7324 107.305 60.7324ZM105.986 53.584C107.256 53.8184 108.525 53.9355 109.795 53.9355C111.064 53.9355 112.432 53.6914 113.896 53.2031C115.361 52.6953 116.631 51.9141 117.705 50.8594C120.01 48.6328 121.162 45.3906 121.162 41.1328C121.162 34.1406 118.613 29.8438 113.516 28.2422C111.836 27.7148 109.893 27.4512 107.686 27.4512H106.895C106.602 27.4512 106.299 27.4609 105.986 27.4805V53.584ZM171.641 60.1172C171.055 60.0391 170.059 60 168.652 60H165.254C164.59 60 164.043 60.0195 163.613 60.0586L163.584 60C163.662 59.8633 163.701 59.707 163.701 59.5312C163.701 59.3555 163.682 59.1699 163.643 58.9746C163.623 58.7793 163.545 58.4277 163.408 57.9199C163.291 57.4121 163.105 56.6797 162.852 55.7227L152.891 20.918C154.141 20.9961 155.654 21.0352 157.432 21.0352C159.209 21.0352 160.361 20.957 160.889 20.8008L167.803 47.3145L174.541 20.918C174.834 20.9375 175.098 20.957 175.332 20.9766H175.977C176.621 21.0156 177.432 21.0352 178.408 21.0352C179.385 21.0352 180.391 20.957 181.426 20.8008L188.281 47.3145L194.17 20.918C195.342 20.9961 196.875 21.0352 198.77 21.0352C200.664 21.0352 201.816 20.957 202.227 20.8008L193.789 51.709C192.715 55.2637 192.148 57.373 192.09 58.0371C192.031 58.7012 192.002 59.1602 192.002 59.4141C192.002 59.668 192.041 59.873 192.119 60.0293L192.061 60.1172C191.436 60.0391 190.449 60 189.102 60C187.93 60 186.865 60 185.908 60C184.951 60 184.258 60.0195 183.828 60.0586L183.799 60C183.877 59.8633 183.916 59.707 183.916 59.5312C183.916 59.3555 183.906 59.1797 183.887 59.0039C183.867 58.8281 183.809 58.4961 183.711 58.0078C183.633 57.5 183.496 56.7578 183.301 55.7812L182.51 51.7969L177.705 33.5449L173.135 51.709C172.197 55.4395 171.709 57.5879 171.67 58.1543C171.592 59.2285 171.602 59.8535 171.699 60.0293L171.641 60.1172ZM210.986 55.3711C209.209 53.6719 207.803 51.6309 206.768 49.248C205.752 46.8652 205.244 44.2578 205.244 41.4258C205.244 38.5742 205.723 35.8789 206.68 33.3398C207.637 30.8008 209.004 28.5645 210.781 26.6309C212.559 24.6973 214.707 23.1641 217.227 22.0312C219.746 20.8789 222.568 20.3027 225.693 20.3027C231.084 20.3027 235.625 22.002 239.316 25.4004C243.262 29.0332 245.234 33.9355 245.234 40.1074C245.234 46.084 243.203 51.0547 239.141 55.0195C236.641 57.4609 233.662 59.1406 230.205 60.0586C228.506 60.5078 226.514 60.7324 224.229 60.7324C221.963 60.7324 219.629 60.2637 217.227 59.3262C214.844 58.3887 212.764 57.0703 210.986 55.3711ZM213.389 41.0156C213.389 42.832 213.691 44.502 214.297 46.0254C214.902 47.5488 215.742 48.8574 216.816 49.9512C219.102 52.2559 222.041 53.4082 225.635 53.4082C229.053 53.4082 231.797 52.3047 233.867 50.0977C235.977 47.8125 237.031 44.6973 237.031 40.752C237.031 37.041 236.025 33.9453 234.014 31.4648C231.846 28.8086 228.877 27.4805 225.107 27.4805C221.455 27.4805 218.555 28.8281 216.406 31.5234C214.395 34.043 213.389 37.207 213.389 41.0156ZM265.391 44.8535C264.805 44.8926 264.18 44.9121 263.516 44.9121C262.852 44.9121 261.865 44.8633 260.557 44.7656V60H252.793V20.8301C255.527 20.4785 258.887 20.3027 262.871 20.3027C268.301 20.3027 272.344 21.3086 275 23.3203C277.676 25.3125 279.014 28.3984 279.014 32.5781C279.014 35.8203 277.793 38.5938 275.352 40.8984C274.551 41.6406 273.633 42.2852 272.598 42.832L278.574 55.4297C279.746 58.0273 280.645 59.5703 281.27 60.0586L281.123 60.2051C279.229 59.8926 276.25 59.9023 272.188 60.2344L265.391 44.8535ZM263.428 27.2168C262.432 27.2168 261.475 27.2656 260.557 27.3633V38.5547C261.514 38.6914 262.637 38.7598 263.926 38.7598C265.215 38.7598 266.299 38.6523 267.178 38.4375C268.057 38.2031 268.818 37.8516 269.463 37.3828C270.85 36.3477 271.543 34.7949 271.543 32.7246C271.543 30.6543 270.82 29.1992 269.375 28.3594C268.027 27.5977 266.045 27.2168 263.428 27.2168ZM295.244 60.1758C293.896 60.0586 292.178 60 290.088 60H287.773V20.918L288.945 20.9766C289.766 21.0156 290.381 21.0352 290.791 21.0352H291.641C293.359 21.0352 294.561 20.957 295.244 20.8008V37.3535L307.109 20.918C308.359 20.9961 309.414 21.0352 310.273 21.0352H311.885C313.896 21.0352 315.332 20.957 316.191 20.8008L304.883 35.5664L316.016 57.6562C316.484 58.7305 316.924 59.5117 317.334 60H315.547C311.426 60 308.857 60.0781 307.842 60.2344C307.627 58.9258 307.334 57.7832 306.963 56.8066L299.492 42.5684L295.244 48.1348V60.1758ZM346.279 23.2031L345.723 31.8164L345.518 31.875C344.072 29.707 341.611 28.3008 338.135 27.6562C337.041 27.4414 335.986 27.334 334.971 27.334C333.975 27.334 333.115 27.4219 332.393 27.5977C331.689 27.7734 331.084 28.0273 330.576 28.3594C329.502 29.0625 328.965 29.9805 328.965 31.1133C328.965 32.5977 329.434 33.7109 330.371 34.4531C331.543 35.3516 333.486 35.9863 336.201 36.3574C338.916 36.709 341.094 37.1973 342.734 37.8223C344.375 38.4473 345.723 39.2383 346.777 40.1953C348.77 41.9922 349.766 44.5312 349.766 47.8125C349.766 52.1094 348.145 55.4199 344.902 57.7441C342.129 59.7363 338.633 60.7324 334.414 60.7324C331.016 60.7324 327.656 60.0879 324.336 58.7988C323.242 58.3691 322.285 57.8711 321.465 57.3047L321.787 47.5195L321.904 47.4316C324.326 51.6113 328.301 53.7012 333.828 53.7012C337.754 53.7012 340.352 52.7539 341.621 50.8594C342.051 50.2148 342.266 49.502 342.266 48.7207C342.266 47.9199 342.139 47.2656 341.885 46.7578C341.631 46.2305 341.211 45.7812 340.625 45.4102C339.492 44.668 337.588 44.1699 334.912 43.916C332.236 43.6621 330.049 43.1836 328.35 42.4805C326.65 41.7773 325.293 40.9082 324.277 39.873C322.441 37.998 321.523 35.3809 321.523 32.0215C321.523 28.5449 322.744 25.7324 325.186 23.584C327.666 21.3965 331.006 20.3027 335.205 20.3027C339.424 20.3027 343.115 21.2695 346.279 23.2031Z" fill="black"/>
<circle cx="22.793" cy="39" r="22" fill="#D9FF47"/>
<path d="M16.6868 28.1754L26.1233 51.7189L29.1621 50.5009L19.7256 26.9574L16.6868 28.1754Z" fill="black"/>
<path d="M29.811 28.5638L13.5319 48.0157L16.0426 50.1169L32.3217 30.665L29.811 28.5638Z" fill="black"/>
<path d="M35.7132 39.2924L10.5447 36.1434L10.1382 39.392L35.3067 42.541L35.7132 39.2924Z" fill="black"/>
</svg>
