<svg width="511" height="89" viewBox="0 0 511 89" fill="none" xmlns="http://www.w3.org/2000/svg">
<path d="M495.248 4.8514C496.861 7.05538 497.424 10.0279 496.858 13.6944C496.29 17.3693 494.6 21.6269 491.864 26.2057C486.396 35.3578 476.905 45.5323 464.658 54.4927C452.412 63.4531 439.842 69.4192 429.464 71.8615C424.272 73.0834 419.702 73.4057 416.028 72.8343C412.362 72.2642 409.7 70.8278 408.087 68.6238C406.474 66.4199 405.911 63.4474 406.477 59.7808C407.045 56.1059 408.735 51.8483 411.471 47.2696C416.94 38.1175 426.43 27.943 438.677 18.9826C450.924 10.0221 463.493 4.056 473.871 1.61374C479.063 0.391883 483.633 0.0695534 487.307 0.640957C490.973 1.21107 493.636 2.64742 495.248 4.8514Z" stroke="#D9FF47" stroke-width="3"/>
<path d="M80.5469 22.207C85.2539 24.1992 87.6074 27.5781 87.6074 32.3438C87.6074 36.1328 86.0547 39.2773 82.9492 41.7773C79.6875 44.4141 75.3711 45.7324 70 45.7324C64.8242 45.7324 60.6641 44.5312 57.5195 42.1289L57.4023 34.3066L57.6953 33.9551C60.0391 37.1387 64.1211 38.7305 69.9414 38.7305C76.7383 38.7305 80.1367 36.4746 80.1367 31.9629C80.1367 30.3418 79.1406 29.0723 77.1484 28.1543C75.3516 27.334 73.2617 26.9238 70.8789 26.9238C67.5977 26.9238 65.0781 27.4805 63.3203 28.5938L63.1445 28.3887L63.4375 21.4746C65.8008 20.8301 68.2812 20.5078 70.8789 20.5078H72.4023C72.9492 20.5078 73.4863 20.5273 74.0137 20.5664C75.2637 19.8242 76.0742 18.7109 76.4453 17.2266C76.5625 16.8164 76.6211 16.4062 76.6211 15.9961C76.6211 15.5664 76.4941 15.1367 76.2402 14.707C75.9863 14.2578 75.6055 13.8672 75.0977 13.5352C73.9844 12.7734 72.7246 12.3926 71.3184 12.3926C69.9316 12.3926 68.7598 12.4707 67.8027 12.627C66.8457 12.7832 65.918 13.0078 65.0195 13.3008C63.0859 13.9453 61.6406 14.7461 60.6836 15.7031L60.5371 15.5566L60.1855 8.05664C63.3301 6.2207 67.1484 5.30273 71.6406 5.30273C75.1758 5.30273 78.125 6.11328 80.4883 7.73438C83.0273 9.49219 84.2969 11.8359 84.2969 14.7656C84.2969 16.3672 83.9453 17.8125 83.2422 19.1016C82.5391 20.3711 81.6406 21.4062 80.5469 22.207ZM71.2891 21.2988C71.7773 21.2988 72.1875 21.2598 72.5195 21.1816L71.2891 21.2988ZM104.512 45.7324C101.348 45.7324 98.3691 45.4785 95.5762 44.9707V5.77148C98.1543 5.45898 101.143 5.30273 104.541 5.30273C107.959 5.30273 111.045 5.77148 113.799 6.70898C116.572 7.62695 118.887 8.94531 120.742 10.6641C124.492 14.1016 126.367 18.916 126.367 25.1074C126.367 32.041 124.277 37.3047 120.098 40.8984C116.348 44.1211 111.152 45.7324 104.512 45.7324ZM103.193 38.584C104.463 38.8184 105.732 38.9355 107.002 38.9355C108.271 38.9355 109.639 38.6914 111.104 38.2031C112.568 37.6953 113.838 36.9141 114.912 35.8594C117.217 33.6328 118.369 30.3906 118.369 26.1328C118.369 19.1406 115.82 14.8438 110.723 13.2422C109.043 12.7148 107.1 12.4512 104.893 12.4512H104.102C103.809 12.4512 103.506 12.4609 103.193 12.4805V38.584ZM157.744 45.2344C156.064 45.0781 154.102 45 151.855 45H149.541L162.285 9.28711C162.852 7.68555 163.135 6.75781 163.135 6.50391C163.135 6.23047 163.125 6.06445 163.105 6.00586L163.135 5.94727C164.404 6.00586 165.752 6.03516 167.178 6.03516C168.35 6.03516 169.756 6.01562 171.396 5.97656L171.426 6.03516C171.387 6.11328 171.367 6.2207 171.367 6.35742C171.367 6.72852 171.66 7.71484 172.246 9.31641L185.254 45.0879C184.863 45.0684 184.404 45.0586 183.877 45.0586C183.877 45.0586 183.369 45.0391 182.354 45C181.865 45 181.426 45 181.035 45H176.494L173.74 36.5625H160.498L157.744 45.2344ZM171.455 29.5312L167.031 15.9082L162.725 29.5312H171.455ZM190.264 45C190.381 44.3359 190.439 43.6133 190.439 42.832V6.03516H196.299L211.826 30.4688V8.02734C211.826 6.95312 211.729 6.28906 211.533 6.03516H219.443C219.346 6.81641 219.297 7.67578 219.297 8.61328V45H213.203L197.91 21.5332V45H190.264ZM230.752 5.91797C232.705 5.99609 233.887 6.03516 234.297 6.03516H236.406C237.441 6.03516 238.271 5.95703 238.896 5.80078L238.867 45H230.752V5.91797ZM257.793 45.1758C256.855 45.0586 255.049 45 252.373 45H250.029V5.91797C251.279 5.99609 252.656 6.03516 254.16 6.03516C255.664 6.03516 256.729 5.95703 257.354 5.80078L267.197 22.5293L276.66 5.80078C277.285 5.95703 278.477 6.03516 280.234 6.03516C281.992 6.03516 283.496 5.99609 284.746 5.91797V45H282.402C279.727 45 277.92 45.0586 276.982 45.1758V18.9258L267.402 36.0645L257.793 20.3027V45.1758ZM297.842 45.2344C296.162 45.0781 294.199 45 291.953 45H289.639L302.383 9.28711C302.949 7.68555 303.232 6.75781 303.232 6.50391C303.232 6.23047 303.223 6.06445 303.203 6.00586L303.232 5.94727C304.502 6.00586 305.85 6.03516 307.275 6.03516C308.447 6.03516 309.854 6.01562 311.494 5.97656L311.523 6.03516C311.484 6.11328 311.465 6.2207 311.465 6.35742C311.465 6.72852 311.758 7.71484 312.344 9.31641L325.352 45.0879C324.961 45.0684 324.502 45.0586 323.975 45.0586C323.975 45.0586 323.467 45.0391 322.451 45C321.963 45 321.523 45 321.133 45H316.592L313.838 36.5625H300.596L297.842 45.2344ZM311.553 29.5312L307.129 15.9082L302.822 29.5312H311.553ZM344.16 45.1758C343.223 45.0586 340.811 45 336.924 45H335.986V12.5977H330.186C328.467 12.5977 327.451 12.6855 327.139 12.8613C326.826 13.0371 326.582 13.1934 326.406 13.3301L326.318 13.3008V5.80078L326.406 5.71289C327.051 5.92773 328.789 6.03516 331.621 6.03516H349.99C351.709 6.03516 352.725 5.94727 353.037 5.77148C353.35 5.5957 353.594 5.43945 353.77 5.30273L353.857 5.33203V12.832L353.77 12.9199C353.125 12.7051 351.387 12.5977 348.555 12.5977H344.16V45.1758ZM361.064 5.91797C363.018 5.99609 364.199 6.03516 364.609 6.03516H366.719C367.754 6.03516 368.584 5.95703 369.209 5.80078L369.18 45H361.064V5.91797ZM383.389 40.3711C381.611 38.6719 380.205 36.6309 379.17 34.248C378.154 31.8652 377.646 29.2578 377.646 26.4258C377.646 23.5742 378.125 20.8789 379.082 18.3398C380.039 15.8008 381.406 13.5645 383.184 11.6309C384.961 9.69727 387.109 8.16406 389.629 7.03125C392.148 5.87891 394.971 5.30273 398.096 5.30273C403.486 5.30273 408.027 7.00195 411.719 10.4004C415.664 14.0332 417.637 18.9355 417.637 25.1074C417.637 31.084 415.605 36.0547 411.543 40.0195C409.043 42.4609 406.064 44.1406 402.607 45.0586C400.908 45.5078 398.916 45.7324 396.631 45.7324C394.365 45.7324 392.031 45.2637 389.629 44.3262C387.246 43.3887 385.166 42.0703 383.389 40.3711ZM385.791 26.0156C385.791 27.832 386.094 29.502 386.699 31.0254C387.305 32.5488 388.145 33.8574 389.219 34.9512C391.504 37.2559 394.443 38.4082 398.037 38.4082C401.455 38.4082 404.199 37.3047 406.27 35.0977C408.379 32.8125 409.434 29.6973 409.434 25.752C409.434 22.041 408.428 18.9453 406.416 16.4648C404.248 13.8086 401.279 12.4805 397.51 12.4805C393.857 12.4805 390.957 13.8281 388.809 16.5234C386.797 19.043 385.791 22.207 385.791 26.0156ZM425.459 45C425.576 44.3359 425.635 43.6133 425.635 42.832V6.03516H431.494L447.021 30.4688V8.02734C447.021 6.95312 446.924 6.28906 446.729 6.03516H454.639C454.541 6.81641 454.492 7.67578 454.492 8.61328V45H448.398L433.105 21.5332V45H425.459Z" fill="black"/>
<circle cx="22" cy="25" r="22" fill="#D9FF47"/>
<path d="M15.8938 14.1754L25.3304 37.7189L28.3692 36.5009L18.9327 12.9574L15.8938 14.1754Z" fill="black"/>
<path d="M29.018 14.5638L12.7389 34.0157L15.2496 36.1169L31.5287 16.665L29.018 14.5638Z" fill="black"/>
<path d="M34.9202 25.2924L9.75171 22.1434L9.34526 25.392L34.5137 28.541L34.9202 25.2924Z" fill="black"/>
</svg>
