<svg width="379" height="104" viewBox="0 0 379 104" fill="none" xmlns="http://www.w3.org/2000/svg">
<path d="M363.041 19.8513C364.654 22.0553 365.217 25.0278 364.651 28.6944C364.083 32.3692 362.393 36.6268 359.657 41.2056C354.189 50.3577 344.698 60.5322 332.451 69.4926C320.205 78.453 307.635 84.4192 297.257 86.8614C292.065 88.0833 287.495 88.4056 283.821 87.8342C280.155 87.2641 277.493 85.8278 275.88 83.6238C274.267 81.4198 273.704 78.4473 274.27 74.7807C274.838 71.1059 276.528 66.8483 279.264 62.2695C284.733 53.1174 294.223 42.9429 306.47 33.9825C318.717 25.0221 331.286 19.0559 341.664 16.6137C346.856 15.3918 351.426 15.0695 355.1 15.6409C358.766 16.211 361.429 17.6474 363.041 19.8513Z" stroke="#D9FF47" stroke-width="3"/>
<path d="M94.9414 36.5039C94.5703 37.168 94.3848 38.7598 94.3848 41.2793V50.3613C94.3848 53.1152 92.959 55.5078 90.1074 57.5391C87.1582 59.668 83.5449 60.7324 79.2676 60.7324C73.3301 60.7324 68.5938 58.8672 65.0586 55.1367C61.6406 51.582 59.9316 47.0508 59.9316 41.543C59.9316 35.6836 61.6699 30.8008 65.1465 26.8945C69.0332 22.5 74.3848 20.3027 81.2012 20.3027C85.752 20.3027 89.3555 21.1816 92.0117 22.9395L91.543 31.582L91.3086 31.6406C90.625 30.4492 89.2773 29.4727 87.2656 28.7109C85.3516 27.9883 83.3398 27.627 81.2305 27.627C79.1406 27.627 77.3047 27.959 75.7227 28.623C74.1602 29.2871 72.832 30.2344 71.7383 31.4648C69.4336 33.9844 68.2812 37.3145 68.2812 41.4551C68.2812 45.0684 69.2969 47.9688 71.3281 50.1562C73.3594 52.3242 75.9766 53.4082 79.1797 53.4082C82.7148 53.4082 85.0977 52.4902 86.3281 50.6543C86.7188 50.0684 86.9141 49.4043 86.9141 48.6621V43.7988H83.1348C81.1035 43.7988 80 43.9746 79.8242 44.3262L79.7363 44.2969L79.4727 36.6504C80.0195 36.8066 82.2363 36.8848 86.123 36.8848H89.5801C91.7285 36.8848 93.4863 36.7383 94.8535 36.4453L94.9414 36.5039ZM115.391 44.8535C114.805 44.8926 114.18 44.9121 113.516 44.9121C112.852 44.9121 111.865 44.8633 110.557 44.7656V60H102.793V20.8301C105.527 20.4785 108.887 20.3027 112.871 20.3027C118.301 20.3027 122.344 21.3086 125 23.3203C127.676 25.3125 129.014 28.3984 129.014 32.5781C129.014 35.8203 127.793 38.5938 125.352 40.8984C124.551 41.6406 123.633 42.2852 122.598 42.832L128.574 55.4297C129.746 58.0273 130.645 59.5703 131.27 60.0586L131.123 60.2051C129.229 59.8926 126.25 59.9023 122.188 60.2344L115.391 44.8535ZM113.428 27.2168C112.432 27.2168 111.475 27.2656 110.557 27.3633V38.5547C111.514 38.6914 112.637 38.7598 113.926 38.7598C115.215 38.7598 116.299 38.6523 117.178 38.4375C118.057 38.2031 118.818 37.8516 119.463 37.3828C120.85 36.3477 121.543 34.7949 121.543 32.7246C121.543 30.6543 120.82 29.1992 119.375 28.3594C118.027 27.5977 116.045 27.2168 113.428 27.2168ZM140.615 60.2344C138.936 60.0781 136.973 60 134.727 60H132.412L145.156 24.2871C145.723 22.6855 146.006 21.7578 146.006 21.5039C146.006 21.2305 145.996 21.0645 145.977 21.0059L146.006 20.9473C147.275 21.0059 148.623 21.0352 150.049 21.0352C151.221 21.0352 152.627 21.0156 154.268 20.9766L154.297 21.0352C154.258 21.1133 154.238 21.2207 154.238 21.3574C154.238 21.7285 154.531 22.7148 155.117 24.3164L168.125 60.0879C167.734 60.0684 167.275 60.0586 166.748 60.0586C166.748 60.0586 166.24 60.0391 165.225 60C164.736 60 164.297 60 163.906 60H159.365L156.611 51.5625H143.369L140.615 60.2344ZM154.326 44.5312L149.902 30.9082L145.596 44.5312H154.326ZM172.314 20.8301C175.029 20.4785 177.812 20.3027 180.664 20.3027C185.977 20.3027 190.01 21.5527 192.764 24.0527C195.537 26.5332 196.924 30.2539 196.924 35.2148C196.924 39.6484 195.41 43.1543 192.383 45.7324C189.551 48.1543 185.908 49.3652 181.455 49.3652C180.947 49.3652 180.391 49.3359 179.785 49.2773V60H172.314V20.8301ZM181.543 27.3633C180.957 27.3633 180.371 27.3828 179.785 27.4219V42.832C180.41 42.9102 181.172 42.9492 182.07 42.9492C182.969 42.9492 183.906 42.7637 184.883 42.3926C185.859 42.002 186.68 41.4648 187.344 40.7812C188.73 39.3555 189.424 37.4805 189.424 35.1562C189.424 29.9609 186.797 27.3633 181.543 27.3633ZM210.84 60.1758C208.965 60.0586 206.738 60 204.16 60H203.223V20.8887C204.434 20.9863 205.293 21.0352 205.801 21.0352H207.002C208.545 21.0352 209.824 20.957 210.84 20.8008V36.416H224.609V20.8887C226.23 20.9863 227.803 21.0352 229.326 21.0352C230.869 21.0352 231.836 20.957 232.227 20.8008V60.1758C231.289 60.0586 229.434 60 226.66 60H224.609V43.4473H210.84V60.1758ZM243.799 20.918C245.752 20.9961 246.934 21.0352 247.344 21.0352H249.453C250.488 21.0352 251.318 20.957 251.943 20.8008L251.914 60H243.799V20.918ZM280.391 20.3027C284.043 20.3027 287.158 20.9375 289.736 22.207V31.1719L289.678 31.2305C288.584 29.5508 286.279 28.4375 282.764 27.8906C281.729 27.7148 280.42 27.627 278.838 27.627C277.256 27.627 275.703 27.9297 274.18 28.5352C272.656 29.1211 271.406 29.9609 270.43 31.0547C268.535 33.1836 267.588 36.2207 267.588 40.166C267.588 44.7559 268.789 48.1738 271.191 50.4199C273.184 52.2949 275.82 53.2324 279.102 53.2324C282.812 53.2324 285.82 52.4414 288.125 50.8594C288.965 50.293 289.678 49.5898 290.264 48.75L290.352 48.8086V57.0117C287.363 59.4922 283.34 60.7324 278.281 60.7324C272.324 60.7324 267.656 58.8379 264.277 55.0488C261.035 51.4355 259.414 46.6504 259.414 40.6934C259.414 34.3848 261.191 29.4141 264.746 25.7812C268.34 22.1289 273.555 20.3027 280.391 20.3027ZM321.26 23.2031L320.703 31.8164L320.498 31.875C319.053 29.707 316.592 28.3008 313.115 27.6562C312.021 27.4414 310.967 27.334 309.951 27.334C308.955 27.334 308.096 27.4219 307.373 27.5977C306.67 27.7734 306.064 28.0273 305.557 28.3594C304.482 29.0625 303.945 29.9805 303.945 31.1133C303.945 32.5977 304.414 33.7109 305.352 34.4531C306.523 35.3516 308.467 35.9863 311.182 36.3574C313.896 36.709 316.074 37.1973 317.715 37.8223C319.355 38.4473 320.703 39.2383 321.758 40.1953C323.75 41.9922 324.746 44.5312 324.746 47.8125C324.746 52.1094 323.125 55.4199 319.883 57.7441C317.109 59.7363 313.613 60.7324 309.395 60.7324C305.996 60.7324 302.637 60.0879 299.316 58.7988C298.223 58.3691 297.266 57.8711 296.445 57.3047L296.768 47.5195L296.885 47.4316C299.307 51.6113 303.281 53.7012 308.809 53.7012C312.734 53.7012 315.332 52.7539 316.602 50.8594C317.031 50.2148 317.246 49.502 317.246 48.7207C317.246 47.9199 317.119 47.2656 316.865 46.7578C316.611 46.2305 316.191 45.7812 315.605 45.4102C314.473 44.668 312.568 44.1699 309.893 43.916C307.217 43.6621 305.029 43.1836 303.33 42.4805C301.631 41.7773 300.273 40.9082 299.258 39.873C297.422 37.998 296.504 35.3809 296.504 32.0215C296.504 28.5449 297.725 25.7324 300.166 23.584C302.646 21.3965 305.986 20.3027 310.186 20.3027C314.404 20.3027 318.096 21.2695 321.26 23.2031Z" fill="black"/>
<circle cx="22.793" cy="39" r="22" fill="#D9FF47"/>
<path d="M16.6868 28.1755L26.1233 51.7189L29.1621 50.501L19.7256 26.9575L16.6868 28.1755Z" fill="black"/>
<path d="M29.811 28.5638L13.5319 48.0157L16.0426 50.1169L32.3217 30.665L29.811 28.5638Z" fill="black"/>
<path d="M35.7132 39.2924L10.5447 36.1434L10.1382 39.392L35.3067 42.541L35.7132 39.2924Z" fill="black"/>
</svg>
