<svg width="585" height="104" viewBox="0 0 585 104" fill="none" xmlns="http://www.w3.org/2000/svg">
<path d="M569.248 19.8513C570.861 22.0553 571.424 25.0278 570.858 28.6944C570.29 32.3692 568.6 36.6268 565.864 41.2056C560.396 50.3577 550.905 60.5322 538.658 69.4926C526.412 78.453 513.842 84.4192 503.464 86.8614C498.272 88.0833 493.702 88.4056 490.028 87.8342C486.362 87.2641 483.7 85.8278 482.087 83.6238C480.474 81.4198 479.911 78.4473 480.477 74.7807C481.045 71.1059 482.735 66.8483 485.471 62.2695C490.94 53.1174 500.43 42.9429 512.677 33.9825C524.924 25.0221 537.493 19.0559 547.871 16.6137C553.063 15.3918 557.633 15.0695 561.307 15.6409C564.973 16.211 567.636 17.6474 569.248 19.8513Z" stroke="#D9FF47" stroke-width="3"/>
<path d="M69.9492 60.1758C69.0117 60.0586 67.2051 60 64.5293 60H62.1855V20.918C63.4355 20.9961 64.8125 21.0352 66.3164 21.0352C67.8203 21.0352 68.8848 20.957 69.5098 20.8008L79.3535 37.5293L88.8164 20.8008C89.4414 20.957 90.6328 21.0352 92.3906 21.0352C94.1484 21.0352 95.6523 20.9961 96.9023 20.918V60H94.5586C91.8828 60 90.0762 60.0586 89.1387 60.1758V33.9258L79.5586 51.0645L69.9492 35.3027V60.1758ZM110.35 55.3711C108.572 53.6719 107.166 51.6309 106.131 49.248C105.115 46.8652 104.607 44.2578 104.607 41.4258C104.607 38.5742 105.086 35.8789 106.043 33.3398C107 30.8008 108.367 28.5645 110.145 26.6309C111.922 24.6973 114.07 23.1641 116.59 22.0312C119.109 20.8789 121.932 20.3027 125.057 20.3027C130.447 20.3027 134.988 22.002 138.68 25.4004C142.625 29.0332 144.598 33.9355 144.598 40.1074C144.598 46.084 142.566 51.0547 138.504 55.0195C136.004 57.4609 133.025 59.1406 129.568 60.0586C127.869 60.5078 125.877 60.7324 123.592 60.7324C121.326 60.7324 118.992 60.2637 116.59 59.3262C114.207 58.3887 112.127 57.0703 110.35 55.3711ZM112.752 41.0156C112.752 42.832 113.055 44.502 113.66 46.0254C114.266 47.5488 115.105 48.8574 116.18 49.9512C118.465 52.2559 121.404 53.4082 124.998 53.4082C128.416 53.4082 131.16 52.3047 133.23 50.0977C135.34 47.8125 136.395 44.6973 136.395 40.752C136.395 37.041 135.389 33.9453 133.377 31.4648C131.209 28.8086 128.24 27.4805 124.471 27.4805C120.818 27.4805 117.918 28.8281 115.77 31.5234C113.758 34.043 112.752 37.207 112.752 41.0156ZM166.219 60.1758C165.281 60.0586 162.869 60 158.982 60H158.045V27.5977H152.244C150.525 27.5977 149.51 27.6855 149.197 27.8613C148.885 28.0371 148.641 28.1934 148.465 28.3301L148.377 28.3008V20.8008L148.465 20.7129C149.109 20.9277 150.848 21.0352 153.68 21.0352H172.049C173.768 21.0352 174.783 20.9473 175.096 20.7715C175.408 20.5957 175.652 20.4395 175.828 20.3027L175.916 20.332V27.832L175.828 27.9199C175.184 27.7051 173.445 27.5977 170.613 27.5977H166.219V60.1758ZM183.123 20.918C185.076 20.9961 186.258 21.0352 186.668 21.0352H188.777C189.812 21.0352 190.643 20.957 191.268 20.8008L191.238 60H183.123V20.918ZM205.447 55.3711C203.67 53.6719 202.264 51.6309 201.229 49.248C200.213 46.8652 199.705 44.2578 199.705 41.4258C199.705 38.5742 200.184 35.8789 201.141 33.3398C202.098 30.8008 203.465 28.5645 205.242 26.6309C207.02 24.6973 209.168 23.1641 211.688 22.0312C214.207 20.8789 217.029 20.3027 220.154 20.3027C225.545 20.3027 230.086 22.002 233.777 25.4004C237.723 29.0332 239.695 33.9355 239.695 40.1074C239.695 46.084 237.664 51.0547 233.602 55.0195C231.102 57.4609 228.123 59.1406 224.666 60.0586C222.967 60.5078 220.975 60.7324 218.689 60.7324C216.424 60.7324 214.09 60.2637 211.688 59.3262C209.305 58.3887 207.225 57.0703 205.447 55.3711ZM207.85 41.0156C207.85 42.832 208.152 44.502 208.758 46.0254C209.363 47.5488 210.203 48.8574 211.277 49.9512C213.562 52.2559 216.502 53.4082 220.096 53.4082C223.514 53.4082 226.258 52.3047 228.328 50.0977C230.438 47.8125 231.492 44.6973 231.492 40.752C231.492 37.041 230.486 33.9453 228.475 31.4648C226.307 28.8086 223.338 27.4805 219.568 27.4805C215.916 27.4805 213.016 28.8281 210.867 31.5234C208.855 34.043 207.85 37.207 207.85 41.0156ZM247.518 60C247.635 59.3359 247.693 58.6133 247.693 57.832V21.0352H253.553L269.08 45.4688V23.0273C269.08 21.9531 268.982 21.2891 268.787 21.0352H276.697C276.6 21.8164 276.551 22.6758 276.551 23.6133V60H270.457L255.164 36.5332V60H247.518ZM339.129 36.5039C338.758 37.168 338.572 38.7598 338.572 41.2793V50.3613C338.572 53.1152 337.146 55.5078 334.295 57.5391C331.346 59.668 327.732 60.7324 323.455 60.7324C317.518 60.7324 312.781 58.8672 309.246 55.1367C305.828 51.582 304.119 47.0508 304.119 41.543C304.119 35.6836 305.857 30.8008 309.334 26.8945C313.221 22.5 318.572 20.3027 325.389 20.3027C329.939 20.3027 333.543 21.1816 336.199 22.9395L335.73 31.582L335.496 31.6406C334.812 30.4492 333.465 29.4727 331.453 28.7109C329.539 27.9883 327.527 27.627 325.418 27.627C323.328 27.627 321.492 27.959 319.91 28.623C318.348 29.2871 317.02 30.2344 315.926 31.4648C313.621 33.9844 312.469 37.3145 312.469 41.4551C312.469 45.0684 313.484 47.9688 315.516 50.1562C317.547 52.3242 320.164 53.4082 323.367 53.4082C326.902 53.4082 329.285 52.4902 330.516 50.6543C330.906 50.0684 331.102 49.4043 331.102 48.6621V43.7988H327.322C325.291 43.7988 324.188 43.9746 324.012 44.3262L323.924 44.2969L323.66 36.6504C324.207 36.8066 326.424 36.8848 330.311 36.8848H333.768C335.916 36.8848 337.674 36.7383 339.041 36.4453L339.129 36.5039ZM359.578 44.8535C358.992 44.8926 358.367 44.9121 357.703 44.9121C357.039 44.9121 356.053 44.8633 354.744 44.7656V60H346.98V20.8301C349.715 20.4785 353.074 20.3027 357.059 20.3027C362.488 20.3027 366.531 21.3086 369.188 23.3203C371.863 25.3125 373.201 28.3984 373.201 32.5781C373.201 35.8203 371.98 38.5938 369.539 40.8984C368.738 41.6406 367.82 42.2852 366.785 42.832L372.762 55.4297C373.934 58.0273 374.832 59.5703 375.457 60.0586L375.311 60.2051C373.416 59.8926 370.438 59.9023 366.375 60.2344L359.578 44.8535ZM357.615 27.2168C356.619 27.2168 355.662 27.2656 354.744 27.3633V38.5547C355.701 38.6914 356.824 38.7598 358.113 38.7598C359.402 38.7598 360.486 38.6523 361.365 38.4375C362.244 38.2031 363.006 37.8516 363.65 37.3828C365.037 36.3477 365.73 34.7949 365.73 32.7246C365.73 30.6543 365.008 29.1992 363.562 28.3594C362.215 27.5977 360.232 27.2168 357.615 27.2168ZM384.803 60.2344C383.123 60.0781 381.16 60 378.914 60H376.6L389.344 24.2871C389.91 22.6855 390.193 21.7578 390.193 21.5039C390.193 21.2305 390.184 21.0645 390.164 21.0059L390.193 20.9473C391.463 21.0059 392.811 21.0352 394.236 21.0352C395.408 21.0352 396.814 21.0156 398.455 20.9766L398.484 21.0352C398.445 21.1133 398.426 21.2207 398.426 21.3574C398.426 21.7285 398.719 22.7148 399.305 24.3164L412.312 60.0879C411.922 60.0684 411.463 60.0586 410.936 60.0586C410.936 60.0586 410.428 60.0391 409.412 60C408.924 60 408.484 60 408.094 60H403.553L400.799 51.5625H387.557L384.803 60.2344ZM398.514 44.5312L394.09 30.9082L389.783 44.5312H398.514ZM416.502 20.8301C419.217 20.4785 422 20.3027 424.852 20.3027C430.164 20.3027 434.197 21.5527 436.951 24.0527C439.725 26.5332 441.111 30.2539 441.111 35.2148C441.111 39.6484 439.598 43.1543 436.57 45.7324C433.738 48.1543 430.096 49.3652 425.643 49.3652C425.135 49.3652 424.578 49.3359 423.973 49.2773V60H416.502V20.8301ZM425.73 27.3633C425.145 27.3633 424.559 27.3828 423.973 27.4219V42.832C424.598 42.9102 425.359 42.9492 426.258 42.9492C427.156 42.9492 428.094 42.7637 429.07 42.3926C430.047 42.002 430.867 41.4648 431.531 40.7812C432.918 39.3555 433.611 37.4805 433.611 35.1562C433.611 29.9609 430.984 27.3633 425.73 27.3633ZM455.027 60.1758C453.152 60.0586 450.926 60 448.348 60H447.41V20.8887C448.621 20.9863 449.48 21.0352 449.988 21.0352H451.189C452.732 21.0352 454.012 20.957 455.027 20.8008V36.416H468.797V20.8887C470.418 20.9863 471.99 21.0352 473.514 21.0352C475.057 21.0352 476.023 20.957 476.414 20.8008V60.1758C475.477 60.0586 473.621 60 470.848 60H468.797V43.4473H455.027V60.1758ZM487.986 20.918C489.939 20.9961 491.121 21.0352 491.531 21.0352H493.641C494.676 21.0352 495.506 20.957 496.131 20.8008L496.102 60H487.986V20.918ZM524.578 20.3027C528.23 20.3027 531.346 20.9375 533.924 22.207V31.1719L533.865 31.2305C532.771 29.5508 530.467 28.4375 526.951 27.8906C525.916 27.7148 524.607 27.627 523.025 27.627C521.443 27.627 519.891 27.9297 518.367 28.5352C516.844 29.1211 515.594 29.9609 514.617 31.0547C512.723 33.1836 511.775 36.2207 511.775 40.166C511.775 44.7559 512.977 48.1738 515.379 50.4199C517.371 52.2949 520.008 53.2324 523.289 53.2324C527 53.2324 530.008 52.4414 532.312 50.8594C533.152 50.293 533.865 49.5898 534.451 48.75L534.539 48.8086V57.0117C531.551 59.4922 527.527 60.7324 522.469 60.7324C516.512 60.7324 511.844 58.8379 508.465 55.0488C505.223 51.4355 503.602 46.6504 503.602 40.6934C503.602 34.3848 505.379 29.4141 508.934 25.7812C512.527 22.1289 517.742 20.3027 524.578 20.3027Z" fill="black"/>
<circle cx="22" cy="39" r="22" fill="#D9FF47"/>
<path d="M15.8938 28.1755L25.3304 51.7189L28.3692 50.5009L18.9327 26.9575L15.8938 28.1755Z" fill="black"/>
<path d="M29.018 28.5637L12.7389 48.0157L15.2496 50.1169L31.5287 30.6649L29.018 28.5637Z" fill="black"/>
<path d="M34.9202 39.2924L9.75171 36.1434L9.34526 39.392L34.5137 42.541L34.9202 39.2924Z" fill="black"/>
</svg>
