<svg width="775" height="104" viewBox="0 0 775 104" fill="none" xmlns="http://www.w3.org/2000/svg">
<path d="M759.248 19.8514C760.861 22.0554 761.424 25.0279 760.858 28.6944C760.29 32.3693 758.6 36.6269 755.864 41.2057C750.396 50.3578 740.905 60.5323 728.658 69.4927C716.412 78.4531 703.842 84.4192 693.464 86.8615C688.272 88.0834 683.702 88.4057 680.028 87.8343C676.362 87.2642 673.7 85.8278 672.087 83.6238C670.474 81.4199 669.911 78.4474 670.477 74.7808C671.045 71.1059 672.735 66.8483 675.471 62.2696C680.94 53.1175 690.43 42.943 702.677 33.9826C714.924 25.0221 727.493 19.056 737.871 16.6137C743.063 15.3919 747.633 15.0696 751.307 15.641C754.973 16.2111 757.636 17.6474 759.248 19.8514Z" stroke="#D9FF47" stroke-width="3"/>
<path d="M59.4824 20.8301C62.1973 20.4785 64.9805 20.3027 67.832 20.3027C73.1445 20.3027 77.1777 21.5527 79.9316 24.0527C82.7051 26.5332 84.0918 30.2539 84.0918 35.2148C84.0918 39.6484 82.5781 43.1543 79.5508 45.7324C76.7188 48.1543 73.0762 49.3652 68.623 49.3652C68.1152 49.3652 67.5586 49.3359 66.9531 49.2773V60H59.4824V20.8301ZM68.7109 27.3633C68.125 27.3633 67.5391 27.3828 66.9531 27.4219V42.832C67.5781 42.9102 68.3398 42.9492 69.2383 42.9492C70.1367 42.9492 71.0742 42.7637 72.0508 42.3926C73.0273 42.002 73.8477 41.4648 74.5117 40.7812C75.8984 39.3555 76.5918 37.4805 76.5918 35.1562C76.5918 29.9609 73.9648 27.3633 68.7109 27.3633ZM102.695 44.8535C102.109 44.8926 101.484 44.9121 100.82 44.9121C100.156 44.9121 99.1699 44.8633 97.8613 44.7656V60H90.0977V20.8301C92.832 20.4785 96.1914 20.3027 100.176 20.3027C105.605 20.3027 109.648 21.3086 112.305 23.3203C114.98 25.3125 116.318 28.3984 116.318 32.5781C116.318 35.8203 115.098 38.5938 112.656 40.8984C111.855 41.6406 110.938 42.2852 109.902 42.832L115.879 55.4297C117.051 58.0273 117.949 59.5703 118.574 60.0586L118.428 60.2051C116.533 59.8926 113.555 59.9023 109.492 60.2344L102.695 44.8535ZM100.732 27.2168C99.7363 27.2168 98.7793 27.2656 97.8613 27.3633V38.5547C98.8184 38.6914 99.9414 38.7598 101.23 38.7598C102.52 38.7598 103.604 38.6523 104.482 38.4375C105.361 38.2031 106.123 37.8516 106.768 37.3828C108.154 36.3477 108.848 34.7949 108.848 32.7246C108.848 30.6543 108.125 29.1992 106.68 28.3594C105.332 27.5977 103.35 27.2168 100.732 27.2168ZM128.271 55.3711C126.494 53.6719 125.088 51.6309 124.053 49.248C123.037 46.8652 122.529 44.2578 122.529 41.4258C122.529 38.5742 123.008 35.8789 123.965 33.3398C124.922 30.8008 126.289 28.5645 128.066 26.6309C129.844 24.6973 131.992 23.1641 134.512 22.0312C137.031 20.8789 139.854 20.3027 142.979 20.3027C148.369 20.3027 152.91 22.002 156.602 25.4004C160.547 29.0332 162.52 33.9355 162.52 40.1074C162.52 46.084 160.488 51.0547 156.426 55.0195C153.926 57.4609 150.947 59.1406 147.49 60.0586C145.791 60.5078 143.799 60.7324 141.514 60.7324C139.248 60.7324 136.914 60.2637 134.512 59.3262C132.129 58.3887 130.049 57.0703 128.271 55.3711ZM130.674 41.0156C130.674 42.832 130.977 44.502 131.582 46.0254C132.188 47.5488 133.027 48.8574 134.102 49.9512C136.387 52.2559 139.326 53.4082 142.92 53.4082C146.338 53.4082 149.082 52.3047 151.152 50.0977C153.262 47.8125 154.316 44.6973 154.316 40.752C154.316 37.041 153.311 33.9453 151.299 31.4648C149.131 28.8086 146.162 27.4805 142.393 27.4805C138.74 27.4805 135.84 28.8281 133.691 31.5234C131.68 34.043 130.674 37.207 130.674 41.0156ZM179.57 60.7324C176.406 60.7324 173.428 60.4785 170.635 59.9707V20.7715C173.213 20.459 176.201 20.3027 179.6 20.3027C183.018 20.3027 186.104 20.7715 188.857 21.709C191.631 22.627 193.945 23.9453 195.801 25.6641C199.551 29.1016 201.426 33.916 201.426 40.1074C201.426 47.041 199.336 52.3047 195.156 55.8984C191.406 59.1211 186.211 60.7324 179.57 60.7324ZM178.252 53.584C179.521 53.8184 180.791 53.9355 182.061 53.9355C183.33 53.9355 184.697 53.6914 186.162 53.2031C187.627 52.6953 188.896 51.9141 189.971 50.8594C192.275 48.6328 193.428 45.3906 193.428 41.1328C193.428 34.1406 190.879 29.8438 185.781 28.2422C184.102 27.7148 182.158 27.4512 179.951 27.4512H179.16C178.867 27.4512 178.564 27.4609 178.252 27.4805V53.584ZM232.246 20.8887C233.457 20.9863 234.463 21.0352 235.264 21.0352H237.695C238.516 21.0352 239.375 20.957 240.273 20.8008V45.0293C240.273 49.834 238.818 53.6914 235.908 56.6016C233.154 59.3555 229.697 60.7324 225.537 60.7324C220.986 60.7324 217.305 59.5508 214.492 57.1875C211.348 54.5312 209.775 50.7031 209.775 45.7031V20.8887C211.396 20.9863 212.92 21.0352 214.346 21.0352C215.791 21.0352 216.982 20.957 217.92 20.8008V46.084C217.92 48.5449 218.672 50.459 220.176 51.8262C221.582 53.0762 223.34 53.7012 225.449 53.7012C228.574 53.7012 230.654 52.0996 231.689 48.8965C232.061 47.7441 232.246 46.3184 232.246 44.6191V20.8887ZM267.578 20.3027C271.23 20.3027 274.346 20.9375 276.924 22.207V31.1719L276.865 31.2305C275.771 29.5508 273.467 28.4375 269.951 27.8906C268.916 27.7148 267.607 27.627 266.025 27.627C264.443 27.627 262.891 27.9297 261.367 28.5352C259.844 29.1211 258.594 29.9609 257.617 31.0547C255.723 33.1836 254.775 36.2207 254.775 40.166C254.775 44.7559 255.977 48.1738 258.379 50.4199C260.371 52.2949 263.008 53.2324 266.289 53.2324C270 53.2324 273.008 52.4414 275.312 50.8594C276.152 50.293 276.865 49.5898 277.451 48.75L277.539 48.8086V57.0117C274.551 59.4922 270.527 60.7324 265.469 60.7324C259.512 60.7324 254.844 58.8379 251.465 55.0488C248.223 51.4355 246.602 46.6504 246.602 40.6934C246.602 34.3848 248.379 29.4141 251.934 25.7812C255.527 22.1289 260.742 20.3027 267.578 20.3027ZM298.984 60.1758C298.047 60.0586 295.635 60 291.748 60H290.811V27.5977H285.01C283.291 27.5977 282.275 27.6855 281.963 27.8613C281.65 28.0371 281.406 28.1934 281.23 28.3301L281.143 28.3008V20.8008L281.23 20.7129C281.875 20.9277 283.613 21.0352 286.445 21.0352H304.814C306.533 21.0352 307.549 20.9473 307.861 20.7715C308.174 20.5957 308.418 20.4395 308.594 20.3027L308.682 20.332V27.832L308.594 27.9199C307.949 27.7051 306.211 27.5977 303.379 27.5977H298.984V60.1758ZM334.346 20.8301C337.061 20.4785 339.844 20.3027 342.695 20.3027C348.008 20.3027 352.041 21.5527 354.795 24.0527C357.568 26.5332 358.955 30.2539 358.955 35.2148C358.955 39.6484 357.441 43.1543 354.414 45.7324C351.582 48.1543 347.939 49.3652 343.486 49.3652C342.979 49.3652 342.422 49.3359 341.816 49.2773V60H334.346V20.8301ZM343.574 27.3633C342.988 27.3633 342.402 27.3828 341.816 27.4219V42.832C342.441 42.9102 343.203 42.9492 344.102 42.9492C345 42.9492 345.938 42.7637 346.914 42.3926C347.891 42.002 348.711 41.4648 349.375 40.7812C350.762 39.3555 351.455 37.4805 351.455 35.1562C351.455 29.9609 348.828 27.3633 343.574 27.3633ZM377.559 44.8535C376.973 44.8926 376.348 44.9121 375.684 44.9121C375.02 44.9121 374.033 44.8633 372.725 44.7656V60H364.961V20.8301C367.695 20.4785 371.055 20.3027 375.039 20.3027C380.469 20.3027 384.512 21.3086 387.168 23.3203C389.844 25.3125 391.182 28.3984 391.182 32.5781C391.182 35.8203 389.961 38.5938 387.52 40.8984C386.719 41.6406 385.801 42.2852 384.766 42.832L390.742 55.4297C391.914 58.0273 392.812 59.5703 393.438 60.0586L393.291 60.2051C391.396 59.8926 388.418 59.9023 384.355 60.2344L377.559 44.8535ZM375.596 27.2168C374.6 27.2168 373.643 27.2656 372.725 27.3633V38.5547C373.682 38.6914 374.805 38.7598 376.094 38.7598C377.383 38.7598 378.467 38.6523 379.346 38.4375C380.225 38.2031 380.986 37.8516 381.631 37.3828C383.018 36.3477 383.711 34.7949 383.711 32.7246C383.711 30.6543 382.988 29.1992 381.543 28.3594C380.195 27.5977 378.213 27.2168 375.596 27.2168ZM403.135 55.3711C401.357 53.6719 399.951 51.6309 398.916 49.248C397.9 46.8652 397.393 44.2578 397.393 41.4258C397.393 38.5742 397.871 35.8789 398.828 33.3398C399.785 30.8008 401.152 28.5645 402.93 26.6309C404.707 24.6973 406.855 23.1641 409.375 22.0312C411.895 20.8789 414.717 20.3027 417.842 20.3027C423.232 20.3027 427.773 22.002 431.465 25.4004C435.41 29.0332 437.383 33.9355 437.383 40.1074C437.383 46.084 435.352 51.0547 431.289 55.0195C428.789 57.4609 425.811 59.1406 422.354 60.0586C420.654 60.5078 418.662 60.7324 416.377 60.7324C414.111 60.7324 411.777 60.2637 409.375 59.3262C406.992 58.3887 404.912 57.0703 403.135 55.3711ZM405.537 41.0156C405.537 42.832 405.84 44.502 406.445 46.0254C407.051 47.5488 407.891 48.8574 408.965 49.9512C411.25 52.2559 414.189 53.4082 417.783 53.4082C421.201 53.4082 423.945 52.3047 426.016 50.0977C428.125 47.8125 429.18 44.6973 429.18 40.752C429.18 37.041 428.174 33.9453 426.162 31.4648C423.994 28.8086 421.025 27.4805 417.256 27.4805C413.604 27.4805 410.703 28.8281 408.555 31.5234C406.543 34.043 405.537 37.207 405.537 41.0156ZM452.852 60.1758C451.914 60.0586 450.107 60 447.432 60H445.088V20.918C446.338 20.9961 447.715 21.0352 449.219 21.0352C450.723 21.0352 451.787 20.957 452.412 20.8008L462.256 37.5293L471.719 20.8008C472.344 20.957 473.535 21.0352 475.293 21.0352C477.051 21.0352 478.555 20.9961 479.805 20.918V60H477.461C474.785 60 472.979 60.0586 472.041 60.1758V33.9258L462.461 51.0645L452.852 35.3027V60.1758ZM493.252 55.3711C491.475 53.6719 490.068 51.6309 489.033 49.248C488.018 46.8652 487.51 44.2578 487.51 41.4258C487.51 38.5742 487.988 35.8789 488.945 33.3398C489.902 30.8008 491.27 28.5645 493.047 26.6309C494.824 24.6973 496.973 23.1641 499.492 22.0312C502.012 20.8789 504.834 20.3027 507.959 20.3027C513.35 20.3027 517.891 22.002 521.582 25.4004C525.527 29.0332 527.5 33.9355 527.5 40.1074C527.5 46.084 525.469 51.0547 521.406 55.0195C518.906 57.4609 515.928 59.1406 512.471 60.0586C510.771 60.5078 508.779 60.7324 506.494 60.7324C504.229 60.7324 501.895 60.2637 499.492 59.3262C497.109 58.3887 495.029 57.0703 493.252 55.3711ZM495.654 41.0156C495.654 42.832 495.957 44.502 496.562 46.0254C497.168 47.5488 498.008 48.8574 499.082 49.9512C501.367 52.2559 504.307 53.4082 507.9 53.4082C511.318 53.4082 514.062 52.3047 516.133 50.0977C518.242 47.8125 519.297 44.6973 519.297 40.752C519.297 37.041 518.291 33.9453 516.279 31.4648C514.111 28.8086 511.143 27.4805 507.373 27.4805C503.721 27.4805 500.82 28.8281 498.672 31.5234C496.66 34.043 495.654 37.207 495.654 41.0156ZM571.65 60.1172C571.025 60.0391 570 60 568.574 60H565.352C564.824 60 564.346 60.0195 563.916 60.0586L563.887 60C563.965 59.8633 564.004 59.707 564.004 59.5312C564.004 59.3555 563.984 59.1699 563.945 58.9746C563.926 58.7793 563.848 58.4277 563.711 57.9199C563.574 57.4121 563.359 56.6797 563.066 55.7227L561.836 51.7969L550.938 20.918C552.148 20.9961 553.691 21.0352 555.566 21.0352C557.441 21.0352 558.643 20.957 559.17 20.8008L567.988 47.4316L575.723 20.918C576.895 20.9961 578.34 21.0352 580.059 21.0352C582.402 21.0352 583.77 20.957 584.16 20.8008L573.467 51.709C573.467 51.709 573.125 52.8516 572.441 55.1367C571.875 57.0898 571.592 58.3594 571.592 58.9453C571.592 59.5117 571.631 59.873 571.709 60.0293L571.65 60.1172ZM590.869 20.918C592.822 20.9961 594.004 21.0352 594.414 21.0352H596.523C597.559 21.0352 598.389 20.957 599.014 20.8008L598.984 60H590.869V20.918ZM619.492 60.7324C616.328 60.7324 613.35 60.4785 610.557 59.9707V20.7715C613.135 20.459 616.123 20.3027 619.521 20.3027C622.939 20.3027 626.025 20.7715 628.779 21.709C631.553 22.627 633.867 23.9453 635.723 25.6641C639.473 29.1016 641.348 33.916 641.348 40.1074C641.348 47.041 639.258 52.3047 635.078 55.8984C631.328 59.1211 626.133 60.7324 619.492 60.7324ZM618.174 53.584C619.443 53.8184 620.713 53.9355 621.982 53.9355C623.252 53.9355 624.619 53.6914 626.084 53.2031C627.549 52.6953 628.818 51.9141 629.893 50.8594C632.197 48.6328 633.35 45.3906 633.35 41.1328C633.35 34.1406 630.801 29.8438 625.703 28.2422C624.023 27.7148 622.08 27.4512 619.873 27.4512H619.082C618.789 27.4512 618.486 27.4609 618.174 27.4805V53.584ZM669.561 52.9688C670.771 52.9688 671.611 52.8516 672.08 52.6172L672.197 52.6465L671.904 60H649.961V20.8301C650.488 20.8691 651.074 20.8984 651.719 20.918L653.77 20.9766C655.137 21.0156 656.621 21.0352 658.223 21.0352C662.695 21.0352 667.119 20.957 671.494 20.8008C671.279 22.5195 671.172 24.8145 671.172 27.6855C671.172 27.998 671.191 28.2324 671.23 28.3887L671.172 28.4766C670.156 28.1836 668.711 28.0371 666.836 28.0371H657.607V35.5078H664.551C666.699 35.5078 667.988 35.4492 668.418 35.332L668.506 42.5684C667.568 42.4707 666.357 42.4219 664.873 42.4219H657.607V52.9688H669.561ZM683.213 55.3711C681.436 53.6719 680.029 51.6309 678.994 49.248C677.979 46.8652 677.471 44.2578 677.471 41.4258C677.471 38.5742 677.949 35.8789 678.906 33.3398C679.863 30.8008 681.23 28.5645 683.008 26.6309C684.785 24.6973 686.934 23.1641 689.453 22.0312C691.973 20.8789 694.795 20.3027 697.92 20.3027C703.311 20.3027 707.852 22.002 711.543 25.4004C715.488 29.0332 717.461 33.9355 717.461 40.1074C717.461 46.084 715.43 51.0547 711.367 55.0195C708.867 57.4609 705.889 59.1406 702.432 60.0586C700.732 60.5078 698.74 60.7324 696.455 60.7324C694.189 60.7324 691.855 60.2637 689.453 59.3262C687.07 58.3887 684.99 57.0703 683.213 55.3711ZM685.615 41.0156C685.615 42.832 685.918 44.502 686.523 46.0254C687.129 47.5488 687.969 48.8574 689.043 49.9512C691.328 52.2559 694.268 53.4082 697.861 53.4082C701.279 53.4082 704.023 52.3047 706.094 50.0977C708.203 47.8125 709.258 44.6973 709.258 40.752C709.258 37.041 708.252 33.9453 706.24 31.4648C704.072 28.8086 701.104 27.4805 697.334 27.4805C693.682 27.4805 690.781 28.8281 688.633 31.5234C686.621 34.043 685.615 37.207 685.615 41.0156Z" fill="black"/>
<circle cx="22" cy="40" r="22" fill="#D9FF47"/>
<path d="M15.8938 29.1754L25.3304 52.7189L28.3692 51.5009L18.9327 27.9574L15.8938 29.1754Z" fill="black"/>
<path d="M29.018 29.5638L12.7389 49.0157L15.2496 51.1169L31.5287 31.665L29.018 29.5638Z" fill="black"/>
<path d="M34.9202 40.2924L9.75171 37.1434L9.34526 40.392L34.5137 43.541L34.9202 40.2924Z" fill="black"/>
</svg>
