<svg width="1874" height="223" viewBox="0 0 1874 223" fill="none" xmlns="http://www.w3.org/2000/svg">
<rect x="6.56934" width="1872" height="89" transform="rotate(4.09603 6.56934 0)" fill="#D9FF47"/>
<path d="M36.27 36.6299C37.6365 36.5515 39.0308 36.5633 40.453 36.6651C43.1024 36.8548 45.0692 37.6223 46.3534 38.9675C47.648 40.3036 48.2067 42.2087 48.0295 44.6828C47.8712 46.894 46.9911 48.5884 45.3892 49.766C43.8903 50.8727 42.0304 51.3465 39.8095 51.1875C39.5563 51.1694 39.2797 51.1349 38.9798 51.084L38.5969 56.4317L34.8711 56.1649L36.27 36.6299ZM40.6391 40.2178C40.3469 40.1968 40.054 40.1856 39.7604 40.1842L39.21 47.8696C39.5189 47.9309 39.8974 47.9776 40.3455 48.0097C40.7936 48.0417 41.2677 47.9827 41.768 47.8325C42.269 47.6726 42.6973 47.434 43.0529 47.1168C43.7954 46.4552 44.2082 45.5449 44.2912 44.3858C44.4767 41.7947 43.2594 40.4054 40.6391 40.2178ZM56.9633 50.1543C56.6697 50.1528 56.3573 50.1402 56.0261 50.1165C55.6949 50.0928 55.2047 50.0332 54.5556 49.9378L54.0115 57.5355L50.1396 57.2582L51.5385 37.7233C52.9148 37.6456 54.5964 37.6779 56.5835 37.8202C59.2914 38.0142 61.2718 38.6602 62.5247 39.7584C63.7881 40.8475 64.3451 42.4343 64.1958 44.5188C64.08 46.1357 63.3722 47.4753 62.0723 48.5375C61.6464 48.8791 61.1656 49.1677 60.6298 49.4035L63.1605 55.8997C63.6522 57.237 64.0451 58.0386 64.3394 58.3045L64.2611 58.3723C63.3274 58.1488 61.8416 58.0473 59.8037 58.0678L56.9633 50.1543ZM56.6142 41.2883C56.1174 41.2528 55.6384 41.2429 55.1771 41.2588L54.7774 46.8403C55.2498 46.9426 55.8075 47.0168 56.4504 47.0629C57.0932 47.1089 57.6377 47.094 58.0837 47.0183C58.5304 46.9328 58.9228 46.7846 59.261 46.5739C59.9896 46.1072 60.3908 45.3575 60.4648 44.325C60.5387 43.2925 60.2303 42.541 59.5394 42.0706C58.8945 41.6425 57.9195 41.3818 56.6142 41.2883ZM69.3431 56.3131C68.5174 55.4021 67.8889 54.334 67.4578 53.1087C67.0363 51.884 66.8762 50.5655 66.9774 49.1531C67.0792 47.731 67.4141 46.4039 67.9821 45.1718C68.55 43.9396 69.3118 42.8732 70.2672 41.9723C71.2227 41.0715 72.3489 40.3835 73.6459 39.9086C74.9436 39.4239 76.3717 39.2373 77.9302 39.3489C80.6187 39.5414 82.8227 40.551 84.5423 42.3778C86.3802 44.3304 87.1889 46.8458 86.9685 49.9238C86.755 52.9045 85.5645 55.311 83.3968 57.1432C82.0628 58.2715 80.5174 59.0028 78.7605 59.3372C77.897 59.5005 76.8954 59.5414 75.7558 59.4598C74.6259 59.3789 73.4786 59.0618 72.314 58.5084C71.1591 57.9558 70.1688 57.224 69.3431 56.3131ZM71.0539 49.2394C70.989 50.1453 71.0803 50.989 71.3279 51.7704C71.5754 52.5518 71.9476 53.2344 72.4442 53.8182C73.5016 55.0492 74.9264 55.7289 76.7187 55.8573C78.4233 55.9793 79.8313 55.527 80.9426 54.5002C82.0762 53.4359 82.7135 51.9199 82.8544 49.9523C82.9869 48.1016 82.5958 46.5218 81.6811 45.2129C80.6948 43.8107 79.2616 43.0423 77.3817 42.9077C75.5602 42.7772 74.0655 43.3458 72.8978 44.6132C71.8045 45.7979 71.1899 47.34 71.0539 49.2394ZM94.7355 60.819C93.1575 60.706 91.6811 60.473 90.3063 60.1199L91.7063 40.5704C93.0032 40.5066 94.4991 40.5354 96.194 40.6568C97.8986 40.7789 99.4209 41.1229 100.761 41.6888C102.111 42.2456 103.218 42.9858 104.082 43.9092C105.83 45.7575 106.593 48.2256 106.372 51.3134C106.124 54.7713 104.894 57.3218 102.681 58.9648C100.696 60.4381 98.0473 61.0561 94.7355 60.819ZM94.3333 57.2068C94.9581 57.369 95.587 57.4728 96.2202 57.5181C96.8533 57.5635 97.5439 57.4906 98.2919 57.2993C99.0406 57.0984 99.7016 56.7541 100.275 56.2665C101.504 55.2384 102.194 53.6626 102.346 51.5391C102.596 48.0519 101.479 45.818 98.9934 44.8372C98.1745 44.5142 97.2147 44.3133 96.114 44.2344L95.7195 44.2062C95.5734 44.1957 95.4221 44.1898 95.2656 44.1884L94.3333 57.2068ZM122.429 42.8292C123.03 42.9212 123.529 42.9815 123.929 43.0101L125.142 43.0969C125.551 43.1262 125.982 43.1179 126.436 43.0721L125.57 55.1554C125.399 57.5516 124.535 59.4234 122.98 60.7709C121.508 62.0459 119.735 62.6092 117.66 62.4606C115.391 62.2981 113.597 61.5773 112.278 60.2982C110.805 58.8612 110.158 56.8959 110.336 54.4023L111.222 42.0267C112.027 42.1333 112.785 42.2121 113.497 42.263C114.217 42.3146 114.814 42.3182 115.287 42.2738L114.384 54.8831C114.297 56.1104 114.603 57.0918 115.304 57.8274C115.961 58.501 116.815 58.8755 117.867 58.9508C119.426 59.0624 120.521 58.338 121.151 56.7775C121.377 56.2161 121.521 55.5116 121.582 54.6642L122.429 42.8292ZM140.071 43.7989C141.892 43.9293 143.423 44.3571 144.664 45.0824L144.344 49.5533L144.312 49.5805C143.827 48.7037 142.717 48.0662 140.983 47.6679C140.473 47.5432 139.824 47.4527 139.035 47.3962C138.246 47.3397 137.461 47.4352 136.679 47.6828C135.899 47.9206 135.245 48.2948 134.719 48.8054C133.698 49.7994 133.117 51.2803 132.976 53.2479C132.813 55.537 133.29 57.2845 134.407 58.4905C135.334 59.4967 136.616 60.0584 138.252 60.1756C140.103 60.3082 141.631 60.0211 142.837 59.3144C143.276 59.0619 143.657 58.7367 143.979 58.3388L144.021 58.3711L143.728 62.4622C142.149 63.5926 140.098 64.0674 137.575 63.8867C134.604 63.674 132.344 62.5624 130.794 60.5521C129.306 58.6343 128.668 56.1899 128.881 53.219C129.106 50.0727 130.17 47.6572 132.073 45.9724C133.996 44.2792 136.662 43.5547 140.071 43.7989ZM154.31 64.8061C153.847 64.7142 152.646 64.5988 150.707 64.46L150.24 64.4265L151.397 48.2667L148.504 48.0596C147.647 47.9982 147.137 48.0058 146.975 48.0823C146.813 48.1588 146.686 48.228 146.593 48.2899L146.55 48.2721L146.818 44.5317L146.865 44.491C147.179 44.6212 148.042 44.7368 149.454 44.838L158.615 45.494C159.473 45.5554 159.982 45.5478 160.144 45.4713C160.306 45.3948 160.434 45.3256 160.526 45.2637L160.569 45.2815L160.301 49.0219L160.254 49.0626C159.941 48.9324 159.077 48.8168 157.665 48.7156L155.473 48.5587L154.31 64.8061ZM173.351 46.4464C174.717 46.368 176.111 46.3798 177.534 46.4816C180.183 46.6713 182.15 47.4388 183.434 48.784C184.729 50.1201 185.287 52.0252 185.11 54.4993C184.952 56.7105 184.072 58.4049 182.47 59.5825C180.971 60.6892 179.111 61.163 176.89 61.004C176.637 60.9859 176.36 60.9514 176.06 60.9005L175.677 66.2482L171.952 65.9814L173.351 46.4464ZM177.72 50.0343C177.428 50.0133 177.135 50.0022 176.841 50.0007L176.291 57.6861C176.6 57.7474 176.978 57.7941 177.426 57.8262C177.874 57.8582 178.348 57.7992 178.849 57.649C179.35 57.4891 179.778 57.2505 180.134 56.9333C180.876 56.2717 181.289 55.3614 181.372 54.2023C181.557 51.6112 180.34 50.2219 177.72 50.0343ZM194.044 59.9708C193.75 59.9693 193.438 59.9567 193.107 59.933C192.775 59.9093 192.285 59.8497 191.636 59.7543L191.092 67.352L187.22 67.0748L188.619 47.5398C189.995 47.4621 191.677 47.4944 193.664 47.6367C196.372 47.8307 198.352 48.4767 199.605 49.5749C200.869 50.664 201.426 52.2508 201.276 54.3353C201.161 55.9522 200.453 57.2918 199.153 58.354C198.727 58.6956 198.246 58.9842 197.71 59.22L200.241 65.7162C200.733 67.0535 201.126 67.8551 201.42 68.121L201.342 68.1888C200.408 67.9653 198.922 67.8638 196.884 67.8843L194.044 59.9708ZM193.695 51.1048C193.198 51.0693 192.719 51.0594 192.258 51.0753L191.858 56.6568C192.33 56.7591 192.888 56.8333 193.531 56.8794C194.174 56.9254 194.718 56.9105 195.164 56.8348C195.611 56.7493 196.003 56.6012 196.342 56.3904C197.07 55.9237 197.471 55.174 197.545 54.1415C197.619 53.109 197.311 52.3575 196.62 51.8871C195.975 51.459 195 51.1983 193.695 51.1048ZM206.424 66.1296C205.598 65.2186 204.97 64.1505 204.538 62.9252C204.117 61.7005 203.957 60.382 204.058 58.9696C204.16 57.5475 204.495 56.2204 205.063 54.9883C205.631 53.7561 206.392 52.6897 207.348 51.7888C208.303 50.888 209.43 50.2001 210.727 49.7251C212.024 49.2404 213.452 49.0538 215.011 49.1654C217.699 49.3579 219.903 50.3675 221.623 52.1943C223.461 54.1469 224.27 56.6623 224.049 59.7404C223.836 62.721 222.645 65.1275 220.477 66.9597C219.143 68.088 217.598 68.8194 215.841 69.1537C214.978 69.317 213.976 69.3579 212.836 69.2763C211.706 69.1954 210.559 68.8783 209.395 68.3249C208.24 67.7723 207.249 67.0405 206.424 66.1296ZM208.134 59.056C208.07 59.9618 208.161 60.8055 208.408 61.5869C208.656 62.3683 209.028 63.0509 209.525 63.6347C210.582 64.8657 212.007 65.5454 213.799 65.6738C215.504 65.7958 216.912 65.3435 218.023 64.3167C219.157 63.2524 219.794 61.7364 219.935 59.7688C220.068 57.9181 219.676 56.3383 218.762 55.0294C217.775 53.6272 216.342 52.8588 214.462 52.7242C212.641 52.5937 211.146 53.1623 209.978 54.4297C208.885 55.6145 208.27 57.1565 208.134 59.056ZM231.047 70.3014C230.584 70.2094 229.685 70.1157 228.35 70.0201L227.181 69.9364L228.577 50.4453C229.198 50.5289 229.883 50.5976 230.633 50.6513C231.383 50.705 231.917 50.704 232.234 50.6484L236.546 59.3429L241.863 51.338C242.169 51.4382 242.76 51.5197 243.637 51.5825C244.514 51.6453 245.265 51.6795 245.891 51.6852L244.495 71.1763L243.327 71.0926C241.992 70.997 241.089 70.9617 240.617 70.9867L241.555 57.8952L236.165 66.1005L231.935 57.8966L231.047 70.3014ZM251.367 69.348C250.541 68.4371 249.913 67.369 249.482 66.1436C249.06 64.919 248.9 63.6005 249.001 62.1881C249.103 60.7659 249.438 59.4388 250.006 58.2067C250.574 56.9746 251.336 55.9081 252.291 55.0073C253.247 54.1064 254.373 53.4185 255.67 52.9435C256.968 52.4588 258.396 52.2723 259.954 52.3839C262.643 52.5764 264.847 53.586 266.566 55.4127C268.404 57.3654 269.213 59.8808 268.993 62.9588C268.779 65.9395 267.589 68.3459 265.421 70.1782C264.087 71.3065 262.541 72.0378 260.785 72.3722C259.921 72.5355 258.92 72.5764 257.78 72.4948C256.65 72.4138 255.503 72.0967 254.338 71.5434C253.183 70.9907 252.193 70.2589 251.367 69.348ZM253.078 62.2744C253.013 63.1803 253.104 64.0239 253.352 64.8053C253.6 65.5867 253.972 66.2693 254.468 66.8532C255.526 68.0842 256.951 68.7639 258.743 68.8922C260.447 69.0143 261.855 68.562 262.967 67.5352C264.1 66.4709 264.738 64.9549 264.878 62.9873C265.011 61.1366 264.62 59.5567 263.705 58.2478C262.719 56.8457 261.286 56.0773 259.406 55.9426C257.584 55.8122 256.09 56.3807 254.922 57.6482C253.829 58.8329 253.214 60.375 253.078 62.2744ZM290.297 74.5149C289.988 74.4536 289.478 74.3975 288.767 74.3466L287.16 74.2315C286.897 74.2127 286.657 74.2053 286.442 74.2095L286.429 74.1792C286.473 74.1138 286.498 74.0373 286.504 73.9496C286.51 73.862 286.507 73.7687 286.495 73.6699C286.492 73.5718 286.466 73.3937 286.416 73.1356C286.366 72.8774 286.285 72.5045 286.173 72.0167L285.699 70.0149L281.367 54.2256C281.968 54.3078 282.736 54.3824 283.671 54.4494C284.606 54.5164 285.208 54.5203 285.477 54.4612L288.923 68.0576L293.728 55.1108C294.309 55.1916 295.029 55.2627 295.886 55.3241C297.055 55.4078 297.739 55.4177 297.94 55.3537L291.503 70.3864C291.503 70.3864 291.292 70.9441 290.869 72.0593C290.517 73.0131 290.33 73.6362 290.309 73.9284C290.289 74.2109 290.296 74.3925 290.329 74.4732L290.297 74.5149ZM301.282 55.6518C302.253 55.7605 302.841 55.8222 303.045 55.8368L304.097 55.9121C304.614 55.9491 305.03 55.9398 305.348 55.8842L303.933 75.4327L299.886 75.1429L301.282 55.6518ZM314.135 76.5304C312.557 76.4174 311.08 76.1844 309.705 75.8314L311.105 56.2818C312.402 56.2181 313.898 56.2469 315.593 56.3682C317.298 56.4903 318.82 56.8343 320.16 57.4002C321.51 57.9571 322.618 58.6972 323.482 59.6207C325.229 61.4689 325.992 63.937 325.771 67.0248C325.523 70.4827 324.293 73.0332 322.08 74.6762C320.095 76.1495 317.446 76.7676 314.135 76.5304ZM313.732 72.9182C314.357 73.0804 314.986 73.1842 315.619 73.2296C316.252 73.2749 316.943 73.202 317.691 73.0108C318.44 72.8098 319.101 72.4655 319.674 71.9779C320.903 70.9498 321.594 69.374 321.746 67.2505C321.995 63.7634 320.878 61.5294 318.392 60.5486C317.574 60.2256 316.614 60.0247 315.513 59.9459L315.119 59.9176C314.973 59.9072 314.821 59.9012 314.665 59.8998L313.732 72.9182ZM339.382 74.4466C339.986 74.4899 340.409 74.4614 340.651 74.3613L340.709 74.3801L340.3 78.037L329.356 77.2533L330.755 57.7183C331.017 57.7567 331.308 57.7922 331.629 57.825L332.649 57.9274C333.33 57.9957 334.069 58.0585 334.868 58.1157C337.099 58.2754 339.308 58.3944 341.495 58.4728C341.327 59.3223 341.191 60.463 341.089 61.8948C341.078 62.0507 341.079 62.1683 341.093 62.2476L341.06 62.2893C340.564 62.107 339.849 61.9823 338.914 61.9153L334.311 61.5857L334.044 65.3115L337.507 65.5595C338.579 65.6363 339.224 65.6531 339.442 65.61L339.228 69.222C338.763 69.1398 338.161 69.0722 337.421 69.0192L333.797 68.7598L333.421 74.0197L339.382 74.4466ZM346.105 76.1323C345.279 75.2214 344.651 74.1533 344.22 72.9279C343.798 71.7033 343.638 70.3848 343.739 68.9724C343.841 67.5502 344.176 66.2231 344.744 64.991C345.312 63.7589 346.074 62.6924 347.029 61.7916C347.985 60.8907 349.111 60.2028 350.408 59.7278C351.706 59.2431 353.134 59.0565 354.692 59.1682C357.381 59.3607 359.585 60.3703 361.304 62.197C363.142 64.1497 363.951 66.665 363.73 69.7431C363.517 72.7237 362.326 75.1302 360.159 76.9625C358.825 78.0908 357.279 78.8221 355.522 79.1564C354.659 79.3198 353.657 79.3607 352.518 79.279C351.388 79.1981 350.241 78.881 349.076 78.3277C347.921 77.775 346.931 77.0432 346.105 76.1323ZM347.816 69.0587C347.751 69.9646 347.842 70.8082 348.09 71.5896C348.337 72.371 348.71 73.0536 349.206 73.6375C350.264 74.8685 351.688 75.5482 353.481 75.6765C355.185 75.7986 356.593 75.3462 357.705 74.3195C358.838 73.2552 359.475 71.7392 359.616 69.7716C359.749 67.9208 359.358 66.341 358.443 65.0321C357.457 63.6299 356.024 62.8616 354.144 62.7269C352.322 62.5965 350.828 63.165 349.66 64.4325C348.567 65.6172 347.952 67.1593 347.816 69.0587ZM382.063 69.8811L382.826 65.7942L378.848 68.4319L377.178 65.5072L381.539 63.8664L377.509 61.0812L379.992 58.6154L383.052 62.0214L382.788 57.5086L386.353 57.7639L385.406 62.3663L388.948 59.668L390.965 62.4706L386.385 64.2868L390.801 66.8059L388.649 69.3834L385.153 66.1078L385.373 70.632L381.968 70.3883C381.969 70.3785 382.001 70.2095 382.063 69.8811ZM405.228 63.0514C406.594 62.973 407.988 62.9848 409.41 63.0866C412.06 63.2763 414.027 64.0438 415.311 65.3889C416.606 66.7251 417.164 68.6302 416.987 71.1043C416.829 73.3154 415.949 75.0098 414.347 76.1875C412.848 77.2942 410.988 77.768 408.767 77.609C408.514 77.5908 408.237 77.5564 407.937 77.5055L407.554 82.8531L403.829 82.5863L405.228 63.0514ZM409.597 66.6392C409.304 66.6183 409.012 66.6071 408.718 66.6057L408.168 74.2911C408.476 74.3524 408.855 74.3991 409.303 74.4311C409.751 74.4632 410.225 74.4042 410.726 74.254C411.227 74.094 411.655 73.8555 412.01 73.5383C412.753 72.8767 413.166 71.9664 413.249 70.8072C413.434 68.2162 412.217 66.8269 409.597 66.6392ZM425.921 76.5757C425.627 76.5743 425.315 76.5617 424.984 76.538C424.652 76.5143 424.162 76.4547 423.513 76.3593L422.969 83.957L419.097 83.6797L420.496 64.1448C421.872 64.0671 423.554 64.0994 425.541 64.2417C428.249 64.4356 430.229 65.0817 431.482 66.1798C432.746 67.2689 433.303 68.8558 433.153 70.9403C433.038 72.5572 432.33 73.8968 431.03 74.959C430.604 75.3005 430.123 75.5892 429.587 75.825L432.118 82.3212C432.61 83.6585 433.003 84.4601 433.297 84.726L433.219 84.7938C432.285 84.5703 430.799 84.4688 428.761 84.4893L425.921 76.5757ZM425.572 67.7098C425.075 67.6742 424.596 67.6644 424.135 67.6803L423.735 73.2617C424.207 73.3641 424.765 73.4383 425.408 73.4843C426.051 73.5304 426.595 73.5155 427.041 73.4398C427.488 73.3543 427.88 73.2061 428.219 72.9954C428.947 72.5286 429.348 71.779 429.422 70.7465C429.496 69.714 429.188 68.9625 428.497 68.492C427.852 68.064 426.877 67.8033 425.572 67.7098ZM438.301 82.7345C437.475 81.8236 436.846 80.7555 436.415 79.5302C435.994 78.3055 435.834 76.987 435.935 75.5746C436.037 74.1525 436.372 72.8253 436.94 71.5932C437.508 70.3611 438.269 69.2946 439.225 68.3938C440.18 67.4929 441.306 66.805 442.603 66.3301C443.901 65.8453 445.329 65.6588 446.888 65.7704C449.576 65.9629 451.78 66.9725 453.5 68.7992C455.338 70.7519 456.146 73.2673 455.926 76.3453C455.713 79.326 454.522 81.7324 452.354 83.5647C451.02 84.693 449.475 85.4243 447.718 85.7587C446.855 85.922 445.853 85.9629 444.713 85.8813C443.583 85.8004 442.436 85.4832 441.271 84.9299C440.117 84.3772 439.126 83.6454 438.301 82.7345ZM440.011 75.6609C439.947 76.5668 440.038 77.4105 440.285 78.1918C440.533 78.9732 440.905 79.6559 441.402 80.2397C442.459 81.4707 443.884 82.1504 445.676 82.2787C447.381 82.4008 448.789 81.9485 449.9 80.9217C451.034 79.8574 451.671 78.3414 451.812 76.3738C451.944 74.5231 451.553 72.9433 450.639 71.6343C449.652 70.2322 448.219 69.4638 446.339 69.3292C444.518 69.1987 443.023 69.7672 441.855 71.0347C440.762 72.2194 440.147 73.7615 440.011 75.6609ZM463.693 87.2404C462.115 87.1274 460.639 86.8944 459.264 86.5414L460.664 66.9919C461.961 66.9281 463.457 66.9569 465.152 67.0783C466.856 67.2003 468.378 67.5443 469.718 68.1102C471.069 68.6671 472.176 69.4073 473.04 70.3307C474.787 72.179 475.551 74.647 475.329 77.7348C475.082 81.1928 473.852 83.7432 471.639 85.3863C469.653 86.8595 467.005 87.4776 463.693 87.2404ZM463.291 83.6283C463.916 83.7905 464.545 83.8943 465.178 83.9396C465.811 83.985 466.501 83.912 467.249 83.7208C467.998 83.5199 468.659 83.1756 469.233 82.688C470.461 81.6598 471.152 80.084 471.304 77.9606C471.554 74.4734 470.436 72.2394 467.951 71.2586C467.132 70.9356 466.172 70.7347 465.072 70.6559L464.677 70.6277C464.531 70.6172 464.38 70.6113 464.223 70.6098L463.291 83.6283ZM491.387 69.2507C491.987 69.3427 492.487 69.4029 492.886 69.4315L494.099 69.5184C494.508 69.5477 494.94 69.5394 495.393 69.4936L494.528 81.5769C494.356 83.9731 493.493 85.8449 491.938 87.1923C490.466 88.4674 488.692 89.0307 486.618 88.8821C484.348 88.7196 482.554 87.9988 481.236 86.7197C479.763 85.2827 479.115 83.3173 479.294 80.8237L480.18 68.4482C480.985 68.5548 481.743 68.6336 482.454 68.6845C483.175 68.7361 483.772 68.7397 484.245 68.6952L483.342 81.3046C483.254 82.5319 483.561 83.5133 484.262 84.2489C484.919 84.9225 485.773 85.297 486.825 85.3723C488.384 85.4839 489.478 84.7595 490.109 83.199C490.335 82.6375 490.478 81.9331 490.539 81.0856L491.387 69.2507ZM509.028 70.2204C510.85 70.3508 512.381 70.7786 513.621 71.5038L513.301 75.9748L513.27 76.0019C512.784 75.1252 511.675 74.4877 509.941 74.0894C509.431 73.9647 508.781 73.8742 507.992 73.8177C507.203 73.7612 506.418 73.8567 505.637 74.1042C504.856 74.342 504.203 74.7162 503.677 75.2269C502.656 76.2209 502.075 77.7018 501.934 79.6694C501.77 81.9584 502.247 83.706 503.365 84.9119C504.292 85.9182 505.573 86.4799 507.209 86.5971C509.06 86.7296 510.589 86.4426 511.794 85.7359C512.234 85.4834 512.614 85.1582 512.936 84.7603L512.978 84.7926L512.685 88.8837C511.106 90.0141 509.055 90.4889 506.533 90.3082C503.562 90.0955 501.301 88.9839 499.751 86.9736C498.264 85.0557 497.626 82.6114 497.839 79.6405C498.064 76.4942 499.128 74.0787 501.03 72.3939C502.953 70.7007 505.619 69.9762 509.028 70.2204ZM523.267 91.2276C522.804 91.1357 521.603 91.0203 519.665 90.8815L519.197 90.848L520.354 74.6882L517.461 74.4811C516.604 74.4197 516.095 74.4272 515.933 74.5037C515.77 74.5802 515.643 74.6494 515.55 74.7114L515.508 74.6936L515.776 70.9532L515.823 70.9125C516.136 71.0427 516.999 71.1583 518.412 71.2595L527.573 71.9155C528.43 71.9769 528.94 71.9693 529.102 71.8928C529.264 71.8163 529.391 71.7471 529.484 71.6852L529.527 71.7029L529.259 75.4434L529.212 75.4841C528.898 75.3539 528.035 75.2382 526.623 75.1371L524.431 74.9801L523.267 91.2276ZM542.308 72.8679C543.675 72.7895 545.069 72.8013 546.491 72.9031C549.141 73.0928 551.107 73.8603 552.392 75.2054C553.686 76.5416 554.245 78.4467 554.068 80.9208C553.909 83.1319 553.029 84.8263 551.427 86.004C549.928 87.1107 548.069 87.5845 545.848 87.4255C545.594 87.4073 545.318 87.3729 545.018 87.322L544.635 92.6696L540.909 92.4028L542.308 72.8679ZM546.677 76.4557C546.385 76.4348 546.092 76.4236 545.799 76.4222L545.248 84.1076C545.557 84.1689 545.936 84.2156 546.384 84.2476C546.832 84.2797 547.306 84.2207 547.806 84.0705C548.307 83.9105 548.735 83.672 549.091 83.3548C549.834 82.6932 550.246 81.7829 550.329 80.6237C550.515 78.0327 549.298 76.6434 546.677 76.4557ZM563.001 86.3922C562.708 86.3908 562.395 86.3782 562.064 86.3545C561.733 86.3308 561.243 86.2712 560.594 86.1758L560.05 93.7735L556.178 93.4962L557.577 73.9613C558.953 73.8836 560.635 73.9159 562.622 74.0582C565.33 74.2521 567.31 74.8982 568.563 75.9963C569.826 77.0854 570.383 78.6723 570.234 80.7568C570.118 82.3737 569.41 83.7133 568.11 84.7755C567.685 85.117 567.204 85.4057 566.668 85.6415L569.199 92.1377C569.69 93.475 570.083 94.2766 570.378 94.5425L570.299 94.6103C569.366 94.3868 567.88 94.2853 565.842 94.3058L563.001 86.3922ZM562.652 77.5263C562.156 77.4907 561.677 77.4809 561.215 77.4968L560.816 83.0782C561.288 83.1806 561.846 83.2548 562.488 83.3008C563.131 83.3469 563.676 83.332 564.122 83.2563C564.569 83.1708 564.961 83.0226 565.299 82.8119C566.028 82.3451 566.429 81.5955 566.503 80.563C566.577 79.5305 566.268 78.779 565.578 78.3085C564.933 77.8805 563.958 77.6198 562.652 77.5263ZM575.381 92.551C574.555 91.6401 573.927 90.572 573.496 89.3467C573.074 88.122 572.914 86.8035 573.015 85.3911C573.117 83.969 573.452 82.6418 574.02 81.4097C574.588 80.1776 575.35 79.1111 576.305 78.2103C577.261 77.3094 578.387 76.6215 579.684 76.1466C580.982 75.6618 582.41 75.4753 583.968 75.5869C586.657 75.7794 588.861 76.789 590.58 78.6157C592.418 80.5684 593.227 83.0838 593.007 86.1618C592.793 89.1425 591.603 91.5489 589.435 93.3812C588.101 94.5095 586.556 95.2408 584.799 95.5752C583.935 95.7385 582.934 95.7794 581.794 95.6978C580.664 95.6169 579.517 95.2997 578.352 94.7464C577.197 94.1937 576.207 93.4619 575.381 92.551ZM577.092 85.4774C577.027 86.3833 577.118 87.227 577.366 88.0083C577.614 88.7897 577.986 89.4724 578.482 90.0562C579.54 91.2872 580.965 91.9669 582.757 92.0953C584.461 92.2173 585.869 91.765 586.981 90.7382C588.114 89.6739 588.752 88.1579 588.893 86.1903C589.025 84.3396 588.634 82.7598 587.719 81.4508C586.733 80.0487 585.3 79.2803 583.42 79.1457C581.598 79.0152 580.104 79.5837 578.936 80.8512C577.843 82.0359 577.228 83.578 577.092 85.4774ZM600.005 96.7228C599.541 96.6309 598.642 96.5372 597.308 96.4416L596.139 96.3579L597.535 76.8668C598.155 76.9504 598.841 77.0191 599.591 77.0728C600.341 77.1265 600.874 77.1255 601.192 77.0699L605.503 85.7644L610.82 77.7594C611.126 77.8597 611.718 77.9412 612.594 78.004C613.471 78.0668 614.223 78.101 614.849 78.1067L613.453 97.5978L612.284 97.5141C610.95 97.4185 610.046 97.3832 609.575 97.4082L610.512 84.3167L605.122 92.522L600.893 84.3181L600.005 96.7228ZM620.325 95.7695C619.499 94.8586 618.871 93.7904 618.439 92.5651C618.018 91.3405 617.858 90.022 617.959 88.6096C618.061 87.1874 618.396 85.8603 618.964 84.6282C619.532 83.3961 620.293 82.3296 621.249 81.4288C622.204 80.5279 623.331 79.84 624.628 79.365C625.925 78.8803 627.353 78.6937 628.912 78.8053C631.6 78.9979 633.804 80.0075 635.524 81.8342C637.362 83.7869 638.171 86.3022 637.95 89.3803C637.737 92.3609 636.546 94.7674 634.378 96.5997C633.044 97.728 631.499 98.4593 629.742 98.7936C628.879 98.957 627.877 98.9979 626.737 98.9162C625.607 98.8353 624.46 98.5182 623.296 97.9648C622.141 97.4122 621.15 96.6804 620.325 95.7695ZM622.036 88.6959C621.971 89.6018 622.062 90.4454 622.31 91.2268C622.557 92.0082 622.929 92.6908 623.426 93.2747C624.483 94.5057 625.908 95.1854 627.7 95.3137C629.405 95.4358 630.813 94.9834 631.924 93.9567C633.058 92.8923 633.695 91.3764 633.836 89.4088C633.969 87.558 633.577 85.9782 632.663 84.6693C631.676 83.2671 630.243 82.4987 628.363 82.3641C626.542 82.2337 625.047 82.8022 623.879 84.0697C622.786 85.2544 622.172 86.7965 622.036 88.6959ZM659.254 100.936C658.945 100.875 658.435 100.819 657.724 100.768L656.117 100.653C655.854 100.634 655.615 100.627 655.399 100.631L655.387 100.601C655.43 100.535 655.455 100.459 655.462 100.371C655.468 100.283 655.465 100.19 655.452 100.091C655.45 99.9933 655.423 99.8152 655.373 99.557C655.323 99.2989 655.242 98.9259 655.13 98.4382L654.657 96.4364L650.324 80.6471C650.925 80.7293 651.694 80.8039 652.629 80.8709C653.564 80.9378 654.166 80.9418 654.434 80.8827L657.881 94.479L662.685 81.5323C663.267 81.6131 663.986 81.6842 664.843 81.7456C666.012 81.8293 666.697 81.8392 666.897 81.7752L660.46 96.8079C660.46 96.8079 660.249 97.3655 659.827 98.4808C659.474 99.4346 659.288 100.058 659.267 100.35C659.247 100.632 659.253 100.814 659.287 100.895L659.254 100.936ZM670.239 82.0732C671.21 82.182 671.798 82.2436 672.003 82.2583L673.055 82.3336C673.571 82.3706 673.988 82.3613 674.305 82.3057L672.891 101.854L668.843 101.564L670.239 82.0732ZM683.092 102.952C681.514 102.839 680.038 102.606 678.663 102.253L680.063 82.7033C681.36 82.6395 682.856 82.6683 684.551 82.7897C686.255 82.9118 687.778 83.2558 689.118 83.8217C690.468 84.3785 691.575 85.1187 692.439 86.0421C694.187 87.8904 694.95 90.3585 694.729 93.4463C694.481 96.9042 693.251 99.4547 691.038 101.098C689.053 102.571 686.404 103.189 683.092 102.952ZM682.69 99.3397C683.315 99.5019 683.944 99.6057 684.577 99.651C685.21 99.6964 685.901 99.6235 686.649 99.4323C687.397 99.2313 688.058 98.887 688.632 98.3994C689.861 97.3713 690.551 95.7955 690.703 93.672C690.953 90.1848 689.835 87.9509 687.35 86.9701C686.531 86.6471 685.571 86.4462 684.471 86.3673L684.076 86.3391C683.93 86.3286 683.779 86.3227 683.622 86.3213L682.69 99.3397ZM708.34 100.868C708.944 100.911 709.367 100.883 709.609 100.783L709.666 100.802L709.257 104.458L698.314 103.675L699.713 84.1398C699.974 84.1781 700.265 84.2137 700.586 84.2464L701.607 84.3489C702.287 84.4172 703.027 84.48 703.826 84.5372C706.056 84.6969 708.265 84.8159 710.453 84.8942C710.284 85.7438 710.149 86.8844 710.046 88.3163C710.035 88.4722 710.036 88.5898 710.05 88.6691L710.018 88.7108C709.522 88.5284 708.806 88.4038 707.871 88.3368L703.269 88.0072L703.002 91.733L706.465 91.981C707.536 92.0577 708.181 92.0745 708.4 92.0315L708.185 95.6435C707.721 95.5613 707.119 95.4937 706.379 95.4407L702.755 95.1812L702.378 100.441L708.34 100.868ZM715.063 102.554C714.237 101.643 713.608 100.575 713.177 99.3494C712.756 98.1248 712.596 96.8063 712.697 95.3939C712.799 93.9717 713.134 92.6446 713.702 91.4125C714.27 90.1804 715.031 89.1139 715.987 88.213C716.942 87.3122 718.068 86.6243 719.365 86.1493C720.663 85.6646 722.091 85.478 723.65 85.5896C726.338 85.7822 728.542 86.7918 730.262 88.6185C732.1 90.5712 732.908 93.0865 732.688 96.1646C732.475 99.1452 731.284 101.552 729.116 103.384C727.782 104.512 726.237 105.244 724.48 105.578C723.617 105.741 722.615 105.782 721.475 105.701C720.345 105.62 719.198 105.302 718.033 104.749C716.879 104.196 715.888 103.465 715.063 102.554ZM716.773 95.4802C716.708 96.3861 716.8 97.2297 717.047 98.0111C717.295 98.7925 717.667 99.4751 718.164 100.059C719.221 101.29 720.646 101.97 722.438 102.098C724.143 102.22 725.551 101.768 726.662 100.741C727.796 99.6766 728.433 98.1607 728.574 96.193C728.706 94.3423 728.315 92.7625 727.401 91.4536C726.414 90.0514 724.981 89.283 723.101 89.1484C721.28 89.018 719.785 89.5865 718.617 90.854C717.524 92.0387 716.909 93.5807 716.773 95.4802ZM751.021 96.3025L751.783 92.2157L747.806 94.8534L746.135 91.9287L750.497 90.2878L746.467 87.5026L748.949 85.0369L752.01 88.4429L751.745 83.9301L755.31 84.1854L754.364 88.7878L757.906 86.0895L759.923 88.8921L755.343 90.7083L759.759 93.2274L757.606 95.8049L754.111 92.5292L754.33 97.0535L750.926 96.8097C750.926 96.8 750.958 96.6309 751.021 96.3025ZM774.185 89.4729C775.552 89.3945 776.946 89.4062 778.368 89.5081C781.017 89.6978 782.984 90.4653 784.268 91.8104C785.563 93.1465 786.122 95.0517 785.945 97.5258C785.786 99.7369 784.906 101.431 783.304 102.609C781.805 103.716 779.945 104.189 777.725 104.03C777.471 104.012 777.195 103.978 776.895 103.927L776.512 109.275L772.786 109.008L774.185 89.4729ZM778.554 93.0607C778.262 93.0398 777.969 93.0286 777.675 93.0272L777.125 100.713C777.434 100.774 777.812 100.821 778.261 100.853C778.709 100.885 779.183 100.826 779.683 100.675C780.184 100.516 780.612 100.277 780.968 99.9597C781.71 99.2982 782.123 98.3879 782.206 97.2287C782.392 94.6377 781.174 93.2484 778.554 93.0607ZM794.878 102.997C794.585 102.996 794.272 102.983 793.941 102.959C793.61 102.936 793.12 102.876 792.471 102.781L791.927 110.378L788.055 110.101L789.454 90.5663C790.83 90.4886 792.511 90.5209 794.499 90.6632C797.206 90.8571 799.187 91.5032 800.44 92.6013C801.703 93.6904 802.26 95.2772 802.111 97.3617C801.995 98.9787 801.287 100.318 799.987 101.38C799.561 101.722 799.081 102.011 798.545 102.246L801.076 108.743C801.567 110.08 801.96 110.882 802.254 111.147L802.176 111.215C801.242 110.992 799.757 110.89 797.719 110.911L794.878 102.997ZM794.529 94.1313C794.032 94.0957 793.553 94.0859 793.092 94.1018L792.692 99.6832C793.165 99.7856 793.723 99.8598 794.365 99.9058C795.008 99.9519 795.553 99.937 795.999 99.8612C796.445 99.7757 796.838 99.6276 797.176 99.4168C797.905 98.9501 798.306 98.2005 798.38 97.168C798.454 96.1355 798.145 95.384 797.454 94.9135C796.81 94.4855 795.835 94.2248 794.529 94.1313ZM807.258 109.156C806.432 108.245 805.804 107.177 805.373 105.952C804.951 104.727 804.791 103.408 804.892 101.996C804.994 100.574 805.329 99.2468 805.897 98.0147C806.465 96.7826 807.227 95.7161 808.182 94.8153C809.138 93.9144 810.264 93.2265 811.561 92.7515C812.859 92.2668 814.287 92.0803 815.845 92.1919C818.534 92.3844 820.738 93.394 822.457 95.2207C824.295 97.1734 825.104 99.6888 824.884 102.767C824.67 105.747 823.48 108.154 821.312 109.986C819.978 111.114 818.432 111.846 816.676 112.18C815.812 112.344 814.81 112.384 813.671 112.303C812.541 112.222 811.394 111.905 810.229 111.351C809.074 110.799 808.084 110.067 807.258 109.156ZM808.969 102.082C808.904 102.988 808.995 103.832 809.243 104.613C809.49 105.395 809.863 106.077 810.359 106.661C811.417 107.892 812.841 108.572 814.634 108.7C816.338 108.822 817.746 108.37 818.858 107.343C819.991 106.279 820.629 104.763 820.769 102.795C820.902 100.945 820.511 99.3647 819.596 98.0558C818.61 96.6537 817.177 95.8853 815.297 95.7506C813.475 95.6202 811.981 96.1887 810.813 97.4562C809.72 98.6409 809.105 100.183 808.969 102.082ZM832.651 113.662C831.073 113.549 829.596 113.316 828.221 112.963L829.621 93.4134C830.918 93.3496 832.414 93.3784 834.109 93.4998C835.814 93.6218 837.336 93.9658 838.676 94.5317C840.026 95.0886 841.134 95.8287 841.997 96.7522C843.745 98.6005 844.508 101.069 844.287 104.156C844.039 107.614 842.809 110.165 840.596 111.808C838.611 113.281 835.962 113.899 832.651 113.662ZM832.248 110.05C832.873 110.212 833.502 110.316 834.135 110.361C834.768 110.406 835.459 110.334 836.207 110.142C836.956 109.941 837.617 109.597 838.19 109.109C839.419 108.081 840.109 106.506 840.262 104.382C840.511 100.895 839.394 98.6609 836.908 97.6801C836.09 97.3571 835.13 97.1562 834.029 97.0774L833.635 97.0491C833.488 97.0387 833.337 97.0327 833.181 97.0313L832.248 110.05ZM860.344 95.6722C860.945 95.7641 861.444 95.8244 861.844 95.853L863.057 95.9399C863.466 95.9692 863.897 95.9609 864.351 95.9151L863.485 107.998C863.314 110.395 862.45 112.266 860.895 113.614C859.423 114.889 857.65 115.452 855.575 115.304C853.306 115.141 851.512 114.42 850.193 113.141C848.72 111.704 848.073 109.739 848.251 107.245L849.137 94.8697C849.942 94.9763 850.701 95.055 851.412 95.106C852.132 95.1576 852.729 95.1612 853.202 95.1167L852.3 107.726C852.212 108.953 852.518 109.935 853.219 110.67C853.876 111.344 854.731 111.718 855.783 111.794C857.341 111.905 858.436 111.181 859.066 109.62C859.292 109.059 859.436 108.355 859.497 107.507L860.344 95.6722ZM877.986 96.6418C879.807 96.7723 881.338 97.2001 882.579 97.9253L882.259 102.396L882.227 102.423C881.742 101.547 880.632 100.909 878.898 100.511C878.388 100.386 877.739 100.296 876.95 100.239C876.161 100.183 875.376 100.278 874.594 100.526C873.814 100.764 873.16 101.138 872.634 101.648C871.613 102.642 871.032 104.123 870.892 106.091C870.728 108.38 871.205 110.127 872.322 111.333C873.249 112.34 874.531 112.901 876.167 113.019C878.018 113.151 879.546 112.864 880.752 112.157C881.191 111.905 881.572 111.58 881.894 111.182L881.936 111.214L881.643 115.305C880.064 116.436 878.013 116.91 875.49 116.73C872.519 116.517 870.259 115.405 868.709 113.395C867.221 111.477 866.583 109.033 866.796 106.062C867.022 102.916 868.085 100.5 869.988 98.8154C871.911 97.1222 874.577 96.3977 877.986 96.6418ZM892.225 117.649C891.762 117.557 890.561 117.442 888.622 117.303L888.155 117.269L889.312 101.11L886.419 100.903C885.562 100.841 885.052 100.849 884.89 100.925C884.728 101.002 884.601 101.071 884.508 101.133L884.465 101.115L884.733 97.3747L884.78 97.334C885.094 97.4641 885.957 97.5798 887.369 97.6809L896.53 98.337C897.388 98.3984 897.897 98.3908 898.059 98.3143C898.222 98.2378 898.349 98.1686 898.441 98.1067L898.484 98.1244L898.216 101.865L898.169 101.906C897.856 101.775 896.992 101.66 895.58 101.559L893.388 101.402L892.225 117.649ZM911.266 99.2894C912.632 99.211 914.026 99.2227 915.449 99.3246C918.098 99.5143 920.065 100.282 921.349 101.627C922.644 102.963 923.202 104.868 923.025 107.342C922.867 109.553 921.987 111.248 920.385 112.425C918.886 113.532 917.026 114.006 914.805 113.847C914.552 113.829 914.275 113.794 913.975 113.743L913.593 119.091L909.867 118.824L911.266 99.2894ZM915.635 102.877C915.343 102.856 915.05 102.845 914.756 102.844L914.206 110.529C914.515 110.59 914.893 110.637 915.341 110.669C915.789 110.701 916.263 110.642 916.764 110.492C917.265 110.332 917.693 110.093 918.049 109.776C918.791 109.115 919.204 108.204 919.287 107.045C919.472 104.454 918.255 103.065 915.635 102.877ZM931.959 112.814C931.665 112.812 931.353 112.8 931.022 112.776C930.691 112.752 930.2 112.693 929.551 112.597L929.007 120.195L925.135 119.918L926.534 100.383C927.91 100.305 929.592 100.337 931.579 100.48C934.287 100.674 936.267 101.32 937.52 102.418C938.784 103.507 939.341 105.094 939.191 107.178C939.076 108.795 938.368 110.135 937.068 111.197C936.642 111.539 936.161 111.827 935.625 112.063L938.156 118.559C938.648 119.897 939.041 120.698 939.335 120.964L939.257 121.032C938.323 120.808 936.837 120.707 934.799 120.727L931.959 112.814ZM931.61 103.948C931.113 103.912 930.634 103.902 930.173 103.918L929.773 109.5C930.245 109.602 930.803 109.676 931.446 109.722C932.089 109.768 932.633 109.753 933.079 109.678C933.526 109.592 933.918 109.444 934.257 109.233C934.985 108.767 935.386 108.017 935.46 106.984C935.534 105.952 935.226 105.2 934.535 104.73C933.89 104.302 932.915 104.041 931.61 103.948ZM944.339 118.973C943.513 118.062 942.885 116.993 942.453 115.768C942.032 114.544 941.872 113.225 941.973 111.813C942.075 110.39 942.41 109.063 942.978 107.831C943.546 106.599 944.307 105.533 945.263 104.632C946.218 103.731 947.345 103.043 948.642 102.568C949.939 102.083 951.367 101.897 952.926 102.008C955.614 102.201 957.818 103.211 959.538 105.037C961.376 106.99 962.185 109.505 961.964 112.583C961.751 115.564 960.56 117.97 958.392 119.803C957.058 120.931 955.513 121.662 953.756 121.997C952.893 122.16 951.891 122.201 950.751 122.119C949.622 122.038 948.474 121.721 947.31 121.168C946.155 120.615 945.164 119.883 944.339 118.973ZM946.05 111.899C945.985 112.805 946.076 113.648 946.324 114.43C946.571 115.211 946.943 115.894 947.44 116.478C948.497 117.709 949.922 118.388 951.714 118.517C953.419 118.639 954.827 118.186 955.938 117.16C957.072 116.095 957.709 114.579 957.85 112.612C957.983 110.761 957.591 109.181 956.677 107.872C955.69 106.47 954.257 105.702 952.377 105.567C950.556 105.437 949.061 106.005 947.893 107.273C946.8 108.457 946.186 109.999 946.05 111.899ZM968.962 123.144C968.499 123.052 967.6 122.959 966.265 122.863L965.096 122.779L966.492 103.288C967.113 103.372 967.798 103.441 968.548 103.494C969.298 103.548 969.832 103.547 970.149 103.491L974.461 112.186L979.778 104.181C980.084 104.281 980.675 104.363 981.552 104.425C982.429 104.488 983.18 104.522 983.806 104.528L982.41 124.019L981.242 123.936C979.907 123.84 979.004 123.805 978.532 123.83L979.47 110.738L974.08 118.943L969.85 110.74L968.962 123.144ZM989.282 122.191C988.457 121.28 987.828 120.212 987.397 118.987C986.976 117.762 986.815 116.443 986.917 115.031C987.018 113.609 987.353 112.282 987.921 111.05C988.489 109.818 989.251 108.751 990.206 107.85C991.162 106.949 992.288 106.261 993.585 105.786C994.883 105.302 996.311 105.115 997.869 105.227C1000.56 105.419 1002.76 106.429 1004.48 108.256C1006.32 110.208 1007.13 112.724 1006.91 115.802C1006.69 118.782 1005.5 121.189 1003.34 123.021C1002 124.149 1000.46 124.881 998.7 125.215C997.836 125.378 996.835 125.419 995.695 125.338C994.565 125.257 993.418 124.94 992.253 124.386C991.098 123.834 990.108 123.102 989.282 122.191ZM990.993 115.117C990.928 116.023 991.019 116.867 991.267 117.648C991.515 118.43 991.887 119.112 992.383 119.696C993.441 120.927 994.866 121.607 996.658 121.735C998.362 121.857 999.77 121.405 1000.88 120.378C1002.02 119.314 1002.65 117.798 1002.79 115.83C1002.93 113.98 1002.53 112.4 1001.62 111.091C1000.63 109.689 999.201 108.92 997.321 108.786C995.499 108.655 994.005 109.224 992.837 110.491C991.744 111.676 991.129 113.218 990.993 115.117ZM1028.21 127.358C1027.9 127.297 1027.39 127.24 1026.68 127.19L1025.07 127.074C1024.81 127.056 1024.57 127.048 1024.36 127.052L1024.34 127.022C1024.39 126.957 1024.41 126.88 1024.42 126.793C1024.43 126.705 1024.42 126.612 1024.41 126.513C1024.41 126.415 1024.38 126.237 1024.33 125.979C1024.28 125.72 1024.2 125.347 1024.09 124.86L1023.61 122.858L1019.28 107.069C1019.88 107.151 1020.65 107.225 1021.59 107.292C1022.52 107.359 1023.12 107.363 1023.39 107.304L1026.84 120.901L1031.64 107.954C1032.22 108.035 1032.94 108.106 1033.8 108.167C1034.97 108.251 1035.65 108.261 1035.85 108.197L1029.42 123.229C1029.42 123.229 1029.21 123.787 1028.78 124.902C1028.43 125.856 1028.25 126.479 1028.22 126.771C1028.2 127.054 1028.21 127.235 1028.24 127.316L1028.21 127.358ZM1039.2 108.495C1040.17 108.603 1040.76 108.665 1040.96 108.68L1042.01 108.755C1042.53 108.792 1042.95 108.783 1043.26 108.727L1041.85 128.276L1037.8 127.986L1039.2 108.495ZM1052.05 129.373C1050.47 129.26 1049 129.027 1047.62 128.674L1049.02 109.125C1050.32 109.061 1051.81 109.09 1053.51 109.211C1055.21 109.333 1056.74 109.677 1058.08 110.243C1059.43 110.8 1060.53 111.54 1061.4 112.464C1063.14 114.312 1063.91 116.78 1063.69 119.868C1063.44 123.326 1062.21 125.876 1060 127.519C1058.01 128.992 1055.36 129.611 1052.05 129.373ZM1051.65 125.761C1052.27 125.923 1052.9 126.027 1053.53 126.073C1054.17 126.118 1054.86 126.045 1055.61 125.854C1056.35 125.653 1057.02 125.309 1057.59 124.821C1058.82 123.793 1059.51 122.217 1059.66 120.093C1059.91 116.606 1058.79 114.372 1056.31 113.392C1055.49 113.069 1054.53 112.868 1053.43 112.789L1053.03 112.761C1052.89 112.75 1052.74 112.744 1052.58 112.743L1051.65 125.761ZM1077.3 127.29C1077.9 127.333 1078.32 127.304 1078.57 127.204L1078.62 127.223L1078.21 130.88L1067.27 130.096L1068.67 110.561C1068.93 110.6 1069.22 110.635 1069.54 110.668L1070.56 110.77C1071.24 110.839 1071.98 110.901 1072.78 110.959C1075.01 111.118 1077.22 111.237 1079.41 111.316C1079.24 112.165 1079.11 113.306 1079 114.738C1078.99 114.894 1078.99 115.011 1079.01 115.091L1078.98 115.132C1078.48 114.95 1077.76 114.825 1076.83 114.758L1072.23 114.429L1071.96 118.155L1075.42 118.402C1076.49 118.479 1077.14 118.496 1077.36 118.453L1077.14 122.065C1076.68 121.983 1076.08 121.915 1075.34 121.862L1071.71 121.603L1071.34 126.863L1077.3 127.29ZM1084.02 128.975C1083.19 128.064 1082.57 126.996 1082.13 125.771C1081.71 124.546 1081.55 123.228 1081.65 121.815C1081.76 120.393 1082.09 119.066 1082.66 117.834C1083.23 116.602 1083.99 115.535 1084.94 114.635C1085.9 113.734 1087.03 113.046 1088.32 112.571C1089.62 112.086 1091.05 111.9 1092.61 112.011C1095.3 112.204 1097.5 113.213 1099.22 115.04C1101.06 116.993 1101.87 119.508 1101.65 122.586C1101.43 125.567 1100.24 127.973 1098.07 129.805C1096.74 130.934 1095.19 131.665 1093.44 131.999C1092.57 132.163 1091.57 132.204 1090.43 132.122C1089.3 132.041 1088.16 131.724 1086.99 131.171C1085.84 130.618 1084.85 129.886 1084.02 128.975ZM1085.73 121.902C1085.67 122.808 1085.76 123.651 1086 124.433C1086.25 125.214 1086.62 125.897 1087.12 126.48C1088.18 127.711 1089.6 128.391 1091.4 128.519C1093.1 128.642 1094.51 128.189 1095.62 127.162C1096.75 126.098 1097.39 124.582 1097.53 122.615C1097.66 120.764 1097.27 119.184 1096.36 117.875C1095.37 116.473 1093.94 115.705 1092.06 115.57C1090.24 115.439 1088.74 116.008 1087.57 117.275C1086.48 118.46 1085.87 120.002 1085.73 121.902ZM1119.98 122.724L1120.74 118.637L1116.76 121.275L1115.09 118.35L1119.45 116.709L1115.42 113.924L1117.91 111.458L1120.97 114.864L1120.7 110.352L1124.27 110.607L1123.32 115.209L1126.86 112.511L1128.88 115.314L1124.3 117.13L1128.72 119.649L1126.56 122.226L1123.07 118.951L1123.29 123.475L1119.88 123.231C1119.88 123.221 1119.92 123.052 1119.98 122.724ZM1143.14 115.894C1144.51 115.816 1145.9 115.828 1147.33 115.93C1149.98 116.119 1151.94 116.887 1153.23 118.232C1154.52 119.568 1155.08 121.473 1154.9 123.947C1154.74 126.158 1153.86 127.853 1152.26 129.03C1150.76 130.137 1148.9 130.611 1146.68 130.452C1146.43 130.434 1146.15 130.399 1145.85 130.348L1145.47 135.696L1141.74 135.429L1143.14 115.894ZM1147.51 119.482C1147.22 119.461 1146.93 119.45 1146.63 119.449L1146.08 127.134C1146.39 127.195 1146.77 127.242 1147.22 127.274C1147.67 127.306 1148.14 127.247 1148.64 127.097C1149.14 126.937 1149.57 126.698 1149.93 126.381C1150.67 125.72 1151.08 124.809 1151.16 123.65C1151.35 121.059 1150.13 119.67 1147.51 119.482ZM1163.84 129.419C1163.54 129.417 1163.23 129.405 1162.9 129.381C1162.57 129.357 1162.08 129.298 1161.43 129.202L1160.88 136.8L1157.01 136.523L1158.41 116.988C1159.79 116.91 1161.47 116.942 1163.46 117.085C1166.16 117.279 1168.14 117.925 1169.4 119.023C1170.66 120.112 1171.22 121.699 1171.07 123.783C1170.95 125.4 1170.24 126.74 1168.94 127.802C1168.52 128.144 1168.04 128.432 1167.5 128.668L1170.03 135.164C1170.52 136.501 1170.92 137.303 1171.21 137.569L1171.13 137.637C1170.2 137.413 1168.71 137.312 1166.68 137.332L1163.84 129.419ZM1163.49 120.553C1162.99 120.517 1162.51 120.507 1162.05 120.523L1161.65 126.105C1162.12 126.207 1162.68 126.281 1163.32 126.327C1163.97 126.373 1164.51 126.358 1164.96 126.283C1165.4 126.197 1165.8 126.049 1166.13 125.838C1166.86 125.372 1167.26 124.622 1167.34 123.589C1167.41 122.557 1167.1 121.805 1166.41 121.335C1165.77 120.907 1164.79 120.646 1163.49 120.553ZM1176.22 135.577C1175.39 134.667 1174.76 133.598 1174.33 132.373C1173.91 131.148 1173.75 129.83 1173.85 128.418C1173.95 126.995 1174.29 125.668 1174.85 124.436C1175.42 123.204 1176.18 122.138 1177.14 121.237C1178.1 120.336 1179.22 119.648 1180.52 119.173C1181.82 118.688 1183.24 118.502 1184.8 118.613C1187.49 118.806 1189.7 119.815 1191.41 121.642C1193.25 123.595 1194.06 126.11 1193.84 129.188C1193.63 132.169 1192.44 134.575 1190.27 136.408C1188.94 137.536 1187.39 138.267 1185.63 138.602C1184.77 138.765 1183.77 138.806 1182.63 138.724C1181.5 138.643 1180.35 138.326 1179.19 137.773C1178.03 137.22 1177.04 136.488 1176.22 135.577ZM1177.93 128.504C1177.86 129.41 1177.95 130.253 1178.2 131.035C1178.45 131.816 1178.82 132.499 1179.32 133.083C1180.37 134.314 1181.8 134.993 1183.59 135.122C1185.3 135.244 1186.7 134.791 1187.82 133.765C1188.95 132.7 1189.59 131.184 1189.73 129.217C1189.86 127.366 1189.47 125.786 1188.55 124.477C1187.57 123.075 1186.13 122.307 1184.25 122.172C1182.43 122.042 1180.94 122.61 1179.77 123.878C1178.68 125.062 1178.06 126.604 1177.93 128.504ZM1201.61 140.083C1200.03 139.97 1198.55 139.737 1197.18 139.384L1198.58 119.835C1199.88 119.771 1201.37 119.8 1203.07 119.921C1204.77 120.043 1206.29 120.387 1207.63 120.953C1208.98 121.51 1210.09 122.25 1210.96 123.174C1212.7 125.022 1213.47 127.49 1213.24 130.578C1213 134.036 1211.77 136.586 1209.55 138.229C1207.57 139.703 1204.92 140.321 1201.61 140.083ZM1201.21 136.471C1201.83 136.633 1202.46 136.737 1203.09 136.783C1203.73 136.828 1204.42 136.755 1205.16 136.564C1205.91 136.363 1206.57 136.019 1207.15 135.531C1208.38 134.503 1209.07 132.927 1209.22 130.804C1209.47 127.316 1208.35 125.082 1205.87 124.102C1205.05 123.779 1204.09 123.578 1202.99 123.499L1202.59 123.471C1202.45 123.46 1202.29 123.454 1202.14 123.453L1201.21 136.471ZM1229.3 122.094C1229.9 122.186 1230.4 122.246 1230.8 122.275L1232.01 122.361C1232.42 122.391 1232.85 122.382 1233.31 122.337L1232.44 134.42C1232.27 136.816 1231.41 138.688 1229.85 140.035C1228.38 141.31 1226.61 141.874 1224.53 141.725C1222.26 141.563 1220.47 140.842 1219.15 139.563C1217.68 138.126 1217.03 136.16 1217.21 133.667L1218.1 121.291C1218.9 121.398 1219.66 121.477 1220.37 121.527C1221.09 121.579 1221.69 121.583 1222.16 121.538L1221.26 134.148C1221.17 135.375 1221.48 136.356 1222.18 137.092C1222.83 137.765 1223.69 138.14 1224.74 138.215C1226.3 138.327 1227.39 137.602 1228.02 136.042C1228.25 135.48 1228.39 134.776 1228.45 133.929L1229.3 122.094ZM1246.94 123.063C1248.76 123.194 1250.3 123.622 1251.54 124.347L1251.22 128.818L1251.18 128.845C1250.7 127.968 1249.59 127.331 1247.86 126.932C1247.35 126.808 1246.7 126.717 1245.91 126.661C1245.12 126.604 1244.33 126.7 1243.55 126.947C1242.77 127.185 1242.12 127.559 1241.59 128.07C1240.57 129.064 1239.99 130.545 1239.85 132.512C1239.69 134.801 1240.16 136.549 1241.28 137.755C1242.21 138.761 1243.49 139.323 1245.12 139.44C1246.98 139.573 1248.5 139.286 1249.71 138.579C1250.15 138.326 1250.53 138.001 1250.85 137.603L1250.89 137.636L1250.6 141.727C1249.02 142.857 1246.97 143.332 1244.45 143.151C1241.48 142.938 1239.22 141.827 1237.67 139.817C1236.18 137.899 1235.54 135.454 1235.75 132.483C1235.98 129.337 1237.04 126.922 1238.95 125.237C1240.87 123.544 1243.53 122.819 1246.94 123.063ZM1261.18 144.071C1260.72 143.979 1259.52 143.863 1257.58 143.724L1257.11 143.691L1258.27 127.531L1255.38 127.324C1254.52 127.263 1254.01 127.27 1253.85 127.347C1253.69 127.423 1253.56 127.492 1253.47 127.554L1253.42 127.537L1253.69 123.796L1253.74 123.755C1254.05 123.886 1254.91 124.001 1256.33 124.102L1265.49 124.758C1266.35 124.82 1266.85 124.812 1267.02 124.736C1267.18 124.659 1267.31 124.59 1267.4 124.528L1267.44 124.546L1267.17 128.286L1267.13 128.327C1266.81 128.197 1265.95 128.081 1264.54 127.98L1262.35 127.823L1261.18 144.071ZM1280.22 125.711C1281.59 125.632 1282.98 125.644 1284.41 125.746C1287.06 125.936 1289.02 126.703 1290.31 128.048C1291.6 129.385 1292.16 131.29 1291.98 133.764C1291.82 135.975 1290.94 137.669 1289.34 138.847C1287.84 139.954 1285.98 140.427 1283.76 140.268C1283.51 140.25 1283.23 140.216 1282.93 140.165L1282.55 145.513L1278.82 145.246L1280.22 125.711ZM1284.59 129.299C1284.3 129.278 1284.01 129.267 1283.71 129.265L1283.16 136.951C1283.47 137.012 1283.85 137.059 1284.3 137.091C1284.75 137.123 1285.22 137.064 1285.72 136.913C1286.22 136.753 1286.65 136.515 1287.01 136.198C1287.75 135.536 1288.16 134.626 1288.24 133.467C1288.43 130.876 1287.21 129.486 1284.59 129.299ZM1300.92 139.235C1300.62 139.234 1300.31 139.221 1299.98 139.197C1299.65 139.174 1299.16 139.114 1298.51 139.019L1297.96 146.616L1294.09 146.339L1295.49 126.804C1296.87 126.727 1298.55 126.759 1300.54 126.901C1303.24 127.095 1305.23 127.741 1306.48 128.839C1307.74 129.928 1308.3 131.515 1308.15 133.6C1308.03 135.217 1307.33 136.556 1306.03 137.618C1305.6 137.96 1305.12 138.249 1304.58 138.484L1307.11 144.981C1307.61 146.318 1308 147.12 1308.29 147.385L1308.21 147.453C1307.28 147.23 1305.79 147.128 1303.76 147.149L1300.92 139.235ZM1300.57 130.369C1300.07 130.334 1299.59 130.324 1299.13 130.34L1298.73 135.921C1299.2 136.024 1299.76 136.098 1300.4 136.144C1301.05 136.19 1301.59 136.175 1302.04 136.099C1302.48 136.014 1302.88 135.866 1303.21 135.655C1303.94 135.188 1304.34 134.438 1304.42 133.406C1304.49 132.373 1304.18 131.622 1303.49 131.151C1302.85 130.723 1301.87 130.463 1300.57 130.369ZM1313.3 145.394C1312.47 144.483 1311.84 143.415 1311.41 142.19C1310.99 140.965 1310.83 139.646 1310.93 138.234C1311.03 136.812 1311.37 135.485 1311.94 134.253C1312.5 133.021 1313.26 131.954 1314.22 131.053C1315.18 130.152 1316.3 129.464 1317.6 128.99C1318.9 128.505 1320.32 128.318 1321.88 128.43C1324.57 128.622 1326.78 129.632 1328.5 131.459C1330.33 133.411 1331.14 135.927 1330.92 139.005C1330.71 141.985 1329.52 144.392 1327.35 146.224C1326.02 147.352 1324.47 148.084 1322.71 148.418C1321.85 148.581 1320.85 148.622 1319.71 148.541C1318.58 148.46 1317.43 148.143 1316.27 147.589C1315.11 147.037 1314.12 146.305 1313.3 145.394ZM1315.01 138.32C1314.94 139.226 1315.03 140.07 1315.28 140.851C1315.53 141.633 1315.9 142.315 1316.4 142.899C1317.45 144.13 1318.88 144.81 1320.67 144.938C1322.38 145.06 1323.78 144.608 1324.9 143.581C1326.03 142.517 1326.67 141.001 1326.81 139.033C1326.94 137.183 1326.55 135.603 1325.63 134.294C1324.65 132.892 1323.21 132.123 1321.33 131.989C1319.51 131.858 1318.02 132.427 1316.85 133.694C1315.76 134.879 1315.14 136.421 1315.01 138.32ZM1337.92 149.566C1337.46 149.474 1336.56 149.38 1335.22 149.285L1334.05 149.201L1335.45 129.71C1336.07 129.793 1336.76 129.862 1337.51 129.916C1338.26 129.969 1338.79 129.968 1339.11 129.913L1343.42 138.607L1348.74 130.602C1349.04 130.703 1349.63 130.784 1350.51 130.847C1351.39 130.91 1352.14 130.944 1352.76 130.95L1351.37 150.441L1350.2 150.357C1348.86 150.261 1347.96 150.226 1347.49 150.251L1348.43 137.16L1343.04 145.365L1338.81 137.161L1337.92 149.566ZM1358.24 148.612C1357.41 147.702 1356.79 146.633 1356.35 145.408C1355.93 144.183 1355.77 142.865 1355.87 141.453C1355.98 140.03 1356.31 138.703 1356.88 137.471C1357.45 136.239 1358.21 135.173 1359.16 134.272C1360.12 133.371 1361.25 132.683 1362.54 132.208C1363.84 131.723 1365.27 131.537 1366.83 131.648C1369.52 131.841 1371.72 132.85 1373.44 134.677C1375.28 136.63 1376.09 139.145 1375.87 142.223C1375.65 145.204 1374.46 147.61 1372.29 149.443C1370.96 150.571 1369.41 151.302 1367.66 151.637C1366.79 151.8 1365.79 151.841 1364.65 151.759C1363.52 151.678 1362.38 151.361 1361.21 150.808C1360.06 150.255 1359.07 149.523 1358.24 148.612ZM1359.95 141.539C1359.89 142.445 1359.98 143.288 1360.22 144.07C1360.47 144.851 1360.84 145.534 1361.34 146.118C1362.4 147.349 1363.82 148.028 1365.62 148.157C1367.32 148.279 1368.73 147.826 1369.84 146.8C1370.97 145.735 1371.61 144.219 1371.75 142.252C1371.88 140.401 1371.49 138.821 1370.58 137.512C1369.59 136.11 1368.16 135.342 1366.28 135.207C1364.46 135.077 1362.96 135.645 1361.79 136.913C1360.7 138.097 1360.09 139.639 1359.95 141.539ZM1397.17 153.779C1396.86 153.718 1396.35 153.662 1395.64 153.611L1394.03 153.496C1393.77 153.477 1393.53 153.47 1393.31 153.474L1393.3 153.444C1393.35 153.378 1393.37 153.302 1393.38 153.214C1393.38 153.126 1393.38 153.033 1393.37 152.934C1393.36 152.836 1393.34 152.658 1393.29 152.4C1393.24 152.142 1393.16 151.769 1393.05 151.281L1392.57 149.279L1388.24 133.49C1388.84 133.572 1389.61 133.647 1390.54 133.714C1391.48 133.781 1392.08 133.785 1392.35 133.726L1395.8 147.322L1400.6 134.375C1401.18 134.456 1401.9 134.527 1402.76 134.589C1403.93 134.672 1404.61 134.682 1404.81 134.618L1398.38 149.651C1398.38 149.651 1398.16 150.208 1397.74 151.324C1397.39 152.278 1397.2 152.901 1397.18 153.193C1397.16 153.475 1397.17 153.657 1397.2 153.738L1397.17 153.779ZM1408.15 134.916C1409.13 135.025 1409.71 135.087 1409.92 135.101L1410.97 135.177C1411.49 135.214 1411.9 135.204 1412.22 135.149L1410.81 154.697L1406.76 154.407L1408.15 134.916ZM1421.01 155.795C1419.43 155.682 1417.95 155.449 1416.58 155.096L1417.98 135.546C1419.27 135.482 1420.77 135.511 1422.47 135.633C1424.17 135.755 1425.69 136.099 1427.03 136.665C1428.38 137.221 1429.49 137.962 1430.35 138.885C1432.1 140.733 1432.86 143.201 1432.64 146.289C1432.4 149.747 1431.17 152.298 1428.95 153.941C1426.97 155.414 1424.32 156.032 1421.01 155.795ZM1420.6 152.183C1421.23 152.345 1421.86 152.449 1422.49 152.494C1423.12 152.539 1423.82 152.466 1424.56 152.275C1425.31 152.074 1425.97 151.73 1426.55 151.242C1427.78 150.214 1428.47 148.638 1428.62 146.515C1428.87 143.028 1427.75 140.794 1425.27 139.813C1424.45 139.49 1423.49 139.289 1422.39 139.21L1421.99 139.182C1421.85 139.172 1421.69 139.166 1421.54 139.164L1420.6 152.183ZM1446.25 153.711C1446.86 153.754 1447.28 153.726 1447.52 153.626L1447.58 153.644L1447.17 157.301L1436.23 156.518L1437.63 136.983C1437.89 137.021 1438.18 137.057 1438.5 137.089L1439.52 137.192C1440.2 137.26 1440.94 137.323 1441.74 137.38C1443.97 137.54 1446.18 137.659 1448.37 137.737C1448.2 138.587 1448.06 139.727 1447.96 141.159C1447.95 141.315 1447.95 141.433 1447.97 141.512L1447.93 141.554C1447.44 141.371 1446.72 141.247 1445.79 141.18L1441.18 140.85L1440.92 144.576L1444.38 144.824C1445.45 144.901 1446.1 144.918 1446.31 144.874L1446.1 148.486C1445.64 148.404 1445.03 148.337 1444.29 148.284L1440.67 148.024L1440.29 153.284L1446.25 153.711ZM1452.98 155.397C1452.15 154.486 1451.52 153.418 1451.09 152.192C1450.67 150.968 1450.51 149.649 1450.61 148.237C1450.71 146.815 1451.05 145.488 1451.62 144.255C1452.18 143.023 1452.95 141.957 1453.9 141.056C1454.86 140.155 1455.98 139.467 1457.28 138.992C1458.58 138.508 1460.01 138.321 1461.56 138.433C1464.25 138.625 1466.46 139.635 1468.18 141.461C1470.01 143.414 1470.82 145.929 1470.6 149.008C1470.39 151.988 1469.2 154.395 1467.03 156.227C1465.7 157.355 1464.15 158.087 1462.4 158.421C1461.53 158.584 1460.53 158.625 1459.39 158.543C1458.26 158.463 1457.11 158.145 1455.95 157.592C1454.79 157.039 1453.8 156.308 1452.98 155.397ZM1454.69 148.323C1454.62 149.229 1454.71 150.073 1454.96 150.854C1455.21 151.635 1455.58 152.318 1456.08 152.902C1457.14 154.133 1458.56 154.813 1460.35 154.941C1462.06 155.063 1463.47 154.611 1464.58 153.584C1465.71 152.52 1466.35 151.004 1466.49 149.036C1466.62 147.185 1466.23 145.605 1465.32 144.297C1464.33 142.894 1462.9 142.126 1461.02 141.991C1459.19 141.861 1457.7 142.429 1456.53 143.697C1455.44 144.882 1454.82 146.424 1454.69 148.323ZM1488.94 149.145L1489.7 145.059L1485.72 147.696L1484.05 144.772L1488.41 143.131L1484.38 140.346L1486.86 137.88L1489.92 141.286L1489.66 136.773L1493.23 137.028L1492.28 141.631L1495.82 138.932L1497.84 141.735L1493.26 143.551L1497.67 146.07L1495.52 148.648L1492.03 145.372L1492.25 149.896L1488.84 149.653C1488.84 149.643 1488.87 149.474 1488.94 149.145ZM1512.1 142.316C1513.47 142.237 1514.86 142.249 1516.28 142.351C1518.93 142.541 1520.9 143.308 1522.18 144.653C1523.48 145.989 1524.04 147.895 1523.86 150.369C1523.7 152.58 1522.82 154.274 1521.22 155.452C1519.72 156.559 1517.86 157.032 1515.64 156.873C1515.39 156.855 1515.11 156.821 1514.81 156.77L1514.43 162.118L1510.7 161.851L1512.1 142.316ZM1516.47 145.904C1516.18 145.883 1515.88 145.872 1515.59 145.87L1515.04 153.556C1515.35 153.617 1515.73 153.663 1516.18 153.696C1516.62 153.728 1517.1 153.669 1517.6 153.518C1518.1 153.358 1518.53 153.12 1518.88 152.803C1519.63 152.141 1520.04 151.231 1520.12 150.072C1520.31 147.481 1519.09 146.091 1516.47 145.904ZM1532.79 155.84C1532.5 155.839 1532.19 155.826 1531.86 155.802C1531.52 155.779 1531.03 155.719 1530.39 155.624L1529.84 163.221L1525.97 162.944L1527.37 143.409C1528.74 143.332 1530.43 143.364 1532.41 143.506C1535.12 143.7 1537.1 144.346 1538.35 145.444C1539.62 146.533 1540.18 148.12 1540.03 150.205C1539.91 151.822 1539.2 153.161 1537.9 154.223C1537.48 154.565 1537 154.854 1536.46 155.089L1538.99 161.586C1539.48 162.923 1539.88 163.725 1540.17 163.99L1540.09 164.058C1539.16 163.835 1537.67 163.733 1535.63 163.754L1532.79 155.84ZM1532.44 146.974C1531.95 146.939 1531.47 146.929 1531.01 146.945L1530.61 152.526C1531.08 152.629 1531.64 152.703 1532.28 152.749C1532.92 152.795 1533.47 152.78 1533.91 152.704C1534.36 152.619 1534.75 152.471 1535.09 152.26C1535.82 151.793 1536.22 151.043 1536.29 150.011C1536.37 148.978 1536.06 148.227 1535.37 147.756C1534.72 147.328 1533.75 147.068 1532.44 146.974ZM1545.17 161.999C1544.35 161.088 1543.72 160.02 1543.29 158.795C1542.87 157.57 1542.71 156.251 1542.81 154.839C1542.91 153.417 1543.24 152.09 1543.81 150.858C1544.38 149.626 1545.14 148.559 1546.1 147.658C1547.05 146.757 1548.18 146.069 1549.48 145.594C1550.77 145.11 1552.2 144.923 1553.76 145.035C1556.45 145.227 1558.65 146.237 1560.37 148.064C1562.21 150.016 1563.02 152.532 1562.8 155.61C1562.59 158.59 1561.39 160.997 1559.23 162.829C1557.89 163.957 1556.35 164.689 1554.59 165.023C1553.73 165.186 1552.73 165.227 1551.59 165.146C1550.46 165.065 1549.31 164.748 1548.14 164.194C1546.99 163.642 1546 162.91 1545.17 161.999ZM1546.88 154.925C1546.82 155.831 1546.91 156.675 1547.16 157.456C1547.41 158.238 1547.78 158.92 1548.27 159.504C1549.33 160.735 1550.76 161.415 1552.55 161.543C1554.25 161.665 1555.66 161.213 1556.77 160.186C1557.91 159.122 1558.54 157.606 1558.68 155.638C1558.82 153.788 1558.43 152.208 1557.51 150.899C1556.52 149.497 1555.09 148.728 1553.21 148.594C1551.39 148.463 1549.9 149.032 1548.73 150.299C1547.63 151.484 1547.02 153.026 1546.88 154.925ZM1570.57 166.505C1568.99 166.392 1567.51 166.159 1566.14 165.806L1567.54 146.256C1568.83 146.193 1570.33 146.221 1572.02 146.343C1573.73 146.465 1575.25 146.809 1576.59 147.375C1577.94 147.932 1579.05 148.672 1579.91 149.595C1581.66 151.443 1582.42 153.911 1582.2 156.999C1581.95 160.457 1580.72 163.008 1578.51 164.651C1576.53 166.124 1573.88 166.742 1570.57 166.505ZM1570.16 162.893C1570.79 163.055 1571.42 163.159 1572.05 163.204C1572.68 163.249 1573.37 163.176 1574.12 162.985C1574.87 162.784 1575.53 162.44 1576.11 161.952C1577.33 160.924 1578.02 159.348 1578.18 157.225C1578.43 153.738 1577.31 151.504 1574.82 150.523C1574 150.2 1573.04 149.999 1571.94 149.92L1571.55 149.892C1571.4 149.882 1571.25 149.876 1571.1 149.874L1570.16 162.893ZM1598.26 148.515C1598.86 148.607 1599.36 148.667 1599.76 148.696L1600.97 148.783C1601.38 148.812 1601.81 148.804 1602.27 148.758L1601.4 160.841C1601.23 163.238 1600.37 165.109 1598.81 166.457C1597.34 167.732 1595.57 168.295 1593.49 168.147C1591.22 167.984 1589.43 167.263 1588.11 165.984C1586.64 164.547 1585.99 162.582 1586.17 160.088L1587.05 147.713C1587.86 147.819 1588.62 147.898 1589.33 147.949C1590.05 148.001 1590.64 148.004 1591.12 147.96L1590.21 160.569C1590.13 161.796 1590.43 162.778 1591.13 163.513C1591.79 164.187 1592.65 164.561 1593.7 164.637C1595.26 164.748 1596.35 164.024 1596.98 162.463C1597.21 161.902 1597.35 161.198 1597.41 160.35L1598.26 148.515ZM1615.9 149.485C1617.72 149.615 1619.25 150.043 1620.49 150.768L1620.17 155.239L1620.14 155.266C1619.66 154.39 1618.55 153.752 1616.81 153.354C1616.3 153.229 1615.65 153.139 1614.87 153.082C1614.08 153.026 1613.29 153.121 1612.51 153.369C1611.73 153.606 1611.08 153.981 1610.55 154.491C1609.53 155.485 1608.95 156.966 1608.81 158.934C1608.64 161.223 1609.12 162.97 1610.24 164.176C1611.16 165.183 1612.45 165.744 1614.08 165.862C1615.93 165.994 1617.46 165.707 1618.67 165C1619.11 164.748 1619.49 164.423 1619.81 164.025L1619.85 164.057L1619.56 168.148C1617.98 169.278 1615.93 169.753 1613.41 169.573C1610.43 169.36 1608.17 168.248 1606.62 166.238C1605.14 164.32 1604.5 161.876 1604.71 158.905C1604.94 155.759 1606 153.343 1607.9 151.658C1609.83 149.965 1612.49 149.241 1615.9 149.485ZM1630.14 170.492C1629.68 170.4 1628.48 170.285 1626.54 170.146L1626.07 170.112L1627.23 153.953L1624.33 153.745C1623.48 153.684 1622.97 153.692 1622.81 153.768C1622.64 153.845 1622.52 153.914 1622.42 153.976L1622.38 153.958L1622.65 150.218L1622.7 150.177C1623.01 150.307 1623.87 150.423 1625.28 150.524L1634.45 151.18C1635.3 151.241 1635.81 151.234 1635.97 151.157C1636.14 151.081 1636.26 151.012 1636.36 150.95L1636.4 150.967L1636.13 154.708L1636.08 154.748C1635.77 154.618 1634.91 154.503 1633.5 154.402L1631.3 154.245L1630.14 170.492ZM1649.18 152.132C1650.55 152.054 1651.94 152.066 1653.36 152.168C1656.01 152.357 1657.98 153.125 1659.26 154.47C1660.56 155.806 1661.12 157.711 1660.94 160.185C1660.78 162.396 1659.9 164.091 1658.3 165.268C1656.8 166.375 1654.94 166.849 1652.72 166.69C1652.47 166.672 1652.19 166.637 1651.89 166.586L1651.51 171.934L1647.78 171.667L1649.18 152.132ZM1653.55 155.72C1653.26 155.699 1652.96 155.688 1652.67 155.687L1652.12 163.372C1652.43 163.433 1652.81 163.48 1653.26 163.512C1653.7 163.544 1654.18 163.485 1654.68 163.335C1655.18 163.175 1655.61 162.936 1655.96 162.619C1656.71 161.958 1657.12 161.047 1657.2 159.888C1657.39 157.297 1656.17 155.908 1653.55 155.72ZM1669.87 165.657C1669.58 165.655 1669.27 165.643 1668.94 165.619C1668.61 165.595 1668.12 165.536 1667.47 165.44L1666.92 173.038L1663.05 172.761L1664.45 153.226C1665.83 153.148 1667.51 153.18 1669.49 153.323C1672.2 153.517 1674.18 154.163 1675.44 155.261C1676.7 156.35 1677.26 157.937 1677.11 160.021C1676.99 161.638 1676.28 162.978 1674.98 164.04C1674.56 164.381 1674.08 164.67 1673.54 164.906L1676.07 171.402C1676.56 172.739 1676.96 173.541 1677.25 173.807L1677.17 173.875C1676.24 173.651 1674.75 173.55 1672.71 173.57L1669.87 165.657ZM1669.52 156.791C1669.03 156.755 1668.55 156.745 1668.09 156.761L1667.69 162.343C1668.16 162.445 1668.72 162.519 1669.36 162.565C1670 162.611 1670.55 162.596 1670.99 162.521C1671.44 162.435 1671.83 162.287 1672.17 162.076C1672.9 161.61 1673.3 160.86 1673.38 159.827C1673.45 158.795 1673.14 158.043 1672.45 157.573C1671.81 157.145 1670.83 156.884 1669.52 156.791ZM1682.25 171.815C1681.43 170.905 1680.8 169.836 1680.37 168.611C1679.95 167.386 1679.79 166.068 1679.89 164.656C1679.99 163.233 1680.32 161.906 1680.89 160.674C1681.46 159.442 1682.22 158.376 1683.18 157.475C1684.13 156.574 1685.26 155.886 1686.56 155.411C1687.85 154.926 1689.28 154.74 1690.84 154.851C1693.53 155.044 1695.73 156.053 1697.45 157.88C1699.29 159.833 1700.1 162.348 1699.88 165.426C1699.67 168.407 1698.48 170.813 1696.31 172.646C1694.97 173.774 1693.43 174.505 1691.67 174.84C1690.81 175.003 1689.81 175.044 1688.67 174.962C1687.54 174.881 1686.39 174.564 1685.22 174.011C1684.07 173.458 1683.08 172.726 1682.25 171.815ZM1683.96 164.742C1683.9 165.648 1683.99 166.491 1684.24 167.273C1684.49 168.054 1684.86 168.737 1685.35 169.321C1686.41 170.552 1687.84 171.231 1689.63 171.36C1691.33 171.482 1692.74 171.029 1693.85 170.003C1694.99 168.938 1695.62 167.422 1695.77 165.455C1695.9 163.604 1695.51 162.024 1694.59 160.715C1693.61 159.313 1692.17 158.545 1690.29 158.41C1688.47 158.28 1686.98 158.848 1685.81 160.116C1684.72 161.3 1684.1 162.842 1683.96 164.742ZM1706.88 175.987C1706.41 175.895 1705.51 175.802 1704.18 175.706L1703.01 175.622L1704.41 156.131C1705.03 156.215 1705.71 156.283 1706.46 156.337C1707.21 156.391 1707.75 156.39 1708.06 156.334L1712.38 165.029L1717.69 157.024C1718 157.124 1718.59 157.206 1719.47 157.268C1720.34 157.331 1721.1 157.365 1721.72 157.371L1720.33 176.862L1719.16 176.779C1717.82 176.683 1716.92 176.648 1716.45 176.673L1717.38 163.581L1711.99 171.786L1707.77 163.583L1706.88 175.987ZM1727.2 175.034C1726.37 174.123 1725.74 173.055 1725.31 171.83C1724.89 170.605 1724.73 169.286 1724.83 167.874C1724.93 166.452 1725.27 165.125 1725.84 163.893C1726.4 162.661 1727.17 161.594 1728.12 160.693C1729.08 159.792 1730.2 159.104 1731.5 158.629C1732.8 158.145 1734.23 157.958 1735.78 158.07C1738.47 158.262 1740.68 159.272 1742.4 161.099C1744.23 163.051 1745.04 165.567 1744.82 168.645C1744.61 171.625 1743.42 174.032 1741.25 175.864C1739.92 176.992 1738.37 177.724 1736.61 178.058C1735.75 178.221 1734.75 178.262 1733.61 178.181C1732.48 178.1 1731.33 177.783 1730.17 177.229C1729.01 176.677 1728.02 175.945 1727.2 175.034ZM1728.91 167.96C1728.84 168.866 1728.93 169.71 1729.18 170.491C1729.43 171.273 1729.8 171.955 1730.3 172.539C1731.36 173.77 1732.78 174.45 1734.57 174.578C1736.28 174.7 1737.69 174.248 1738.8 173.221C1739.93 172.157 1740.57 170.641 1740.71 168.673C1740.84 166.822 1740.45 165.243 1739.54 163.934C1738.55 162.532 1737.12 161.763 1735.24 161.629C1733.41 161.498 1731.92 162.067 1730.75 163.334C1729.66 164.519 1729.04 166.061 1728.91 167.96ZM1766.13 180.201C1765.82 180.14 1765.31 180.083 1764.6 180.033L1762.99 179.917C1762.73 179.899 1762.49 179.891 1762.27 179.895L1762.26 179.865C1762.3 179.8 1762.33 179.723 1762.33 179.636C1762.34 179.548 1762.34 179.455 1762.32 179.356C1762.32 179.258 1762.3 179.08 1762.25 178.821C1762.2 178.563 1762.11 178.19 1762 177.703L1761.53 175.701L1757.2 159.912C1757.8 159.994 1758.57 160.068 1759.5 160.135C1760.44 160.202 1761.04 160.206 1761.31 160.147L1764.75 173.743L1769.56 160.797C1770.14 160.878 1770.86 160.949 1771.72 161.01C1772.88 161.094 1773.57 161.104 1773.77 161.04L1767.33 176.072C1767.33 176.072 1767.12 176.63 1766.7 177.745C1766.35 178.699 1766.16 179.322 1766.14 179.614C1766.12 179.897 1766.13 180.078 1766.16 180.159L1766.13 180.201ZM1777.11 161.338C1778.08 161.446 1778.67 161.508 1778.88 161.523L1779.93 161.598C1780.44 161.635 1780.86 161.626 1781.18 161.57L1779.76 181.119L1775.72 180.829L1777.11 161.338ZM1789.96 182.216C1788.39 182.103 1786.91 181.87 1785.54 181.517L1786.94 161.968C1788.23 161.904 1789.73 161.933 1791.42 162.054C1793.13 162.176 1794.65 162.52 1795.99 163.086C1797.34 163.643 1798.45 164.383 1799.31 165.307C1801.06 167.155 1801.82 169.623 1801.6 172.711C1801.35 176.169 1800.12 178.719 1797.91 180.362C1795.93 181.835 1793.28 182.453 1789.96 182.216ZM1789.56 178.604C1790.19 178.766 1790.82 178.87 1791.45 178.915C1792.08 178.961 1792.77 178.888 1793.52 178.697C1794.27 178.496 1794.93 178.151 1795.5 177.664C1796.73 176.636 1797.42 175.06 1797.58 172.936C1797.83 169.449 1796.71 167.215 1794.22 166.234C1793.4 165.912 1792.44 165.711 1791.34 165.632L1790.95 165.604C1790.8 165.593 1790.65 165.587 1790.49 165.586L1789.56 178.604ZM1815.21 180.133C1815.82 180.176 1816.24 180.147 1816.48 180.047L1816.54 180.066L1816.13 183.723L1805.19 182.939L1806.59 163.404C1806.85 163.443 1807.14 163.478 1807.46 163.511L1808.48 163.613C1809.16 163.682 1809.9 163.744 1810.7 163.802C1812.93 163.961 1815.14 164.08 1817.33 164.159C1817.16 165.008 1817.02 166.149 1816.92 167.581C1816.91 167.737 1816.91 167.854 1816.92 167.934L1816.89 167.975C1816.39 167.793 1815.68 167.668 1814.74 167.601L1810.14 167.272L1809.87 170.997L1813.34 171.245C1814.41 171.322 1815.05 171.339 1815.27 171.296L1815.06 174.908C1814.59 174.826 1813.99 174.758 1813.25 174.705L1809.63 174.446L1809.25 179.706L1815.21 180.133ZM1821.94 181.818C1821.11 180.907 1820.48 179.839 1820.05 178.614C1819.63 177.389 1819.47 176.071 1819.57 174.658C1819.67 173.236 1820.01 171.909 1820.57 170.677C1821.14 169.445 1821.9 168.378 1822.86 167.477C1823.81 166.577 1824.94 165.889 1826.24 165.414C1827.54 164.929 1828.96 164.742 1830.52 164.854C1833.21 165.047 1835.41 166.056 1837.13 167.883C1838.97 169.836 1839.78 172.351 1839.56 175.429C1839.35 178.41 1838.16 180.816 1835.99 182.648C1834.65 183.777 1833.11 184.508 1831.35 184.842C1830.49 185.006 1829.49 185.047 1828.35 184.965C1827.22 184.884 1826.07 184.567 1824.91 184.014C1823.75 183.461 1822.76 182.729 1821.94 181.818ZM1823.65 174.745C1823.58 175.65 1823.67 176.494 1823.92 177.276C1824.17 178.057 1824.54 178.74 1825.04 179.323C1826.09 180.554 1827.52 181.234 1829.31 181.362C1831.02 181.485 1832.42 181.032 1833.53 180.005C1834.67 178.941 1835.31 177.425 1835.45 175.457C1835.58 173.607 1835.19 172.027 1834.27 170.718C1833.29 169.316 1831.85 168.547 1829.97 168.413C1828.15 168.282 1826.66 168.851 1825.49 170.118C1824.4 171.303 1823.78 172.845 1823.65 174.745Z" fill="black"/>
</svg>
