<svg width="1910" height="194" viewBox="0 0 1910 194" fill="none" xmlns="http://www.w3.org/2000/svg">
<rect x="4.87158" width="1898.04" height="89" transform="rotate(3.13776 4.87158 0)" fill="#D9FF47"/>
<path d="M44.6072 36.3809C46.4306 36.4809 47.9685 36.8831 49.2209 37.5874L48.9756 42.0631L48.9447 42.0908C48.4446 41.2223 47.3245 40.6034 45.5843 40.2342C45.0723 40.1181 44.4214 40.0384 43.6315 39.9951C42.8417 39.9518 42.0582 40.0604 41.2811 40.321C40.5045 40.5718 39.8574 40.9569 39.3399 41.4762C38.3358 42.4873 37.7798 43.9776 37.6718 45.9473C37.5462 48.2388 38.0523 49.9781 39.1902 51.1652C40.1335 52.1558 41.4242 52.696 43.0624 52.7858C44.9151 52.8874 46.4384 52.5748 47.6323 51.848C48.0671 51.5882 48.4422 51.2567 48.7578 50.8535L48.8 50.8851L48.5755 54.9805C47.0157 56.1371 44.9731 56.6462 42.4476 56.5078C39.4735 56.3447 37.1949 55.2711 35.6117 53.287C34.0919 51.3943 33.4135 48.9609 33.5766 45.9869C33.7492 42.8373 34.7726 40.4043 36.6467 38.6879C38.5409 36.9629 41.1943 36.1939 44.6072 36.3809ZM53.9006 54.4509C53.0598 53.5539 52.4135 52.4965 51.962 51.2785C51.5201 50.0611 51.338 48.7454 51.4155 47.3316C51.4935 45.9079 51.8062 44.5754 52.3535 43.3339C52.9007 42.0925 53.6445 41.0134 54.5848 40.0967C55.525 39.18 56.6396 38.4734 57.9285 37.9768C59.2179 37.4704 60.6427 37.26 62.2028 37.3455C64.8941 37.4931 67.1147 38.4657 68.8646 40.2634C70.7349 42.185 71.5856 44.6865 71.4167 47.7678C71.2531 50.7516 70.103 53.1777 67.9663 55.0459C66.6513 56.1964 65.1183 56.9534 63.3673 57.3171C62.5066 57.4949 61.5059 57.5525 60.365 57.49C59.2339 57.428 58.0815 57.1301 56.9078 56.5963C55.7438 56.063 54.7414 55.3479 53.9006 54.4509ZM55.4928 47.3497C55.4431 48.2565 55.5486 49.0985 55.8092 49.8757C56.0697 50.6528 56.4532 51.3291 56.9596 51.9046C58.0374 53.1177 59.4734 53.7735 61.2675 53.8718C62.974 53.9654 64.3742 53.4896 65.4682 52.4444C66.5838 51.3612 67.1957 49.8348 67.3036 47.8651C67.4052 46.0124 66.9877 44.4394 66.0513 43.1459C65.0416 41.7605 63.5958 41.0161 61.7139 40.913C59.8904 40.813 58.4055 41.4065 57.2592 42.6933C56.1859 43.8961 55.5971 45.4482 55.4928 47.3497ZM74.7775 57.9133C74.8542 57.585 74.9032 57.2258 74.9246 56.8357L75.9317 38.4649L78.857 38.6252L85.9403 51.2487L86.5545 40.0448C86.5839 39.5085 86.5533 39.1743 86.4628 39.0422L90.4119 39.2587C90.3418 39.646 90.2939 40.0738 90.2682 40.5418L89.2724 58.7079L86.2301 58.5411L79.2373 46.4068L78.595 58.1226L74.7775 57.9133ZM101.554 59.4692C101.089 59.385 99.8863 59.2897 97.9459 59.1834L97.4778 59.1577L98.3646 42.9808L95.4686 42.8221C94.6105 42.775 94.101 42.7911 93.9402 42.8703C93.7794 42.9495 93.6532 43.0208 93.5617 43.0843L93.5186 43.0673L93.7239 39.3229L93.7702 39.2814C94.0861 39.4063 94.951 39.5075 96.3649 39.585L105.536 40.0877C106.394 40.1348 106.903 40.1187 107.064 40.0395C107.225 39.9603 107.351 39.889 107.443 39.8255L107.486 39.8426L107.28 43.5869L107.234 43.6284C106.918 43.5035 106.053 43.4023 104.639 43.3248L102.445 43.2045L101.554 59.4692ZM110.957 60.014C110.123 59.89 109.145 59.7973 108.024 59.7358L106.868 59.6725L114.208 42.1916C114.535 41.4075 114.701 40.9521 114.708 40.8253C114.716 40.6888 114.715 40.6056 114.707 40.5759L114.724 40.5474C115.356 40.6114 116.028 40.6629 116.74 40.7019C117.325 40.734 118.027 40.7627 118.847 40.7881L118.86 40.8182C118.839 40.8561 118.826 40.9092 118.822 40.9775C118.812 41.1628 118.931 41.6632 119.18 42.4788L124.695 60.6937C124.501 60.6733 124.272 60.6559 124.009 60.6414C124.009 60.6414 123.756 60.6178 123.25 60.5705C123.006 60.5571 122.786 60.5451 122.591 60.5344L120.324 60.4101L119.18 56.1223L112.569 55.7599L110.957 60.014ZM118.232 52.5494L116.396 45.627L113.873 52.3105L118.232 52.5494ZM136.871 41.4388C138.694 41.5387 140.232 41.9409 141.485 42.6453L141.239 47.121L141.209 47.1486C140.708 46.2801 139.588 45.6612 137.848 45.292C137.336 45.1759 136.685 45.0962 135.895 45.0529C135.106 45.0096 134.322 45.1182 133.545 45.3788C132.768 45.6297 132.121 46.0147 131.604 46.5341C130.6 47.5451 130.044 49.0354 129.936 51.0051C129.81 53.2966 130.316 55.0359 131.454 56.223C132.397 57.2136 133.688 57.7538 135.326 57.8436C137.179 57.9452 138.702 57.6326 139.896 56.9059C140.331 56.6461 140.706 56.3145 141.022 55.9113L141.064 55.9429L140.839 60.0384C139.28 61.1949 137.237 61.704 134.711 61.5656C131.737 61.4025 129.459 60.3289 127.876 58.3448C126.356 56.4521 125.677 54.0187 125.84 51.0447C126.013 47.8951 127.036 45.4621 128.911 43.7457C130.805 42.0207 133.458 41.2517 136.871 41.4388ZM151.459 62.2049C150.994 62.1208 149.792 62.0255 147.851 61.9191L147.383 61.8935L148.27 45.7166L145.374 45.5578C144.516 45.5108 144.007 45.5269 143.846 45.6061C143.685 45.6853 143.559 45.7566 143.467 45.8201L143.424 45.803L143.629 42.0586L143.676 42.0172C143.992 42.1421 144.857 42.2433 146.27 42.3208L155.441 42.8235C156.299 42.8706 156.809 42.8545 156.97 42.7753C157.13 42.6961 157.257 42.6247 157.348 42.5613L157.391 42.5783L157.186 46.3227L157.14 46.3642C156.824 46.2393 155.959 46.1381 154.545 46.0606L152.351 45.9403L151.459 62.2049ZM173.341 63.4044C172.876 63.3203 171.975 63.2416 170.639 63.1683L169.469 63.1042L170.539 43.5925C171.161 43.6657 171.847 43.7229 172.598 43.764C173.349 43.8052 173.882 43.7953 174.199 43.7344L178.655 52.3556L183.838 44.2628C184.145 44.3579 184.738 44.4295 185.616 44.4777C186.493 44.5258 187.245 44.5474 187.871 44.5426L186.802 64.0543L185.632 63.9902C184.296 63.917 183.392 63.8968 182.921 63.9296L183.639 50.8243L178.387 59.1186L174.021 50.9866L173.341 63.4044ZM201.899 61.361C202.503 61.3942 202.926 61.3587 203.166 61.2545L203.224 61.2723L202.876 64.9355L191.921 64.335L192.993 44.7794C193.255 44.8133 193.547 44.844 193.868 44.8714L194.89 44.9567C195.572 45.0137 196.312 45.064 197.112 45.1079C199.345 45.2303 201.556 45.3124 203.744 45.3541C203.59 46.2063 203.474 47.3491 203.395 48.7825C203.386 48.9385 203.39 49.056 203.405 49.1351L203.373 49.1774C202.874 49.0033 202.157 48.8907 201.221 48.8393L196.613 48.5868L196.409 52.3165L199.875 52.5065C200.948 52.5653 201.593 52.5714 201.811 52.5246L201.657 56.1398C201.191 56.0654 200.588 56.0078 199.847 55.9672L196.22 55.7684L195.931 61.0339L201.899 61.361ZM222.031 54.8507L222.725 50.7517L218.792 53.4555L217.073 50.5592L221.407 48.8456L217.331 46.1282L219.771 43.6213L222.888 46.9757L222.549 42.4679L226.117 42.6636L225.248 47.2811L228.744 44.524L230.808 47.2925L226.259 49.185L230.717 51.6299L228.607 54.243L225.058 51.0263L225.353 55.5463L221.945 55.3595C221.945 55.3497 221.974 55.1801 222.031 54.8507ZM254.088 47.8645C255.911 47.9644 257.449 48.3666 258.701 49.071L258.456 53.5467L258.425 53.5743C257.925 52.7058 256.805 52.0869 255.065 51.7177C254.553 51.6016 253.902 51.5219 253.112 51.4786C252.322 51.4353 251.539 51.5439 250.761 51.8045C249.985 52.0554 249.338 52.4404 248.82 52.9598C247.816 53.9708 247.26 55.4611 247.152 57.4308C247.027 59.7223 247.533 61.4616 248.671 62.6487C249.614 63.6393 250.905 64.1795 252.543 64.2693C254.395 64.3709 255.919 64.0583 257.113 63.3316C257.547 63.0718 257.923 62.7402 258.238 62.337L258.28 62.3686L258.056 66.464C256.496 67.6206 254.453 68.1297 251.928 67.9913C248.954 67.8282 246.675 66.7546 245.092 64.7705C243.572 62.8778 242.894 60.4444 243.057 57.4704C243.23 54.3208 244.253 51.8878 246.127 50.1714C248.021 48.4464 250.675 47.6774 254.088 47.8645ZM263.381 65.9344C262.54 65.0374 261.894 63.98 261.442 62.762C261.001 61.5446 260.818 60.229 260.896 58.8151C260.974 57.3914 261.287 56.0589 261.834 54.8174C262.381 53.576 263.125 52.4969 264.065 51.5802C265.005 50.6635 266.12 49.9569 267.409 49.4603C268.698 48.9539 270.123 48.7435 271.683 48.829C274.375 48.9766 276.595 49.9492 278.345 51.7469C280.215 53.6685 281.066 56.17 280.897 59.2513C280.734 62.2351 279.583 64.6612 277.447 66.5294C276.132 67.6799 274.599 68.437 272.848 68.8006C271.987 68.9784 270.986 69.036 269.845 68.9735C268.714 68.9115 267.562 68.6136 266.388 68.0798C265.224 67.5465 264.222 66.8314 263.381 65.9344ZM264.973 58.8332C264.924 59.74 265.029 60.582 265.29 61.3592C265.55 62.1363 265.934 62.8126 266.44 63.3881C267.518 64.6012 268.954 65.257 270.748 65.3554C272.454 65.4489 273.855 64.9731 274.949 63.9279C276.064 62.8447 276.676 61.3183 276.784 59.3486C276.886 57.4959 276.468 55.9229 275.532 54.6294C274.522 53.244 273.076 52.4997 271.194 52.3965C269.371 52.2965 267.886 52.89 266.74 54.1768C265.666 55.3796 265.077 56.9318 264.973 58.8332ZM284.258 69.3968C284.335 69.0685 284.384 68.7093 284.405 68.3193L285.412 49.9484L288.337 50.1088L295.421 62.7322L296.035 51.5283C296.064 50.992 296.034 50.6578 295.943 50.5257L299.892 50.7422C299.822 51.1296 299.774 51.5573 299.749 52.0253L298.753 70.1914L295.71 70.0246L288.718 57.8903L288.075 69.6061L284.258 69.3968ZM311.034 70.9527C310.569 70.8685 309.367 70.7732 307.426 70.6669L306.958 70.6412L307.845 54.4643L304.949 54.3056C304.091 54.2585 303.581 54.2746 303.421 54.3538C303.26 54.433 303.134 54.5043 303.042 54.5678L302.999 54.5508L303.204 50.8064L303.251 50.7649C303.566 50.8898 304.431 50.991 305.845 51.0685L315.016 51.5713C315.874 51.6183 316.384 51.6022 316.544 51.523C316.705 51.4438 316.831 51.3725 316.923 51.309L316.966 51.3261L316.761 55.0704L316.714 55.1119C316.399 54.987 315.534 54.8858 314.12 54.8083L311.926 54.688L311.034 70.9527ZM320.437 71.4975C319.603 71.3735 318.625 71.2808 317.504 71.2193L316.348 71.156L323.688 53.6751C324.015 52.891 324.182 52.4356 324.189 52.3088C324.196 52.1723 324.196 52.0892 324.188 52.0594L324.204 52.0309C324.836 52.0949 325.508 52.1464 326.22 52.1854C326.805 52.2175 327.508 52.2463 328.328 52.2717L328.341 52.3017C328.319 52.3396 328.306 52.3927 328.303 52.461C328.293 52.6463 328.412 53.1467 328.661 53.9623L334.176 72.1773C333.981 72.1568 333.752 72.1394 333.489 72.1249C333.489 72.1249 333.236 72.1013 332.73 72.054C332.486 72.0406 332.267 72.0286 332.072 72.0179L329.805 71.8936L328.661 67.6058L322.05 67.2434L320.437 71.4975ZM327.712 64.0329L325.877 57.1106L323.354 63.794L327.712 64.0329ZM346.351 52.9223C348.175 53.0222 349.713 53.4244 350.965 54.1288L350.72 58.6045L350.689 58.6321C350.189 57.7636 349.069 57.1447 347.328 56.7755C346.816 56.6594 346.166 56.5797 345.376 56.5364C344.586 56.4931 343.802 56.6017 343.025 56.8623C342.249 57.1132 341.602 57.4982 341.084 58.0176C340.08 59.0286 339.524 60.5189 339.416 62.4886C339.29 64.7801 339.797 66.5194 340.934 67.7065C341.878 68.6971 343.168 69.2373 344.807 69.3272C346.659 69.4287 348.183 69.1161 349.377 68.3894C349.811 68.1296 350.186 67.798 350.502 67.3948L350.544 67.4264L350.32 71.5219C348.76 72.6785 346.717 73.1875 344.192 73.0491C341.218 72.886 338.939 71.8124 337.356 69.8283C335.836 67.9356 335.158 65.5023 335.321 62.5282C335.493 59.3786 336.517 56.9457 338.391 55.2293C340.285 53.5042 342.939 52.7352 346.351 52.9223ZM360.94 73.6884C360.475 73.6043 359.272 73.509 357.332 73.4026L356.864 73.377L357.751 57.2001L354.855 57.0413C353.996 56.9943 353.487 57.0104 353.326 57.0896C353.165 57.1688 353.039 57.2401 352.948 57.3036L352.905 57.2865L353.11 53.5422L353.156 53.5007C353.472 53.6256 354.337 53.7268 355.751 53.8043L364.922 54.307C365.78 54.3541 366.289 54.338 366.45 54.2588C366.611 54.1796 366.737 54.1082 366.828 54.0448L366.872 54.0618L366.666 57.8062L366.62 57.8477C366.304 57.7228 365.439 57.6216 364.025 57.5441L361.831 57.4238L360.94 73.6884ZM382.821 74.888C382.356 74.8038 381.456 74.7251 380.12 74.6519L378.95 74.5877L380.019 55.076C380.641 55.1492 381.328 55.2064 382.078 55.2476C382.829 55.2887 383.363 55.2788 383.679 55.2179L388.136 63.8391L393.318 55.7463C393.626 55.8414 394.218 55.9131 395.096 55.9612C395.974 56.0093 396.726 56.0309 397.352 56.0261L396.282 75.5379L395.112 75.4737C393.776 75.4005 392.873 75.3803 392.401 75.4131L393.12 62.3078L387.868 70.6021L383.502 62.4701L382.821 74.888ZM411.379 72.8445C411.983 72.8777 412.406 72.8422 412.646 72.738L412.704 72.7558L412.357 76.419L401.401 75.8185L402.473 56.2629C402.736 56.2968 403.027 56.3275 403.349 56.3549L404.371 56.4403C405.052 56.4972 405.793 56.5476 406.592 56.5914C408.825 56.7138 411.036 56.7959 413.225 56.8376C413.07 57.6898 412.954 58.8326 412.875 60.266C412.867 60.422 412.87 60.5396 412.885 60.6186L412.854 60.6609C412.355 60.4869 411.637 60.3742 410.701 60.3228L406.094 60.0703L405.889 63.8L409.356 63.9901C410.428 64.0489 411.073 64.0549 411.291 64.0081L411.137 67.6233C410.672 67.5489 410.068 67.4914 409.327 67.4507L405.7 67.2519L405.411 72.5174L411.379 72.8445ZM431.512 66.3342L432.206 62.2352L428.273 64.939L426.553 62.0427L430.887 60.3292L426.811 57.6117L429.252 55.1048L432.369 58.4592L432.029 53.9514L435.598 54.1471L434.729 58.7646L438.225 56.0075L440.288 58.776L435.739 60.6685L440.197 63.1134L438.088 65.7265L434.538 62.5098L434.833 67.0298L431.425 66.843C431.426 66.8332 431.454 66.6636 431.512 66.3342ZM463.568 59.348C465.391 59.4479 466.929 59.8501 468.182 60.5545L467.936 65.0302L467.906 65.0578C467.405 64.1893 466.285 63.5704 464.545 63.2012C464.033 63.0851 463.382 63.0054 462.592 62.9621C461.803 62.9188 461.019 63.0274 460.242 63.288C459.465 63.5389 458.818 63.9239 458.301 64.4433C457.297 65.4543 456.741 66.9446 456.633 68.9143C456.507 71.2058 457.013 72.9451 458.151 74.1322C459.094 75.1228 460.385 75.663 462.023 75.7529C463.876 75.8544 465.399 75.5418 466.593 74.8151C467.028 74.5553 467.403 74.2237 467.719 73.8205L467.761 73.8521L467.536 77.9476C465.977 79.1042 463.934 79.6132 461.408 79.4748C458.434 79.3117 456.156 78.2381 454.572 76.254C453.053 74.3613 452.374 71.928 452.537 68.9539C452.71 65.8043 453.733 63.3714 455.608 61.655C457.502 59.9299 460.155 59.1609 463.568 59.348ZM472.861 77.4179C472.021 76.521 471.374 75.4635 470.923 74.2455C470.481 73.0281 470.299 71.7125 470.376 70.2986C470.454 68.8749 470.767 67.5424 471.314 66.301C471.862 65.0595 472.605 63.9804 473.546 63.0637C474.486 62.147 475.6 61.4404 476.889 60.9438C478.179 60.4374 479.603 60.227 481.164 60.3125C483.855 60.4601 486.076 61.4327 487.825 63.2304C489.696 65.1521 490.546 67.6535 490.377 70.7349C490.214 73.7187 489.064 76.1447 486.927 78.013C485.612 79.1634 484.079 79.9205 482.328 80.2842C481.467 80.4619 480.467 80.5195 479.326 80.457C478.195 80.395 477.042 80.0971 475.869 79.5633C474.705 79.03 473.702 78.3149 472.861 77.4179ZM474.454 70.3167C474.404 71.2235 474.509 72.0655 474.77 72.8427C475.031 73.6198 475.414 74.2961 475.92 74.8716C476.998 76.0848 478.434 76.7405 480.228 76.8389C481.935 76.9324 483.335 76.4566 484.429 75.4114C485.545 74.3282 486.156 72.8018 486.264 70.8321C486.366 68.9794 485.949 67.4064 485.012 66.1129C484.002 64.7275 482.557 63.9832 480.675 63.88C478.851 63.78 477.366 64.3735 476.22 65.6603C475.147 66.8631 474.558 68.4153 474.454 70.3167ZM493.738 80.8803C493.815 80.552 493.864 80.1928 493.885 79.8028L494.892 61.4319L497.818 61.5923L504.901 74.2157L505.515 63.0118C505.545 62.4755 505.514 62.1413 505.424 62.0092L509.373 62.2257C509.303 62.6131 509.255 63.0408 509.229 63.5088L508.233 81.6749L505.191 81.5081L498.198 69.3738L497.556 81.0896L493.738 80.8803ZM520.515 82.4362C520.05 82.352 518.847 82.2568 516.907 82.1504L516.439 82.1247L517.325 65.9478L514.429 65.7891C513.571 65.742 513.062 65.7581 512.901 65.8373C512.74 65.9165 512.614 65.9879 512.523 66.0513L512.479 66.0343L512.685 62.2899L512.731 62.2484C513.047 62.3733 513.912 62.4745 515.326 62.552L524.496 63.0548C525.355 63.1018 525.864 63.0857 526.025 63.0065C526.186 62.9273 526.312 62.856 526.403 62.7925L526.446 62.8096L526.241 66.554L526.195 66.5954C525.879 66.4705 525.014 66.3693 523.6 66.2918L521.406 66.1715L520.515 82.4362ZM529.918 82.981C529.084 82.857 528.106 82.7643 526.984 82.7028L525.829 82.6395L533.169 65.1586C533.495 64.3745 533.662 63.9191 533.669 63.7923C533.677 63.6558 533.676 63.5727 533.668 63.5429L533.684 63.5144C534.317 63.5784 534.989 63.6299 535.7 63.669C536.285 63.701 536.988 63.7298 537.808 63.7552L537.821 63.7852C537.8 63.8232 537.787 63.8762 537.783 63.9445C537.773 64.1298 537.892 64.6302 538.141 65.4458L543.656 83.6608C543.462 83.6403 543.233 83.6229 542.969 83.6085C542.969 83.6085 542.716 83.5848 542.21 83.5375C541.967 83.5241 541.747 83.5121 541.552 83.5014L539.285 83.3771L538.141 79.0894L531.53 78.7269L529.918 82.981ZM537.193 75.5165L535.357 68.5941L532.834 75.2775L537.193 75.5165ZM555.832 64.4058C557.655 64.5057 559.193 64.9079 560.446 65.6123L560.2 70.088L560.169 70.1156C559.669 69.2471 558.549 68.6282 556.809 68.259C556.297 68.1429 555.646 68.0632 554.856 68.0199C554.066 67.9766 553.283 68.0853 552.506 68.3458C551.729 68.5967 551.082 68.9818 550.565 69.5011C549.56 70.5121 549.004 72.0024 548.896 73.9721C548.771 76.2636 549.277 78.0029 550.415 79.19C551.358 80.1807 552.649 80.7209 554.287 80.8107C556.14 80.9122 557.663 80.5996 558.857 79.8729C559.292 79.6131 559.667 79.2816 559.982 78.8783L560.025 78.91L559.8 83.0054C558.24 84.162 556.198 84.671 553.672 84.5326C550.698 84.3696 548.42 83.296 546.836 81.3118C545.317 79.4191 544.638 76.9858 544.801 74.0117C544.974 70.8621 545.997 68.4292 547.871 66.7128C549.765 64.9877 552.419 64.2187 555.832 64.4058ZM570.42 85.172C569.955 85.0878 568.753 84.9925 566.812 84.8862L566.344 84.8605L567.231 68.6836L564.335 68.5249C563.477 68.4778 562.967 68.4939 562.807 68.5731C562.646 68.6523 562.52 68.7236 562.428 68.7871L562.385 68.77L562.59 65.0257L562.637 64.9842C562.952 65.1091 563.817 65.2103 565.231 65.2878L574.402 65.7905C575.26 65.8376 575.77 65.8215 575.93 65.7423C576.091 65.6631 576.217 65.5918 576.309 65.5283L576.352 65.5453L576.147 69.2897L576.1 69.3312C575.785 69.2063 574.92 69.1051 573.506 69.0276L571.312 68.9073L570.42 85.172ZM592.301 86.3715C591.837 86.2873 590.936 86.2086 589.6 86.1354L588.43 86.0712L589.5 66.5595C590.122 66.6327 590.808 66.6899 591.559 66.7311C592.31 66.7722 592.843 66.7624 593.16 66.7015L597.616 75.3226L602.798 67.2298C603.106 67.325 603.699 67.3966 604.576 67.4447C605.454 67.4928 606.206 67.5144 606.832 67.5096L605.763 87.0214L604.592 86.9572C603.257 86.884 602.353 86.8638 601.882 86.8966L602.6 73.7913L597.348 82.0856L592.982 73.9536L592.301 86.3715ZM620.859 84.3281C621.464 84.3612 621.886 84.3257 622.127 84.2215L622.185 84.2393L621.837 87.9026L610.882 87.302L611.954 67.7464C612.216 67.7803 612.508 67.811 612.829 67.8384L613.851 67.9238C614.533 67.9807 615.273 68.0311 616.073 68.0749C618.306 68.1973 620.517 68.2794 622.705 68.3211C622.551 69.1733 622.434 70.3161 622.356 71.7495C622.347 71.9055 622.351 72.0231 622.366 72.1021L622.334 72.1444C621.835 71.9704 621.118 71.8577 620.181 71.8064L615.574 71.5538L615.37 75.2835L618.836 75.4736C619.909 75.5324 620.554 75.5384 620.772 75.4916L620.617 79.1068C620.152 79.0324 619.549 78.9749 618.808 78.9342L615.18 78.7354L614.892 84.0009L620.859 84.3281ZM640.992 77.8178L641.686 73.7187L637.753 76.4225L636.034 73.5263L640.368 71.8127L636.291 69.0952L638.732 66.5884L641.849 69.9427L641.509 65.4349L645.078 65.6306L644.209 70.2481L647.705 67.491L649.768 70.2595L645.22 72.152L649.677 74.5969L647.568 77.21L644.018 73.9933L644.313 78.5133L640.905 78.3265C640.906 78.3167 640.935 78.1472 640.992 77.8178ZM673.048 70.8315C674.872 70.9314 676.41 71.3336 677.662 72.038L677.417 76.5137L677.386 76.5413C676.886 75.6728 675.766 75.0539 674.025 74.6847C673.513 74.5686 672.863 74.4889 672.073 74.4456C671.283 74.4023 670.499 74.511 669.722 74.7715C668.946 75.0224 668.299 75.4075 667.781 75.9268C666.777 76.9378 666.221 78.4281 666.113 80.3978C665.987 82.6893 666.494 84.4286 667.631 85.6157C668.575 86.6063 669.865 87.1466 671.504 87.2364C673.356 87.3379 674.88 87.0253 676.074 86.2986C676.508 86.0388 676.883 85.7073 677.199 85.304L677.241 85.3357L677.017 89.4311C675.457 90.5877 673.414 91.0967 670.889 90.9583C667.915 90.7953 665.636 89.7217 664.053 87.7375C662.533 85.8448 661.855 83.4115 662.018 80.4374C662.19 77.2878 663.214 74.8549 665.088 73.1385C666.982 71.4134 669.636 70.6444 673.048 70.8315ZM682.342 88.9014C681.501 88.0045 680.855 86.947 680.403 85.729C679.961 84.5116 679.779 83.196 679.857 81.7821C679.935 80.3584 680.247 79.0259 680.795 77.7845C681.342 76.543 682.086 75.464 683.026 74.5473C683.966 73.6306 685.081 72.9239 686.37 72.4273C687.659 71.9209 689.084 71.7105 690.644 71.7961C693.335 71.9436 695.556 72.9162 697.306 74.7139C699.176 76.6356 700.027 79.1371 699.858 82.2184C699.694 85.2022 698.544 87.6282 696.407 89.4965C695.093 90.6469 693.56 91.404 691.808 91.7677C690.948 91.9454 689.947 92.003 688.806 91.9405C687.675 91.8785 686.523 91.5806 685.349 91.0468C684.185 90.5135 683.183 89.7984 682.342 88.9014ZM683.934 81.8002C683.884 82.7071 683.99 83.5491 684.25 84.3262C684.511 85.1033 684.894 85.7796 685.401 86.3551C686.479 87.5683 687.915 88.224 689.709 88.3224C691.415 88.4159 692.815 87.9401 693.909 86.8949C695.025 85.8118 695.637 84.2853 695.745 82.3156C695.846 80.463 695.429 78.8899 694.492 77.5965C693.483 76.211 692.037 75.4667 690.155 75.3635C688.332 75.2635 686.847 75.857 685.7 77.1438C684.627 78.3466 684.038 79.8988 683.934 81.8002ZM703.219 92.3638C703.295 92.0355 703.344 91.6763 703.366 91.2863L704.373 72.9154L707.298 73.0758L714.382 85.6992L714.996 74.4953C715.025 73.959 714.995 73.6248 714.904 73.4927L718.853 73.7092C718.783 74.0966 718.735 74.5243 718.709 74.9923L717.714 93.1584L714.671 92.9916L707.678 80.8573L707.036 92.5731L703.219 92.3638ZM729.995 93.9197C729.53 93.8355 728.328 93.7403 726.387 93.6339L725.919 93.6082L726.806 77.4313L723.91 77.2726C723.052 77.2256 722.542 77.2416 722.381 77.3208C722.221 77.4 722.094 77.4714 722.003 77.5348L721.96 77.5178L722.165 73.7734L722.211 73.7319C722.527 73.8568 723.392 73.958 724.806 74.0355L733.977 74.5383C734.835 74.5853 735.344 74.5692 735.505 74.49C735.666 74.4108 735.792 74.3395 735.884 74.2761L735.927 74.2931L735.722 78.0375L735.675 78.0789C735.359 77.954 734.494 77.8528 733.081 77.7753L730.887 77.6551L729.995 93.9197ZM739.398 94.4645C738.564 94.3405 737.586 94.2478 736.465 94.1863L735.309 94.123L742.649 76.6421C742.976 75.858 743.143 75.4026 743.149 75.2758C743.157 75.1393 743.157 75.0562 743.148 75.0264L743.165 74.9979C743.797 75.0619 744.469 75.1134 745.181 75.1525C745.766 75.1845 746.468 75.2133 747.289 75.2387L747.302 75.2687C747.28 75.3067 747.267 75.3598 747.264 75.428C747.253 75.6133 747.373 76.1137 747.621 76.9293L753.136 95.1443C752.942 95.1238 752.713 95.1064 752.45 95.092C752.45 95.092 752.197 95.0683 751.691 95.021C751.447 95.0077 751.228 94.9956 751.033 94.9849L748.766 94.8607L747.622 90.5729L741.01 90.2104L739.398 94.4645ZM746.673 87L744.837 80.0776L742.314 86.761L746.673 87ZM765.312 75.8893C767.136 75.9893 768.674 76.3914 769.926 77.0958L769.681 81.5715L769.65 81.5991C769.15 80.7306 768.03 80.1117 766.289 79.7425C765.777 79.6264 765.126 79.5467 764.337 79.5034C763.547 79.4601 762.763 79.5688 761.986 79.8294C761.209 80.0802 760.562 80.4653 760.045 80.9846C759.041 81.9956 758.485 83.486 758.377 85.4557C758.251 87.7471 758.757 89.4864 759.895 90.6735C760.839 91.6642 762.129 92.2044 763.767 92.2942C765.62 92.3957 767.143 92.0831 768.337 91.3564C768.772 91.0966 769.147 90.7651 769.463 90.3618L769.505 90.3935L769.281 94.4889C767.721 95.6455 765.678 96.1545 763.153 96.0161C760.179 95.8531 757.9 94.7795 756.317 92.7953C754.797 90.9026 754.119 88.4693 754.282 85.4952C754.454 82.3457 755.478 79.9127 757.352 78.1963C759.246 76.4712 761.899 75.7022 765.312 75.8893ZM779.901 96.6555C779.436 96.5713 778.233 96.476 776.293 96.3697L775.825 96.344L776.711 80.1671L773.815 80.0084C772.957 79.9613 772.448 79.9774 772.287 80.0566C772.126 80.1358 772 80.2071 771.908 80.2706L771.865 80.2536L772.071 76.5092L772.117 76.4677C772.433 76.5926 773.298 76.6938 774.712 76.7713L783.882 77.2741C784.741 77.3211 785.25 77.305 785.411 77.2258C785.572 77.1466 785.698 77.0753 785.789 77.0118L785.832 77.0289L785.627 80.7732L785.581 80.8147C785.265 80.6898 784.4 80.5886 782.986 80.5111L780.792 80.3908L779.901 96.6555ZM801.782 97.855C801.317 97.7708 800.417 97.6921 799.081 97.6189L797.911 97.5547L798.98 78.043C799.602 78.1162 800.288 78.1734 801.039 78.2146C801.79 78.2557 802.324 78.2459 802.64 78.185L807.097 86.8061L812.279 78.7134C812.587 78.8085 813.179 78.8801 814.057 78.9282C814.934 78.9763 815.686 78.998 816.313 78.9932L815.243 98.5049L814.073 98.4407C812.737 98.3675 811.833 98.3473 811.362 98.3802L812.081 85.2748L806.829 93.5691L802.462 85.4371L801.782 97.855ZM830.34 95.8116C830.944 95.8447 831.367 95.8092 831.607 95.705L831.665 95.7228L831.317 99.3861L820.362 98.7855L821.434 79.2299C821.696 79.2638 821.988 79.2945 822.309 79.3219L823.332 79.4073C824.013 79.4642 824.754 79.5146 825.553 79.5584C827.786 79.6808 829.997 79.7629 832.185 79.8046C832.031 80.6568 831.915 81.7996 831.836 83.233C831.828 83.389 831.831 83.5066 831.846 83.5857L831.815 83.6279C831.315 83.4539 830.598 83.3412 829.662 83.2899L825.054 83.0373L824.85 86.7671L828.316 86.9571C829.389 87.0159 830.034 87.0219 830.252 86.9752L830.098 90.5903C829.632 90.5159 829.029 90.4584 828.288 90.4177L824.661 90.2189L824.372 95.4844L830.34 95.8116ZM850.472 89.3013L851.167 85.2023L847.233 87.9061L845.514 85.0098L849.848 83.2962L845.772 80.5788L848.213 78.0719L851.33 81.4262L850.99 76.9184L854.559 77.1141L853.689 81.7316L857.185 78.9745L859.249 81.743L854.7 83.6355L859.158 86.0804L857.049 88.6935L853.499 85.4768L853.794 89.9968L850.386 89.81C850.386 89.8002 850.415 89.6307 850.472 89.3013ZM882.529 82.315C884.352 82.415 885.89 82.8171 887.143 83.5215L886.897 87.9972L886.866 88.0248C886.366 87.1563 885.246 86.5374 883.506 86.1682C882.994 86.0521 882.343 85.9724 881.553 85.9291C880.763 85.8858 879.98 85.9945 879.203 86.255C878.426 86.5059 877.779 86.891 877.262 87.4103C876.257 88.4213 875.701 89.9117 875.593 91.8814C875.468 94.1728 875.974 95.9121 877.112 97.0992C878.055 98.0899 879.346 98.6301 880.984 98.7199C882.837 98.8214 884.36 98.5088 885.554 97.7821C885.989 97.5223 886.364 97.1908 886.679 96.7875L886.722 96.8192L886.497 100.915C884.937 102.071 882.895 102.58 880.369 102.442C877.395 102.279 875.117 101.205 873.533 99.221C872.014 97.3283 871.335 94.895 871.498 91.9209C871.671 88.7714 872.694 86.3384 874.568 84.622C876.462 82.8969 879.116 82.1279 882.529 82.315ZM891.822 100.385C890.981 99.488 890.335 98.4305 889.884 97.2126C889.442 95.9951 889.26 94.6795 889.337 93.2656C889.415 91.842 889.728 90.5094 890.275 89.268C890.822 88.0265 891.566 86.9475 892.506 86.0308C893.447 85.1141 894.561 84.4074 895.85 83.9108C897.14 83.4045 898.564 83.194 900.124 83.2796C902.816 83.4271 905.036 84.3997 906.786 86.1974C908.657 88.1191 909.507 90.6206 909.338 93.7019C909.175 96.6857 908.025 99.1117 905.888 100.98C904.573 102.13 903.04 102.887 901.289 103.251C900.428 103.429 899.427 103.487 898.287 103.424C897.156 103.362 896.003 103.064 894.829 102.53C893.665 101.997 892.663 101.282 891.822 100.385ZM893.414 93.2837C893.365 94.1906 893.47 95.0326 893.731 95.8097C893.991 96.5869 894.375 97.2632 894.881 97.8386C895.959 99.0518 897.395 99.7075 899.189 99.8059C900.896 99.8994 902.296 99.4236 903.39 98.3784C904.505 97.2953 905.117 95.7688 905.225 93.7992C905.327 91.9465 904.909 90.3734 903.973 89.08C902.963 87.6945 901.517 86.9502 899.635 86.847C897.812 86.7471 896.327 87.3405 895.181 88.6273C894.107 89.8302 893.519 91.3823 893.414 93.2837ZM912.699 103.847C912.776 103.519 912.825 103.16 912.846 102.77L913.853 84.3989L916.779 84.5593L923.862 97.1827L924.476 85.9789C924.506 85.4425 924.475 85.1083 924.384 84.9762L928.334 85.1927C928.263 85.5801 928.215 86.0078 928.19 86.4758L927.194 104.642L924.152 104.475L917.159 92.3408L916.517 104.057L912.699 103.847ZM939.475 105.403C939.011 105.319 937.808 105.224 935.867 105.117L935.399 105.092L936.286 88.9149L933.39 88.7561C932.532 88.7091 932.023 88.7251 931.862 88.8044C931.701 88.8836 931.575 88.9549 931.483 89.0183L931.44 89.0013L931.646 85.2569L931.692 85.2154C932.008 85.3403 932.873 85.4416 934.286 85.5191L943.457 86.0218C944.315 86.0688 944.825 86.0527 944.986 85.9735C945.146 85.8943 945.273 85.823 945.364 85.7596L945.407 85.7766L945.202 89.521L945.156 89.5624C944.84 89.4375 943.975 89.3363 942.561 89.2588L940.367 89.1386L939.475 105.403ZM948.879 105.948C948.044 105.824 947.066 105.731 945.945 105.67L944.79 105.607L952.13 88.1256C952.456 87.3415 952.623 86.8861 952.63 86.7594C952.637 86.6228 952.637 86.5397 952.629 86.5099L952.645 86.4815C953.277 86.5454 953.949 86.597 954.661 86.636C955.246 86.6681 955.949 86.6968 956.769 86.7222L956.782 86.7522C956.76 86.7902 956.748 86.8433 956.744 86.9115C956.734 87.0968 956.853 87.5972 957.102 88.4129L962.617 106.628C962.422 106.607 962.194 106.59 961.93 106.575C961.93 106.575 961.677 106.552 961.171 106.505C960.928 106.491 960.708 106.479 960.513 106.468L958.246 106.344L957.102 102.056L950.491 101.694L948.879 105.948ZM956.154 98.4835L954.318 91.5611L951.795 98.2445L956.154 98.4835ZM974.793 87.3728C976.616 87.4728 978.154 87.8749 979.406 88.5793L979.161 93.055L979.13 93.0827C978.63 92.2141 977.51 91.5953 975.77 91.226C975.258 91.1099 974.607 91.0302 973.817 90.9869C973.027 90.9436 972.244 91.0523 971.466 91.3129C970.69 91.5637 970.043 91.9488 969.525 92.4681C968.521 93.4791 967.965 94.9695 967.857 96.9392C967.732 99.2306 968.238 100.97 969.376 102.157C970.319 103.148 971.61 103.688 973.248 103.778C975.101 103.879 976.624 103.567 977.818 102.84C978.253 102.58 978.628 102.249 978.943 101.845L978.985 101.877L978.761 105.972C977.201 107.129 975.159 107.638 972.633 107.5C969.659 107.337 967.38 106.263 965.797 104.279C964.277 102.386 963.599 99.9528 963.762 96.9787C963.935 93.8292 964.958 91.3962 966.832 89.6798C968.726 87.9547 971.38 87.1857 974.793 87.3728ZM989.381 108.139C988.916 108.055 987.713 107.96 985.773 107.853L985.305 107.828L986.192 91.6506L983.296 91.4919C982.438 91.4448 981.928 91.4609 981.767 91.5401C981.607 91.6193 981.48 91.6907 981.389 91.7541L981.346 91.7371L981.551 87.9927L981.597 87.9512C981.913 88.0761 982.778 88.1773 984.192 88.2548L993.363 88.7576C994.221 88.8046 994.73 88.7885 994.891 88.7093C995.052 88.6301 995.178 88.5588 995.27 88.4953L995.313 88.5124L995.108 92.2567L995.061 92.2982C994.745 92.1733 993.88 92.0721 992.467 91.9946L990.273 91.8743L989.381 108.139ZM1011.26 109.338C1010.8 109.254 1009.9 109.176 1008.56 109.102L1007.39 109.038L1008.46 89.5265C1009.08 89.5997 1009.77 89.6569 1010.52 89.6981C1011.27 89.7392 1011.8 89.7294 1012.12 89.6685L1016.58 98.2896L1021.76 90.1969C1022.07 90.292 1022.66 90.3636 1023.54 90.4117C1024.41 90.4598 1025.17 90.4815 1025.79 90.4767L1024.72 109.988L1023.55 109.924C1022.22 109.851 1021.31 109.831 1020.84 109.864L1021.56 96.7583L1016.31 105.053L1011.94 96.9206L1011.26 109.338ZM1039.82 107.295C1040.42 107.328 1040.85 107.293 1041.09 107.189L1041.15 107.206L1040.8 110.87L1029.84 110.269L1030.91 90.7134C1031.18 90.7474 1031.47 90.778 1031.79 90.8054L1032.81 90.8908C1033.49 90.9477 1034.23 90.9981 1035.03 91.0419C1037.27 91.1643 1039.48 91.2464 1041.67 91.2881C1041.51 92.1403 1041.4 93.2831 1041.32 94.7165C1041.31 94.8725 1041.31 94.9901 1041.33 95.0692L1041.29 95.1114C1040.8 94.9374 1040.08 94.8247 1039.14 94.7734L1034.53 94.5208L1034.33 98.2506L1037.8 98.4406C1038.87 98.4994 1039.51 98.5054 1039.73 98.4587L1039.58 102.074C1039.11 101.999 1038.51 101.942 1037.77 101.901L1034.14 101.702L1033.85 106.968L1039.82 107.295ZM1059.95 100.785L1060.65 96.6858L1056.71 99.3896L1054.99 96.4933L1059.33 94.7797L1055.25 92.0623L1057.69 89.5554L1060.81 92.9097L1060.47 88.402L1064.04 88.5976L1063.17 93.2151L1066.67 90.458L1068.73 93.2265L1064.18 95.119L1068.64 97.564L1066.53 100.177L1062.98 96.9603L1063.27 101.48L1059.87 101.293C1059.87 101.284 1059.9 101.114 1059.95 100.785ZM1092.01 93.7985C1093.83 93.8985 1095.37 94.3006 1096.62 95.005L1096.38 99.4807L1096.35 99.5084C1095.85 98.6398 1094.73 98.021 1092.99 97.6517C1092.47 97.5356 1091.82 97.4559 1091.03 97.4126C1090.24 97.3693 1089.46 97.478 1088.68 97.7386C1087.91 97.9894 1087.26 98.3745 1086.74 98.8938C1085.74 99.9048 1085.18 101.395 1085.07 103.365C1084.95 105.656 1085.45 107.396 1086.59 108.583C1087.54 109.573 1088.83 110.114 1090.46 110.203C1092.32 110.305 1093.84 109.992 1095.03 109.266C1095.47 109.006 1095.84 108.674 1096.16 108.271L1096.2 108.303L1095.98 112.398C1094.42 113.555 1092.38 114.064 1089.85 113.925C1086.88 113.762 1084.6 112.689 1083.01 110.705C1081.49 108.812 1080.82 106.378 1080.98 103.404C1081.15 100.255 1082.17 97.8219 1084.05 96.1055C1085.94 94.3804 1088.6 93.6114 1092.01 93.7985ZM1101.3 111.868C1100.46 110.971 1099.82 109.914 1099.36 108.696C1098.92 107.479 1098.74 106.163 1098.82 104.749C1098.9 103.325 1099.21 101.993 1099.76 100.751C1100.3 99.5101 1101.05 98.431 1101.99 97.5143C1102.93 96.5976 1104.04 95.8909 1105.33 95.3943C1106.62 94.888 1108.04 94.6776 1109.6 94.7631C1112.3 94.9106 1114.52 95.8832 1116.27 97.6809C1118.14 99.6026 1118.99 102.104 1118.82 105.185C1118.66 108.169 1117.5 110.595 1115.37 112.463C1114.05 113.614 1112.52 114.371 1110.77 114.735C1109.91 114.912 1108.91 114.97 1107.77 114.908C1106.64 114.846 1105.48 114.548 1104.31 114.014C1103.15 113.481 1102.14 112.765 1101.3 111.868ZM1102.89 104.767C1102.85 105.674 1102.95 106.516 1103.21 107.293C1103.47 108.07 1103.86 108.747 1104.36 109.322C1105.44 110.535 1106.88 111.191 1108.67 111.289C1110.38 111.383 1111.78 110.907 1112.87 109.862C1113.99 108.779 1114.6 107.252 1114.71 105.283C1114.81 103.43 1114.39 101.857 1113.45 100.563C1112.44 99.178 1111 98.4337 1109.12 98.3305C1107.29 98.2306 1105.81 98.824 1104.66 100.111C1103.59 101.314 1103 102.866 1102.89 104.767ZM1122.18 115.331C1122.26 115.003 1122.31 114.643 1122.33 114.253L1123.33 95.8824L1126.26 96.0428L1133.34 108.666L1133.96 97.4624C1133.99 96.9261 1133.96 96.5919 1133.86 96.4597L1137.81 96.6762C1137.74 97.0636 1137.7 97.4913 1137.67 97.9594L1136.67 116.125L1133.63 115.959L1126.64 103.824L1126 115.54L1122.18 115.331ZM1148.96 116.887C1148.49 116.803 1147.29 116.707 1145.35 116.601L1144.88 116.575L1145.77 100.398L1142.87 100.24C1142.01 100.193 1141.5 100.209 1141.34 100.288C1141.18 100.367 1141.06 100.438 1140.96 100.502L1140.92 100.485L1141.13 96.7404L1141.17 96.699C1141.49 96.8239 1142.35 96.9251 1143.77 97.0026L1152.94 97.5053C1153.8 97.5523 1154.31 97.5363 1154.47 97.4571C1154.63 97.3778 1154.75 97.3065 1154.84 97.2431L1154.89 97.2601L1154.68 101.004L1154.64 101.046C1154.32 100.921 1153.46 100.82 1152.04 100.742L1149.85 100.622L1148.96 116.887ZM1158.36 117.432C1157.52 117.308 1156.55 117.215 1155.43 117.153L1154.27 117.09L1161.61 99.6091C1161.94 98.825 1162.1 98.3696 1162.11 98.2429C1162.12 98.1064 1162.12 98.0232 1162.11 97.9934L1162.13 97.965C1162.76 98.029 1163.43 98.0805 1164.14 98.1195C1164.73 98.1516 1165.43 98.1803 1166.25 98.2057L1166.26 98.2358C1166.24 98.2737 1166.23 98.3268 1166.22 98.395C1166.21 98.5803 1166.33 99.0808 1166.58 99.8964L1172.1 118.111C1171.9 118.091 1171.67 118.073 1171.41 118.059C1171.41 118.059 1171.16 118.035 1170.65 117.988C1170.41 117.975 1170.19 117.963 1169.99 117.952L1167.73 117.828L1166.58 113.54L1159.97 113.177L1158.36 117.432ZM1165.63 109.967L1163.8 103.045L1161.28 109.728L1165.63 109.967ZM1184.27 98.8563C1186.1 98.9563 1187.63 99.3584 1188.89 100.063L1188.64 104.539L1188.61 104.566C1188.11 103.698 1186.99 103.079 1185.25 102.71C1184.74 102.593 1184.09 102.514 1183.3 102.47C1182.51 102.427 1181.72 102.536 1180.95 102.796C1180.17 103.047 1179.52 103.432 1179.01 103.952C1178 104.963 1177.45 106.453 1177.34 108.423C1177.21 110.714 1177.72 112.453 1178.86 113.641C1179.8 114.631 1181.09 115.171 1182.73 115.261C1184.58 115.363 1186.1 115.05 1187.3 114.323C1187.73 114.064 1188.11 113.732 1188.42 113.329L1188.47 113.36L1188.24 117.456C1186.68 118.612 1184.64 119.122 1182.11 118.983C1179.14 118.82 1176.86 117.746 1175.28 115.762C1173.76 113.87 1173.08 111.436 1173.24 108.462C1173.42 105.313 1174.44 102.88 1176.31 101.163C1178.21 99.4382 1180.86 98.6692 1184.27 98.8563ZM1198.86 119.622C1198.4 119.538 1197.19 119.443 1195.25 119.337L1194.79 119.311L1195.67 103.134L1192.78 102.975C1191.92 102.928 1191.41 102.944 1191.25 103.024C1191.09 103.103 1190.96 103.174 1190.87 103.238L1190.83 103.221L1191.03 99.4762L1191.08 99.4347C1191.39 99.5596 1192.26 99.6608 1193.67 99.7383L1202.84 100.241C1203.7 100.288 1204.21 100.272 1204.37 100.193C1204.53 100.114 1204.66 100.042 1204.75 99.9788L1204.79 99.9959L1204.59 103.74L1204.54 103.782C1204.23 103.657 1203.36 103.556 1201.95 103.478L1199.75 103.358L1198.86 119.622ZM1220.74 120.822C1220.28 120.738 1219.38 120.659 1218.04 120.586L1216.87 120.522L1217.94 101.01C1218.56 101.083 1219.25 101.14 1220 101.182C1220.75 101.223 1221.28 101.213 1221.6 101.152L1226.06 109.773L1231.24 101.68C1231.55 101.775 1232.14 101.847 1233.02 101.895C1233.9 101.943 1234.65 101.965 1235.27 101.96L1234.2 121.472L1233.03 121.408C1231.7 121.335 1230.79 121.314 1230.32 121.347L1231.04 108.242L1225.79 116.536L1221.42 108.404L1220.74 120.822ZM1249.3 118.779C1249.91 118.812 1250.33 118.776 1250.57 118.672L1250.63 118.69L1250.28 122.353L1239.32 121.753L1240.4 102.197C1240.66 102.231 1240.95 102.262 1241.27 102.289L1242.29 102.374C1242.97 102.431 1243.71 102.482 1244.51 102.525C1246.75 102.648 1248.96 102.73 1251.15 102.772C1250.99 103.624 1250.88 104.767 1250.8 106.2C1250.79 106.356 1250.79 106.474 1250.81 106.553L1250.78 106.595C1250.28 106.421 1249.56 106.308 1248.62 106.257L1244.02 106.004L1243.81 109.734L1247.28 109.924C1248.35 109.983 1249 109.989 1249.21 109.942L1249.06 113.557C1248.59 113.483 1247.99 113.425 1247.25 113.385L1243.62 113.186L1243.33 118.451L1249.3 118.779ZM1269.43 112.268L1270.13 108.169L1266.19 110.873L1264.48 107.977L1268.81 106.263L1264.73 103.546L1267.17 101.039L1270.29 104.393L1269.95 99.8855L1273.52 100.081L1272.65 104.699L1276.15 101.942L1278.21 104.71L1273.66 106.603L1278.12 109.047L1276.01 111.661L1272.46 108.444L1272.75 112.964L1269.35 112.777C1269.35 112.767 1269.38 112.598 1269.43 112.268ZM1301.49 105.282C1303.31 105.382 1304.85 105.784 1306.1 106.489L1305.86 110.964L1305.83 110.992C1305.33 110.123 1304.21 109.504 1302.47 109.135C1301.95 109.019 1301.3 108.939 1300.51 108.896C1299.72 108.853 1298.94 108.961 1298.16 109.222C1297.39 109.473 1296.74 109.858 1296.22 110.377C1295.22 111.388 1294.66 112.879 1294.55 114.848C1294.43 117.14 1294.93 118.879 1296.07 120.066C1297.02 121.057 1298.31 121.597 1299.94 121.687C1301.8 121.788 1303.32 121.476 1304.51 120.749C1304.95 120.489 1305.32 120.158 1305.64 119.755L1305.68 119.786L1305.46 123.882C1303.9 125.038 1301.86 125.547 1299.33 125.409C1296.36 125.246 1294.08 124.172 1292.49 122.188C1290.97 120.295 1290.3 117.862 1290.46 114.888C1290.63 111.738 1291.66 109.305 1293.53 107.589C1295.42 105.864 1298.08 105.095 1301.49 105.282ZM1310.78 123.352C1309.94 122.455 1309.3 121.398 1308.84 120.18C1308.4 118.962 1308.22 117.647 1308.3 116.233C1308.38 114.809 1308.69 113.476 1309.24 112.235C1309.78 110.994 1310.53 109.914 1311.47 108.998C1312.41 108.081 1313.52 107.374 1314.81 106.878C1316.1 106.371 1317.53 106.161 1319.09 106.247C1321.78 106.394 1324 107.367 1325.75 109.164C1327.62 111.086 1328.47 113.588 1328.3 116.669C1328.14 119.653 1326.99 122.079 1324.85 123.947C1323.53 125.097 1322 125.855 1320.25 126.218C1319.39 126.396 1318.39 126.454 1317.25 126.391C1316.12 126.329 1314.96 126.031 1313.79 125.497C1312.63 124.964 1311.62 124.249 1310.78 123.352ZM1312.38 116.251C1312.33 117.158 1312.43 118 1312.69 118.777C1312.95 119.554 1313.34 120.23 1313.84 120.806C1314.92 122.019 1316.36 122.675 1318.15 122.773C1319.86 122.866 1321.26 122.391 1322.35 121.345C1323.47 120.262 1324.08 118.736 1324.19 116.766C1324.29 114.913 1323.87 113.34 1322.93 112.047C1321.92 110.662 1320.48 109.917 1318.6 109.814C1316.77 109.714 1315.29 110.308 1314.14 111.594C1313.07 112.797 1312.48 114.349 1312.38 116.251ZM1331.66 126.814C1331.74 126.486 1331.79 126.127 1331.81 125.737L1332.81 107.366L1335.74 107.526L1342.82 120.15L1343.44 108.946C1343.47 108.41 1343.44 108.075 1343.35 107.943L1347.29 108.16C1347.22 108.547 1347.18 108.975 1347.15 109.443L1346.15 127.609L1343.11 127.442L1336.12 115.308L1335.48 127.024L1331.66 126.814ZM1358.44 128.37C1357.97 128.286 1356.77 128.191 1354.83 128.084L1354.36 128.059L1355.25 111.882L1352.35 111.723C1351.49 111.676 1350.98 111.692 1350.82 111.771C1350.66 111.851 1350.54 111.922 1350.44 111.985L1350.4 111.968L1350.61 108.224L1350.65 108.182C1350.97 108.307 1351.83 108.409 1353.25 108.486L1362.42 108.989C1363.28 109.036 1363.79 109.02 1363.95 108.941C1364.11 108.861 1364.23 108.79 1364.32 108.727L1364.37 108.744L1364.16 112.488L1364.12 112.529C1363.8 112.405 1362.94 112.303 1361.52 112.226L1359.33 112.106L1358.44 128.37ZM1367.84 128.915C1367.01 128.791 1366.03 128.698 1364.91 128.637L1363.75 128.574L1371.09 111.093C1371.42 110.309 1371.58 109.853 1371.59 109.726C1371.6 109.59 1371.6 109.507 1371.59 109.477L1371.61 109.448C1372.24 109.512 1372.91 109.564 1373.62 109.603C1374.21 109.635 1374.91 109.664 1375.73 109.689L1375.74 109.719C1375.72 109.757 1375.71 109.81 1375.7 109.879C1375.69 110.064 1375.81 110.564 1376.06 111.38L1381.58 129.595C1381.38 129.574 1381.15 129.557 1380.89 129.543C1380.89 129.543 1380.64 129.519 1380.13 129.472C1379.89 129.458 1379.67 129.446 1379.47 129.435L1377.21 129.311L1376.06 125.023L1369.45 124.661L1367.84 128.915ZM1375.11 121.451L1373.28 114.528L1370.76 121.212L1375.11 121.451ZM1393.75 110.34C1395.58 110.44 1397.11 110.842 1398.37 111.546L1398.12 116.022L1398.09 116.05C1397.59 115.181 1396.47 114.562 1394.73 114.193C1394.22 114.077 1393.57 113.997 1392.78 113.954C1391.99 113.911 1391.2 114.019 1390.43 114.28C1389.65 114.531 1389 114.916 1388.49 115.435C1387.48 116.446 1386.93 117.936 1386.82 119.906C1386.69 122.198 1387.2 123.937 1388.34 125.124C1389.28 126.115 1390.57 126.655 1392.21 126.745C1394.06 126.846 1395.58 126.534 1396.78 125.807C1397.21 125.547 1397.59 125.216 1397.9 124.812L1397.95 124.844L1397.72 128.939C1396.16 130.096 1394.12 130.605 1391.59 130.467C1388.62 130.304 1386.34 129.23 1384.76 127.246C1383.24 125.353 1382.56 122.92 1382.72 119.946C1382.9 116.796 1383.92 114.363 1385.79 112.647C1387.69 110.922 1390.34 110.153 1393.75 110.34ZM1408.34 131.106C1407.88 131.022 1406.67 130.927 1404.73 130.82L1404.27 130.795L1405.15 114.618L1402.26 114.459C1401.4 114.412 1400.89 114.428 1400.73 114.507C1400.57 114.586 1400.44 114.658 1400.35 114.721L1400.31 114.704L1400.51 110.96L1400.56 110.918C1400.87 111.043 1401.74 111.144 1403.15 111.222L1412.32 111.725C1413.18 111.772 1413.69 111.756 1413.85 111.676C1414.01 111.597 1414.14 111.526 1414.23 111.462L1414.27 111.479L1414.07 115.224L1414.02 115.265C1413.71 115.14 1412.84 115.039 1411.43 114.962L1409.23 114.841L1408.34 131.106ZM1430.22 132.306C1429.76 132.221 1428.86 132.143 1427.52 132.069L1426.35 132.005L1427.42 112.494C1428.04 112.567 1428.73 112.624 1429.48 112.665C1430.23 112.706 1430.76 112.696 1431.08 112.635L1435.54 121.257L1440.72 113.164C1441.03 113.259 1441.62 113.331 1442.5 113.379C1443.38 113.427 1444.13 113.448 1444.75 113.444L1443.68 132.955L1442.51 132.891C1441.18 132.818 1440.27 132.798 1439.8 132.831L1440.52 119.725L1435.27 128.02L1430.9 119.888L1430.22 132.306ZM1458.78 130.262C1459.39 130.295 1459.81 130.26 1460.05 130.156L1460.11 130.173L1459.76 133.837L1448.8 133.236L1449.88 113.68C1450.14 113.714 1450.43 113.745 1450.75 113.772L1451.77 113.858C1452.45 113.915 1453.19 113.965 1453.99 114.009C1456.23 114.131 1458.44 114.213 1460.63 114.255C1460.47 115.107 1460.36 116.25 1460.28 117.684C1460.27 117.84 1460.27 117.957 1460.29 118.036L1460.26 118.078C1459.76 117.904 1459.04 117.792 1458.1 117.74L1453.5 117.488L1453.29 121.218L1456.76 121.408C1457.83 121.466 1458.48 121.472 1458.69 121.426L1458.54 125.041C1458.07 124.966 1457.47 124.909 1456.73 124.868L1453.1 124.669L1452.81 129.935L1458.78 130.262ZM1478.91 123.752L1479.61 119.653L1475.67 122.357L1473.96 119.46L1478.29 117.747L1474.21 115.029L1476.65 112.522L1479.77 115.877L1479.43 111.369L1483 111.565L1482.13 116.182L1485.63 113.425L1487.69 116.194L1483.14 118.086L1487.6 120.531L1485.49 123.144L1481.94 119.927L1482.23 124.447L1478.83 124.261C1478.83 124.251 1478.86 124.081 1478.91 123.752ZM1510.97 116.766C1512.79 116.865 1514.33 117.268 1515.58 117.972L1515.34 122.448L1515.31 122.475C1514.81 121.607 1513.69 120.988 1511.95 120.619C1511.44 120.503 1510.78 120.423 1509.99 120.38C1509.2 120.336 1508.42 120.445 1507.64 120.706C1506.87 120.956 1506.22 121.342 1505.7 121.861C1504.7 122.872 1504.14 124.362 1504.03 126.332C1503.91 128.623 1504.42 130.363 1505.55 131.55C1506.5 132.54 1507.79 133.081 1509.43 133.17C1511.28 133.272 1512.8 132.959 1514 132.233C1514.43 131.973 1514.81 131.641 1515.12 131.238L1515.16 131.27L1514.94 135.365C1513.38 136.522 1511.34 137.031 1508.81 136.892C1505.84 136.729 1503.56 135.656 1501.97 133.672C1500.45 131.779 1499.78 129.346 1499.94 126.371C1500.11 123.222 1501.14 120.789 1503.01 119.073C1504.9 117.347 1507.56 116.578 1510.97 116.766ZM1520.26 134.835C1519.42 133.939 1518.78 132.881 1518.32 131.663C1517.88 130.446 1517.7 129.13 1517.78 127.716C1517.86 126.292 1518.17 124.96 1518.72 123.719C1519.26 122.477 1520.01 121.398 1520.95 120.481C1521.89 119.565 1523 118.858 1524.29 118.361C1525.58 117.855 1527.01 117.645 1528.57 117.73C1531.26 117.878 1533.48 118.85 1535.23 120.648C1537.1 122.57 1537.95 125.071 1537.78 128.152C1537.62 131.136 1536.47 133.562 1534.33 135.431C1533.01 136.581 1531.48 137.338 1529.73 137.702C1528.87 137.879 1527.87 137.937 1526.73 137.875C1525.6 137.813 1524.44 137.515 1523.27 136.981C1522.11 136.448 1521.1 135.732 1520.26 134.835ZM1521.86 127.734C1521.81 128.641 1521.91 129.483 1522.17 130.26C1522.43 131.037 1522.82 131.714 1523.32 132.289C1524.4 133.502 1525.84 134.158 1527.63 134.256C1529.34 134.35 1530.74 133.874 1531.83 132.829C1532.95 131.746 1533.56 130.219 1533.67 128.25C1533.77 126.397 1533.35 124.824 1532.41 123.531C1531.4 122.145 1529.96 121.401 1528.08 121.298C1526.25 121.198 1524.77 121.791 1523.62 123.078C1522.55 124.281 1521.96 125.833 1521.86 127.734ZM1541.14 138.298C1541.22 137.97 1541.27 137.61 1541.29 137.22L1542.29 118.849L1545.22 119.01L1552.3 131.633L1552.92 120.429C1552.95 119.893 1552.92 119.559 1552.83 119.427L1556.77 119.643C1556.7 120.031 1556.66 120.458 1556.63 120.926L1555.64 139.092L1552.59 138.926L1545.6 126.791L1544.96 138.507L1541.14 138.298ZM1567.92 139.854C1567.45 139.77 1566.25 139.674 1564.31 139.568L1563.84 139.542L1564.73 123.365L1561.83 123.207C1560.97 123.16 1560.46 123.176 1560.3 123.255C1560.14 123.334 1560.02 123.405 1559.92 123.469L1559.88 123.452L1560.09 119.707L1560.13 119.666C1560.45 119.791 1561.31 119.892 1562.73 119.97L1571.9 120.472C1572.76 120.519 1573.27 120.503 1573.43 120.424C1573.59 120.345 1573.71 120.274 1573.81 120.21L1573.85 120.227L1573.64 123.972L1573.6 124.013C1573.28 123.888 1572.42 123.787 1571 123.709L1568.81 123.589L1567.92 139.854ZM1577.32 140.399C1576.49 140.275 1575.51 140.182 1574.39 140.12L1573.23 140.057L1580.57 122.576C1580.9 121.792 1581.06 121.337 1581.07 121.21C1581.08 121.073 1581.08 120.99 1581.07 120.96L1581.09 120.932C1581.72 120.996 1582.39 121.047 1583.1 121.087C1583.69 121.119 1584.39 121.147 1585.21 121.173L1585.22 121.203C1585.2 121.241 1585.19 121.294 1585.19 121.362C1585.17 121.547 1585.29 122.048 1585.54 122.863L1591.06 141.078C1590.86 141.058 1590.63 141.04 1590.37 141.026C1590.37 141.026 1590.12 141.002 1589.61 140.955C1589.37 140.942 1589.15 140.93 1588.95 140.919L1586.69 140.795L1585.54 136.507L1578.93 136.144L1577.32 140.399ZM1584.59 132.934L1582.76 126.012L1580.24 132.695L1584.59 132.934ZM1603.23 121.823C1605.06 121.923 1606.6 122.325 1607.85 123.03L1607.6 127.506L1607.57 127.533C1607.07 126.665 1605.95 126.046 1604.21 125.677C1603.7 125.56 1603.05 125.481 1602.26 125.437C1601.47 125.394 1600.68 125.503 1599.91 125.763C1599.13 126.014 1598.48 126.399 1597.97 126.919C1596.96 127.93 1596.41 129.42 1596.3 131.39C1596.17 133.681 1596.68 135.42 1597.82 136.608C1598.76 137.598 1600.05 138.138 1601.69 138.228C1603.54 138.33 1605.07 138.017 1606.26 137.29C1606.69 137.031 1607.07 136.699 1607.38 136.296L1607.43 136.328L1607.2 140.423C1605.64 141.58 1603.6 142.089 1601.07 141.95C1598.1 141.787 1595.82 140.714 1594.24 138.729C1592.72 136.837 1592.04 134.403 1592.2 131.429C1592.38 128.28 1593.4 125.847 1595.27 124.13C1597.17 122.405 1599.82 121.636 1603.23 121.823ZM1617.82 142.59C1617.36 142.505 1616.15 142.41 1614.21 142.304L1613.75 142.278L1614.63 126.101L1611.74 125.942C1610.88 125.895 1610.37 125.911 1610.21 125.991C1610.05 126.07 1609.92 126.141 1609.83 126.205L1609.79 126.188L1609.99 122.443L1610.04 122.402C1610.35 122.527 1611.22 122.628 1612.63 122.705L1621.8 123.208C1622.66 123.255 1623.17 123.239 1623.33 123.16C1623.49 123.081 1623.62 123.009 1623.71 122.946L1623.75 122.963L1623.55 126.707L1623.5 126.749C1623.19 126.624 1622.32 126.523 1620.91 126.445L1618.71 126.325L1617.82 142.59ZM1639.7 143.789C1639.24 143.705 1638.34 143.626 1637 143.553L1635.83 143.489L1636.9 123.977C1637.52 124.05 1638.21 124.107 1638.96 124.149C1639.71 124.19 1640.25 124.18 1640.56 124.119L1645.02 132.74L1650.2 124.647C1650.51 124.743 1651.1 124.814 1651.98 124.862C1652.86 124.91 1653.61 124.932 1654.23 124.927L1653.16 144.439L1651.99 144.375C1650.66 144.302 1649.75 144.281 1649.28 144.314L1650 131.209L1644.75 139.503L1640.38 131.371L1639.7 143.789ZM1668.26 141.746C1668.87 141.779 1669.29 141.743 1669.53 141.639L1669.59 141.657L1669.24 145.32L1658.28 144.72L1659.36 125.164C1659.62 125.198 1659.91 125.229 1660.23 125.256L1661.25 125.341C1661.93 125.398 1662.68 125.449 1663.47 125.492C1665.71 125.615 1667.92 125.697 1670.11 125.739C1669.95 126.591 1669.84 127.734 1669.76 129.167C1669.75 129.323 1669.75 129.441 1669.77 129.52L1669.74 129.562C1669.24 129.388 1668.52 129.275 1667.58 129.224L1662.98 128.971L1662.77 132.701L1666.24 132.891C1667.31 132.95 1667.96 132.956 1668.17 132.909L1668.02 136.524C1667.55 136.45 1666.95 136.392 1666.21 136.352L1662.58 136.153L1662.29 141.418L1668.26 141.746ZM1688.39 135.235L1689.09 131.136L1685.15 133.84L1683.44 130.944L1687.77 129.23L1683.69 126.513L1686.13 124.006L1689.25 127.36L1688.91 122.852L1692.48 123.048L1691.61 127.666L1695.11 124.909L1697.17 127.677L1692.62 129.57L1697.08 132.014L1694.97 134.628L1691.42 131.411L1691.72 135.931L1688.31 135.744C1688.31 135.734 1688.34 135.565 1688.39 135.235ZM1720.45 128.249C1722.27 128.349 1723.81 128.751 1725.06 129.456L1724.82 133.931L1724.79 133.959C1724.29 133.09 1723.17 132.471 1721.43 132.102C1720.92 131.986 1720.26 131.906 1719.47 131.863C1718.68 131.82 1717.9 131.929 1717.12 132.189C1716.35 132.44 1715.7 132.825 1715.18 133.344C1714.18 134.355 1713.62 135.846 1713.52 137.815C1713.39 140.107 1713.9 141.846 1715.03 143.033C1715.98 144.024 1717.27 144.564 1718.91 144.654C1720.76 144.755 1722.28 144.443 1723.48 143.716C1723.91 143.456 1724.29 143.125 1724.6 142.722L1724.64 142.753L1724.42 146.849C1722.86 148.005 1720.82 148.514 1718.29 148.376C1715.32 148.213 1713.04 147.139 1711.45 145.155C1709.94 143.262 1709.26 140.829 1709.42 137.855C1709.59 134.705 1710.62 132.272 1712.49 130.556C1714.38 128.831 1717.04 128.062 1720.45 128.249ZM1729.74 146.319C1728.9 145.422 1728.26 144.365 1727.81 143.147C1727.36 141.929 1727.18 140.614 1727.26 139.2C1727.34 137.776 1727.65 136.443 1728.2 135.202C1728.74 133.961 1729.49 132.882 1730.43 131.965C1731.37 131.048 1732.48 130.341 1733.77 129.845C1735.06 129.339 1736.49 129.128 1738.05 129.214C1740.74 129.361 1742.96 130.334 1744.71 132.131C1746.58 134.053 1747.43 136.555 1747.26 139.636C1747.1 142.62 1745.95 145.046 1743.81 146.914C1742.49 148.064 1740.96 148.822 1739.21 149.185C1738.35 149.363 1737.35 149.421 1736.21 149.358C1735.08 149.296 1733.92 148.998 1732.75 148.464C1731.59 147.931 1730.58 147.216 1729.74 146.319ZM1731.34 139.218C1731.29 140.125 1731.39 140.967 1731.65 141.744C1731.91 142.521 1732.3 143.197 1732.8 143.773C1733.88 144.986 1735.32 145.642 1737.11 145.74C1738.82 145.833 1740.22 145.358 1741.31 144.312C1742.43 143.229 1743.04 141.703 1743.15 139.733C1743.25 137.881 1742.83 136.307 1741.89 135.014C1740.88 133.629 1739.44 132.884 1737.56 132.781C1735.73 132.681 1734.25 133.275 1733.1 134.561C1732.03 135.764 1731.44 137.316 1731.34 139.218ZM1750.62 149.781C1750.7 149.453 1750.75 149.094 1750.77 148.704L1751.77 130.333L1754.7 130.493L1761.78 143.117L1762.4 131.913C1762.43 131.377 1762.4 131.042 1762.31 130.91L1766.26 131.127C1766.18 131.514 1766.14 131.942 1766.11 132.41L1765.12 150.576L1762.07 150.409L1755.08 138.275L1754.44 149.991L1750.62 149.781ZM1777.4 151.337C1776.93 151.253 1775.73 151.158 1773.79 151.051L1773.32 151.026L1774.21 134.849L1771.31 134.69C1770.45 134.643 1769.94 134.659 1769.78 134.738C1769.62 134.818 1769.5 134.889 1769.4 134.952L1769.36 134.935L1769.57 131.191L1769.61 131.149C1769.93 131.274 1770.79 131.376 1772.21 131.453L1781.38 131.956C1782.24 132.003 1782.75 131.987 1782.91 131.908C1783.07 131.828 1783.19 131.757 1783.29 131.694L1783.33 131.711L1783.12 135.455L1783.08 135.496C1782.76 135.372 1781.9 135.27 1780.48 135.193L1778.29 135.073L1777.4 151.337ZM1786.8 151.882C1785.97 151.758 1784.99 151.665 1783.87 151.604L1782.71 151.541L1790.05 134.06C1790.38 133.276 1790.54 132.82 1790.55 132.693C1790.56 132.557 1790.56 132.474 1790.55 132.444L1790.57 132.415C1791.2 132.479 1791.87 132.531 1792.58 132.57C1793.17 132.602 1793.87 132.631 1794.69 132.656L1794.7 132.686C1794.68 132.724 1794.67 132.777 1794.67 132.846C1794.66 133.031 1794.77 133.531 1795.02 134.347L1800.54 152.562C1800.34 152.541 1800.12 152.524 1799.85 152.51C1799.85 152.51 1799.6 152.486 1799.09 152.439C1798.85 152.425 1798.63 152.413 1798.43 152.402L1796.17 152.278L1795.02 147.99L1788.41 147.628L1786.8 151.882ZM1794.08 144.418L1792.24 137.495L1789.72 144.179L1794.08 144.418ZM1812.71 133.307C1814.54 133.407 1816.08 133.809 1817.33 134.513L1817.08 138.989L1817.05 139.017C1816.55 138.148 1815.43 137.529 1813.69 137.16C1813.18 137.044 1812.53 136.964 1811.74 136.921C1810.95 136.878 1810.17 136.986 1809.39 137.247C1808.61 137.498 1807.96 137.883 1807.45 138.402C1806.44 139.413 1805.89 140.904 1805.78 142.873C1805.65 145.165 1806.16 146.904 1807.3 148.091C1808.24 149.082 1809.53 149.622 1811.17 149.712C1813.02 149.813 1814.55 149.501 1815.74 148.774C1816.17 148.514 1816.55 148.183 1816.86 147.779L1816.91 147.811L1816.68 151.906C1815.12 153.063 1813.08 153.572 1810.55 153.434C1807.58 153.271 1805.3 152.197 1803.72 150.213C1802.2 148.32 1801.52 145.887 1801.68 142.913C1801.86 139.763 1802.88 137.33 1804.75 135.614C1806.65 133.889 1809.3 133.12 1812.71 133.307ZM1827.3 154.073C1826.84 153.989 1825.64 153.894 1823.69 153.787L1823.23 153.762L1824.11 137.585L1821.22 137.426C1820.36 137.379 1819.85 137.395 1819.69 137.474C1819.53 137.553 1819.4 137.625 1819.31 137.688L1819.27 137.671L1819.47 133.927L1819.52 133.885C1819.83 134.01 1820.7 134.111 1822.11 134.189L1831.28 134.692C1832.14 134.739 1832.65 134.723 1832.81 134.643C1832.97 134.564 1833.1 134.493 1833.19 134.429L1833.23 134.446L1833.03 138.191L1832.98 138.232C1832.67 138.107 1831.8 138.006 1830.39 137.929L1828.19 137.808L1827.3 154.073ZM1849.18 155.273C1848.72 155.188 1847.82 155.11 1846.48 155.036L1845.31 154.972L1846.38 135.461C1847 135.534 1847.69 135.591 1848.44 135.632C1849.19 135.673 1849.73 135.663 1850.04 135.603L1854.5 144.224L1859.68 136.131C1859.99 136.226 1860.58 136.298 1861.46 136.346C1862.34 136.394 1863.09 136.416 1863.71 136.411L1862.64 155.922L1861.47 155.858C1860.14 155.785 1859.24 155.765 1858.76 155.798L1859.48 142.692L1854.23 150.987L1849.86 142.855L1849.18 155.273ZM1877.74 153.229C1878.35 153.262 1878.77 153.227 1879.01 153.123L1879.07 153.14L1878.72 156.804L1867.76 156.203L1868.84 136.647C1869.1 136.681 1869.39 136.712 1869.71 136.739L1870.73 136.825C1871.42 136.882 1872.16 136.932 1872.96 136.976C1875.19 137.098 1877.4 137.18 1879.59 137.222C1879.43 138.074 1879.32 139.217 1879.24 140.651C1879.23 140.807 1879.23 140.924 1879.25 141.003L1879.22 141.045C1878.72 140.871 1878 140.759 1877.06 140.707L1872.46 140.455L1872.25 144.185L1875.72 144.375C1876.79 144.433 1877.44 144.439 1877.65 144.393L1877.5 148.008C1877.03 147.933 1876.43 147.876 1875.69 147.835L1872.06 147.636L1871.77 152.902L1877.74 153.229Z" fill="black"/>
</svg>
