<svg width="1875" height="192" viewBox="0 0 1875 192" fill="none" xmlns="http://www.w3.org/2000/svg">
<rect x="4.87158" width="1872" height="89" transform="rotate(3.13776 4.87158 0)" fill="#D9FF47"/>
<path d="M51.0603 44.8473C50.8568 45.1687 50.7206 45.9583 50.6517 47.2162L50.4031 51.7504C50.3278 53.1253 49.5505 54.2808 48.0712 55.2169C46.5406 56.199 44.7075 56.6315 42.572 56.5145C39.6077 56.352 37.2942 55.2911 35.6313 53.3319C34.0222 51.4637 33.293 49.1547 33.4437 46.4049C33.6041 43.4796 34.6056 41.0895 36.4482 39.2344C38.5089 37.1468 41.2408 36.1963 44.6439 36.3829C46.9158 36.5074 48.6908 37.0448 49.9689 37.9951L49.4983 42.2971L49.3797 42.3199C49.071 41.7064 48.4249 41.182 47.4414 40.7466C46.5056 40.3335 45.5111 40.098 44.458 40.0403C43.4147 39.9831 42.489 40.0986 41.681 40.3868C40.8827 40.6756 40.1938 41.1122 39.614 41.6966C38.3945 42.8914 37.728 44.5224 37.6147 46.5896C37.5158 48.3935 37.9435 49.8693 38.8977 51.017C39.8525 52.155 41.1294 52.7678 42.7286 52.8554C44.4935 52.9522 45.7083 52.5591 46.3728 51.6762C46.5839 51.3944 46.6996 51.0682 46.7199 50.6976L46.853 48.2696L44.9662 48.1662C43.9521 48.1106 43.3963 48.1682 43.2989 48.3389L43.2559 48.3218L43.3335 44.4971C43.6022 44.5901 44.7068 44.6898 46.6473 44.7961L48.3732 44.8908C49.4458 44.9496 50.3274 44.9245 51.018 44.8157L51.0603 44.8473ZM61.041 49.5756C60.7475 49.579 60.4349 49.5717 60.1034 49.5535C59.7718 49.5353 59.2807 49.4839 58.6301 49.3994L58.2131 57.0051L54.3371 56.7927L55.4091 37.2371C56.7839 37.1364 58.4659 37.1406 60.4551 37.2496C63.1659 37.3982 65.1568 38.011 66.4279 39.0881C67.7092 40.1559 68.2927 41.7332 68.1783 43.8199C68.0896 45.4386 67.4042 46.7898 66.1223 47.8736C65.7022 48.2222 65.2263 48.5189 64.6945 48.7636L67.3335 55.2165C67.8475 56.5455 68.2538 57.3404 68.5525 57.6013L68.4753 57.6704C67.538 57.4625 66.0507 57.3859 64.0134 57.4405L61.041 49.5756ZM60.5438 40.7167C60.0465 40.6894 59.5673 40.6876 59.1064 40.7112L58.8001 46.2986C59.2741 46.393 59.8329 46.4579 60.4765 46.4932C61.1201 46.5284 61.6642 46.5045 62.1089 46.4213C62.5541 46.3283 62.944 46.1736 63.2786 45.9573C63.9992 45.4784 64.3879 44.7222 64.4446 43.6886C64.5012 42.655 64.1803 41.9087 63.4817 41.4499C62.8297 41.0327 61.8504 40.7883 60.5438 40.7167ZM73.2135 57.9448C72.3792 57.8208 71.4014 57.7281 70.28 57.6666L69.1245 57.6033L76.4644 40.1224C76.791 39.3383 76.9578 38.8829 76.9648 38.7561C76.9722 38.6196 76.9719 38.5365 76.9638 38.5067L76.98 38.4782C77.6122 38.5422 78.2842 38.5937 78.996 38.6328C79.5811 38.6648 80.2837 38.6936 81.1039 38.719L81.1169 38.749C81.0952 38.787 81.0826 38.8401 81.0788 38.9083C81.0687 39.0936 81.1879 39.594 81.4366 40.4096L86.9518 58.6246C86.7573 58.6041 86.5284 58.5867 86.2651 58.5723C86.2651 58.5723 86.0121 58.5486 85.5062 58.5013C85.2624 58.488 85.043 58.4759 84.848 58.4652L82.5809 58.341L81.4369 54.0532L74.8257 53.6907L73.2135 57.9448ZM80.4885 50.4803L78.6527 43.5579L76.1298 50.2413L80.4885 50.4803ZM90.1178 39.1398C91.4828 39.0385 92.8771 39.027 94.3008 39.105C96.953 39.2504 98.9324 39.9848 100.239 41.3083C101.556 42.6226 102.146 44.5181 102.01 46.9949C101.889 49.2084 101.037 50.9172 99.4554 52.1215C97.9752 53.2531 96.1235 53.758 93.9003 53.6361C93.6468 53.6222 93.3696 53.5924 93.069 53.5465L92.7755 58.8998L89.0458 58.6954L90.1178 39.1398ZM94.5463 42.654C94.2538 42.638 93.9607 42.6317 93.6671 42.6352L93.2454 50.3287C93.5553 50.3848 93.9345 50.4252 94.383 50.4497C94.8316 50.4743 95.3047 50.4074 95.8024 50.2488C96.3006 50.0805 96.7249 49.8348 97.0751 49.5117C97.8065 48.8378 98.2039 47.9207 98.2676 46.7604C98.4097 44.1666 97.1693 42.7978 94.5463 42.654ZM108.275 59.8375C107.342 59.7277 106.232 59.6375 104.945 59.5669L104.477 59.5413L105.547 40.0149C106.149 40.0968 106.577 40.1447 106.83 40.1586L107.43 40.1915C108.2 40.2337 108.841 40.2297 109.352 40.1795L108.925 47.9754L115.799 48.3523L116.224 40.6002C117.031 40.6934 117.815 40.7608 118.575 40.8025C119.346 40.8447 119.83 40.8321 120.03 40.7648L118.952 60.4228C118.487 60.3387 117.563 60.2586 116.178 60.1827L115.154 60.1266L115.607 51.8626L108.733 51.4858L108.275 59.8375ZM125.804 41.1401C126.777 41.2325 127.366 41.2844 127.571 41.2956L128.624 41.3533C129.14 41.3816 129.557 41.3654 129.873 41.3044L128.786 60.8739L124.734 60.6518L125.804 41.1401ZM144.089 41.8344C145.913 41.9343 147.451 42.3365 148.703 43.0409L148.458 47.5166L148.427 47.5442C147.927 46.6757 146.807 46.0568 145.066 45.6876C144.554 45.5715 143.903 45.4918 143.114 45.4485C142.324 45.4052 141.54 45.5138 140.763 45.7744C139.987 46.0252 139.34 46.4103 138.822 46.9297C137.818 47.9407 137.262 49.431 137.154 51.4007C137.028 53.6922 137.534 55.4315 138.672 56.6186C139.616 57.6092 140.906 58.1494 142.544 58.2392C144.397 58.3408 145.92 58.0282 147.114 57.3014C147.549 57.0417 147.924 56.7101 148.24 56.3069L148.282 56.3385L148.058 60.4339C146.498 61.5905 144.455 62.0996 141.93 61.9612C138.956 61.7981 136.677 60.7245 135.094 58.7404C133.574 56.8477 132.896 54.4143 133.059 51.4403C133.231 48.2907 134.255 45.8577 136.129 44.1413C138.023 42.4163 140.676 41.6473 144.089 41.8344ZM164.414 44.4009L163.9 48.6858L163.796 48.7095C163.134 47.5876 161.944 46.8182 160.226 46.4012C159.686 46.264 159.162 46.1815 158.655 46.1537C158.158 46.1265 157.726 46.1468 157.361 46.2148C157.005 46.2833 156.696 46.3935 156.433 46.5454C155.877 46.867 155.584 47.3106 155.553 47.8762C155.512 48.6173 155.716 49.1859 156.164 49.5821C156.724 50.0627 157.677 50.4328 159.022 50.6924C160.368 50.9422 161.442 51.2456 162.244 51.6025C163.046 51.9594 163.697 52.3912 164.197 52.8979C165.143 53.8495 165.571 55.1444 165.481 56.7826C165.363 58.9278 164.463 60.5362 162.781 61.6078C161.342 62.5265 159.569 62.9281 157.463 62.8127C155.766 62.7197 154.107 62.306 152.484 61.5715C151.95 61.3271 151.486 61.0522 151.092 60.747L151.521 55.8706L151.582 55.8299C152.676 57.9829 154.603 59.135 157.363 59.2863C159.323 59.3937 160.646 58.9919 161.331 58.0808C161.563 57.7708 161.69 57.4208 161.712 57.0307C161.734 56.6309 161.688 56.3008 161.575 56.0403C161.463 55.7701 161.266 55.5343 160.983 55.333C160.438 54.9315 159.501 54.6307 158.172 54.4307C156.843 54.2307 155.764 53.932 154.935 53.5344C154.106 53.1369 153.452 52.6658 152.973 52.1212C152.108 51.1349 151.721 49.8031 151.813 48.1259C151.908 46.3903 152.595 45.0195 153.872 44.0137C155.171 42.9895 156.868 42.5349 158.964 42.6498C161.071 42.7653 162.887 43.349 164.414 44.4009ZM191.102 62.5588C189.416 63.865 187.433 64.4556 185.151 64.3305C182.908 64.2076 181.092 63.4381 179.703 62.022C178.34 60.6465 177.712 58.9983 177.817 57.0774C177.912 55.3417 178.742 53.9397 180.307 52.8714C180.775 52.545 181.274 52.2789 181.803 52.0732C181.299 51.1067 181.071 50.1748 181.12 49.2777C181.169 48.3807 181.358 47.6232 181.685 47.0054C182.012 46.3877 182.447 45.8638 182.989 45.4338C184.144 44.5191 185.585 44.1091 187.311 44.2037C188.539 44.2711 189.649 44.6253 190.641 45.2665C190.547 46.0927 190.488 46.73 190.463 47.1786C190.429 47.7929 190.413 48.1783 190.414 48.3349C190.425 48.4919 190.424 48.6043 190.41 48.6721C190.407 48.7306 190.4 48.7791 190.388 48.8175C190.346 48.8739 190.332 48.9416 190.347 49.0207L190.269 49.1191C189.911 48.5126 189.178 48.0519 188.07 47.7369C187.733 47.6402 187.297 47.5771 186.76 47.5477C186.224 47.5183 185.772 47.6549 185.403 47.9575C185.044 48.2605 184.851 48.6558 184.824 49.1434C184.779 49.982 185.315 51.0823 186.433 52.4444C186.781 52.8743 187.205 53.362 187.703 53.9077L190.968 57.2408C191.326 56.4096 191.531 55.5259 191.582 54.5898C191.614 54.0145 191.494 53.5287 191.222 53.1324C191.159 53.0409 191.108 52.9794 191.071 52.948L191.081 52.7725L193.155 53.7371C193.555 53.9253 193.88 54.0703 194.129 54.1719C194.377 54.2736 194.563 54.3571 194.687 54.4226C194.906 54.5324 195.012 54.6458 195.006 54.7628C194.91 56.518 194.423 58.1638 193.547 59.7001C194.497 60.5737 195.11 61.0719 195.387 61.1947C195.664 61.3174 195.875 61.3926 196.02 61.4201C196.485 61.5043 196.759 61.4997 196.842 61.4065L196.91 61.4983L195.224 64.7066C195.051 64.8146 194.765 64.8576 194.366 64.8356C193.751 64.802 192.663 64.043 191.102 62.5588ZM182.578 59.6123C183.349 60.3587 184.3 60.763 185.431 60.825C186.572 60.8875 187.613 60.6316 188.554 60.0573L187.054 58.5226C185.451 56.8993 184.183 55.4899 183.251 54.2945C182.146 55.0065 181.565 55.8843 181.508 56.9276C181.451 57.971 181.807 58.8659 182.578 59.6123ZM219.831 54.4513C222.126 55.5747 223.209 57.326 223.078 59.7053C222.974 61.5969 222.113 63.1244 220.494 64.2875C218.794 65.5146 216.603 66.0547 213.921 65.9077C211.337 65.766 209.293 65.0525 207.789 63.767L207.945 59.8586L208.1 59.6911C209.183 61.3446 211.178 62.251 214.084 62.4103C217.477 62.5964 219.235 61.5631 219.359 59.3106C219.403 58.5013 218.941 57.8402 217.971 57.3274C217.097 56.8687 216.064 56.6067 214.875 56.5415C213.237 56.4517 211.963 56.6607 211.055 57.1684L210.973 57.0612L211.309 53.6173C212.506 53.3602 213.753 53.2672 215.05 53.3383L215.811 53.38C216.084 53.395 216.352 53.4194 216.614 53.4534C217.258 53.117 217.693 52.5834 217.919 51.8525C217.989 51.6509 218.029 51.4478 218.041 51.243C218.052 51.0285 218.001 50.8105 217.886 50.589C217.771 50.3578 217.592 50.1523 217.347 49.9727C216.812 49.5619 216.194 49.3373 215.492 49.2988C214.8 49.2609 214.212 49.2678 213.73 49.3196C213.248 49.3714 212.779 49.4582 212.322 49.5799C211.339 49.8487 210.596 50.2089 210.092 50.6606L210.023 50.5834L210.052 46.8294C211.673 45.9989 213.604 45.6451 215.847 45.768C217.612 45.8648 219.062 46.3502 220.197 47.2242C221.417 48.1713 221.987 49.3761 221.906 50.8388C221.863 51.6383 221.648 52.3503 221.261 52.9746C220.875 53.5892 220.399 54.0814 219.831 54.4513ZM215.233 53.7445C215.477 53.7578 215.683 53.7496 215.851 53.7196L215.233 53.7445ZM231.151 66.8522C229.572 66.7656 228.091 66.5573 226.711 66.2274L227.784 46.6571C229.079 46.5717 230.576 46.5755 232.272 46.6685C233.979 46.762 235.507 47.0805 236.856 47.6239C238.215 48.1581 239.335 48.8796 240.214 49.7885C241.992 51.6073 242.796 54.0622 242.627 57.1533C242.437 60.6149 241.25 63.1856 239.065 64.8654C237.104 66.3717 234.467 67.0339 231.151 66.8522ZM230.689 63.2473C231.316 63.399 231.947 63.4923 232.58 63.527C233.214 63.5618 233.904 63.4773 234.648 63.2736C235.393 63.0602 236.049 62.7049 236.614 62.2077C237.825 61.1592 238.489 59.5721 238.606 57.4463C238.797 53.9555 237.642 51.7405 235.141 50.8014C234.317 50.4922 233.354 50.3073 232.252 50.2469L231.857 50.2253C231.711 50.2173 231.56 50.2139 231.403 50.2151L230.689 63.2473ZM263.288 68.3058C262.997 68.2508 262.501 68.204 261.799 68.1655L260.102 68.0725C259.771 68.0543 259.497 68.0491 259.282 68.0569L259.269 68.0268C259.311 67.9607 259.335 67.8838 259.34 67.796C259.345 67.7082 259.34 67.6151 259.326 67.5165C259.322 67.4184 259.292 67.2408 259.238 66.9835C259.193 66.7268 259.121 66.356 259.02 65.8713L255 48.2224C255.622 48.2956 256.376 48.3566 257.264 48.4052C258.151 48.4539 258.728 48.4464 258.996 48.3828L261.722 61.809L265.809 48.815C265.954 48.8327 266.085 48.8497 266.202 48.8659L266.524 48.8835C266.844 48.9207 267.249 48.9526 267.736 48.9793C268.224 49.006 268.728 48.9946 269.249 48.9449L271.946 62.3695L275.608 49.3522C276.191 49.4233 276.956 49.4847 277.902 49.5366C278.847 49.5884 279.425 49.581 279.634 49.5142L274.576 64.7142C273.942 66.4595 273.601 67.4971 273.554 67.827C273.507 68.1569 273.479 68.3853 273.472 68.512C273.465 68.6388 273.479 68.7423 273.514 68.8224L273.482 68.8647C273.173 68.8086 272.681 68.7621 272.008 68.7252C271.423 68.6931 270.892 68.664 270.414 68.6378C269.936 68.6116 269.59 68.6024 269.374 68.6101L269.361 68.5801C269.404 68.5139 269.427 68.437 269.432 68.3492C269.437 68.2615 269.437 68.1735 269.432 68.0852C269.427 67.9969 269.407 67.8295 269.372 67.5831C269.347 67.3274 269.299 66.9531 269.228 66.4602L268.942 64.4494L267.043 55.2056L264.264 64.1489C263.694 65.9857 263.391 67.0449 263.356 67.3266C263.288 67.8608 263.275 68.1731 263.319 68.2635L263.288 68.3058ZM283.061 67.0132C282.22 66.1162 281.574 65.0587 281.122 63.8408C280.681 62.6233 280.498 61.3077 280.576 59.8938C280.654 58.4702 280.967 57.1376 281.514 55.8962C282.061 54.6547 282.805 53.5757 283.745 52.659C284.685 51.7423 285.8 51.0356 287.089 50.539C288.378 50.0327 289.803 49.8222 291.363 49.9078C294.055 50.0553 296.275 51.0279 298.025 52.8256C299.895 54.7473 300.746 57.2488 300.577 60.3301C300.414 63.3139 299.263 65.7399 297.127 67.6082C295.812 68.7586 294.279 69.5157 292.528 69.8794C291.667 70.0571 290.666 70.1148 289.525 70.0522C288.394 69.9902 287.242 69.6923 286.068 69.1585C284.904 68.6253 283.902 67.9101 283.061 67.0132ZM284.653 59.9119C284.604 60.8188 284.709 61.6608 284.97 62.4379C285.23 63.2151 285.614 63.8914 286.12 64.4668C287.198 65.68 288.634 66.3357 290.428 66.4341C292.134 66.5276 293.535 66.0518 294.629 65.0066C295.744 63.9235 296.356 62.3971 296.464 60.4274C296.566 58.5747 296.148 57.0016 295.212 55.7082C294.202 54.3227 292.756 53.5784 290.874 53.4752C289.051 53.3753 287.566 53.9687 286.42 55.2555C285.346 56.4584 284.758 58.0105 284.653 59.9119ZM310.51 63.2512C310.217 63.2547 309.904 63.2473 309.573 63.2291C309.241 63.211 308.75 63.1596 308.099 63.075L307.682 70.6808L303.806 70.4683L304.878 50.9127C306.253 50.812 307.935 50.8162 309.924 50.9253C312.635 51.0739 314.626 51.6867 315.897 52.7637C317.178 53.8316 317.762 55.4088 317.648 57.4956C317.559 59.1142 316.873 60.4655 315.591 61.5493C315.171 61.8979 314.695 62.1945 314.164 62.4392L316.803 68.8922C317.317 70.2211 317.723 71.0161 318.022 71.2769L317.945 71.3461C317.007 71.1382 315.52 71.0615 313.483 71.1161L310.51 63.2512ZM310.013 54.3924C309.516 54.3651 309.037 54.3633 308.576 54.3869L308.269 59.9742C308.743 60.0687 309.302 60.1335 309.946 60.1688C310.589 60.2041 311.133 60.1801 311.578 60.0969C312.023 60.004 312.413 59.8493 312.748 59.6329C313.468 59.1541 313.857 58.3978 313.914 57.3642C313.97 56.3306 313.649 55.5844 312.951 55.1256C312.299 54.7084 311.32 54.464 310.013 54.3924ZM324.995 71.7179C324.326 71.6225 323.469 71.5462 322.426 71.489L321.27 71.4257L322.34 51.914L322.923 51.9753C323.332 52.0172 323.638 52.0438 323.843 52.0551L324.267 52.0783C325.126 52.1253 325.727 52.1192 326.073 52.0599L325.62 60.3239L331.993 52.4432C332.615 52.5164 333.141 52.5647 333.57 52.5883L334.374 52.6324C335.379 52.6874 336.098 52.6877 336.531 52.6332L330.481 59.6955L335.434 71.0285C335.639 71.5776 335.837 71.9797 336.028 72.2347L335.136 72.1858C333.079 72.073 331.794 72.0417 331.283 72.0919C331.212 71.4327 331.097 70.8543 330.938 70.3566L327.598 63.0437L325.325 65.7064L324.995 71.7179ZM351.486 54.656L350.973 58.941L350.869 58.9646C350.207 57.8427 349.016 57.0733 347.298 56.6564C346.758 56.5192 346.235 56.4367 345.728 56.4089C345.23 56.3816 344.799 56.402 344.433 56.47C344.077 56.5385 343.768 56.6487 343.506 56.8005C342.95 57.1222 342.657 57.5658 342.626 58.1313C342.585 58.8724 342.789 59.441 343.236 59.8372C343.797 60.3178 344.75 60.6879 346.095 60.9475C347.441 61.1973 348.515 61.5007 349.317 61.8576C350.119 62.2146 350.77 62.6464 351.27 63.153C352.216 64.1046 352.643 65.3995 352.554 67.0377C352.436 69.1829 351.536 70.7913 349.854 71.863C348.415 72.7817 346.642 73.1833 344.536 73.0678C342.839 72.9748 341.179 72.5611 339.557 71.8267C339.023 71.5822 338.559 71.3074 338.165 71.0021L338.593 66.1257L338.654 66.085C339.749 68.238 341.676 69.3902 344.436 69.5414C346.395 69.6489 347.718 69.247 348.404 68.3359C348.636 68.0259 348.763 67.6759 348.784 67.2859C348.806 66.8861 348.761 66.5559 348.648 66.2955C348.536 66.0252 348.338 65.7895 348.056 65.5882C347.511 65.1866 346.573 64.8859 345.245 64.6859C343.916 64.4859 342.837 64.1871 342.007 63.7896C341.178 63.392 340.524 62.9209 340.046 62.3763C339.18 61.39 338.794 60.0582 338.886 58.3811C338.981 56.6454 339.667 55.2747 340.945 54.2689C342.243 53.2447 343.941 52.79 346.037 52.9049C348.143 53.0204 349.96 53.6041 351.486 54.656ZM371.302 63.0335L371.996 58.9345L368.063 61.6383L366.344 58.742L370.677 57.0284L366.601 54.311L369.042 51.8041L372.159 55.1585L371.819 50.6507L375.388 50.8463L374.519 55.4639L378.015 52.7068L380.078 55.4752L375.529 57.3677L379.987 59.8127L377.878 62.4258L374.328 59.209L374.623 63.729L371.215 63.5422C371.216 63.5325 371.245 63.3629 371.302 63.0335ZM410.228 64.5366C410.025 64.8579 409.888 65.6476 409.819 66.9055L409.571 71.4397C409.496 72.8145 408.718 73.97 407.239 74.9061C405.708 75.8882 403.875 76.3208 401.74 76.2037C398.775 76.0412 396.462 74.9804 394.799 73.0212C393.19 71.1529 392.461 68.8439 392.611 66.0942C392.772 63.1689 393.773 60.7787 395.616 58.9236C397.677 56.836 400.409 55.8855 403.812 56.0721C406.084 56.1966 407.859 56.734 409.137 57.6843L408.666 61.9863L408.547 62.0092C408.239 61.3956 407.593 60.8712 406.609 60.4359C405.673 60.0227 404.679 59.7872 403.626 59.7295C402.582 59.6723 401.657 59.7878 400.849 60.0761C400.051 60.3648 399.362 60.8014 398.782 61.3858C397.562 62.5806 396.896 64.2116 396.782 66.2788C396.684 68.0827 397.111 69.5585 398.065 70.7063C399.02 71.8442 400.297 72.457 401.896 72.5447C403.661 72.6414 404.876 72.2483 405.541 71.3654C405.752 71.0836 405.867 70.7574 405.888 70.3869L406.021 67.9589L404.134 67.8554C403.12 67.7998 402.564 67.8574 402.467 68.0281L402.424 68.0111L402.501 64.1863C402.77 64.2793 403.875 64.379 405.815 64.4854L407.541 64.58C408.614 64.6388 409.495 64.6138 410.186 64.5049L410.228 64.5366ZM420.209 69.2648C419.915 69.2682 419.603 69.2609 419.271 69.2427C418.94 69.2245 418.448 69.1732 417.798 69.0886L417.381 76.6944L413.505 76.4819L414.577 56.9263C415.952 56.8256 417.634 56.8298 419.623 56.9388C422.334 57.0874 424.325 57.7003 425.596 58.7773C426.877 59.8451 427.46 61.4224 427.346 63.5091C427.257 65.1278 426.572 66.479 425.29 67.5628C424.87 67.9114 424.394 68.2081 423.862 68.4528L426.501 74.9058C427.015 76.2347 427.422 77.0296 427.72 77.2905L427.643 77.3596C426.706 77.1518 425.219 77.0751 423.181 77.1297L420.209 69.2648ZM419.712 60.4059C419.214 60.3787 418.735 60.3768 418.274 60.4005L417.968 65.9878C418.442 66.0822 419.001 66.1471 419.644 66.1824C420.288 66.2177 420.832 66.1937 421.277 66.1105C421.722 66.0175 422.112 65.8629 422.446 65.6465C423.167 65.1676 423.556 64.4114 423.612 63.3778C423.669 62.3442 423.348 61.598 422.649 61.1391C421.997 60.7219 421.018 60.4775 419.712 60.4059ZM432.381 77.634C431.547 77.5101 430.569 77.4173 429.448 77.3559L428.292 77.2925L435.632 59.8116C435.959 59.0276 436.126 58.5721 436.133 58.4454C436.14 58.3089 436.14 58.2257 436.132 58.1959L436.148 58.1675C436.78 58.2315 437.452 58.283 438.164 58.322C438.749 58.3541 439.451 58.3828 440.272 58.4082L440.285 58.4383C440.263 58.4762 440.25 58.5293 440.247 58.5975C440.236 58.7828 440.356 59.2833 440.604 60.0989L446.12 78.3138C445.925 78.2934 445.696 78.2759 445.433 78.2615C445.433 78.2615 445.18 78.2378 444.674 78.1905C444.43 78.1772 444.211 78.1652 444.016 78.1545L441.749 78.0302L440.605 73.7424L433.993 73.38L432.381 77.634ZM439.656 70.1695L437.82 63.2471L435.298 69.9306L439.656 70.1695ZM449.286 58.829C450.651 58.7278 452.045 58.7162 453.469 58.7942C456.121 58.9396 458.1 59.6741 459.407 60.9976C460.723 62.3118 461.314 64.2074 461.178 66.6841C461.057 68.8976 460.205 70.6065 458.623 71.8107C457.143 72.9423 455.291 73.4472 453.068 73.3253C452.815 73.3114 452.537 73.2816 452.237 73.2358L451.943 78.589L448.214 78.3846L449.286 58.829ZM453.714 62.3433C453.422 62.3272 453.128 62.3209 452.835 62.3244L452.413 70.0179C452.723 70.074 453.102 70.1144 453.551 70.139C453.999 70.1636 454.472 70.0966 454.97 69.938C455.468 69.7698 455.893 69.5241 456.243 69.2009C456.974 68.5271 457.372 67.61 457.435 66.4496C457.578 63.8558 456.337 62.487 453.714 62.3433ZM467.443 79.5267C466.51 79.4169 465.4 79.3267 464.113 79.2562L463.644 79.2305L464.715 59.7041C465.317 59.786 465.744 59.8339 465.998 59.8478L466.598 59.8807C467.368 59.9229 468.009 59.9189 468.52 59.8687L468.093 67.6646L474.967 68.0415L475.392 60.2895C476.199 60.3826 476.982 60.45 477.743 60.4917C478.513 60.5339 478.998 60.5214 479.197 60.4541L478.12 80.112C477.655 80.0279 476.73 79.9478 475.346 79.8719L474.322 79.8158L474.775 71.5519L467.9 71.175L467.443 79.5267ZM484.972 60.8293C485.945 60.9217 486.534 60.9736 486.738 60.9848L487.791 61.0425C488.308 61.0709 488.725 61.0546 489.041 60.9937L487.954 80.5631L483.902 80.341L484.972 60.8293ZM503.257 61.5236C505.08 61.6235 506.618 62.0257 507.871 62.7301L507.625 67.2058L507.595 67.2334C507.094 66.3649 505.974 65.746 504.234 65.3768C503.722 65.2607 503.071 65.181 502.281 65.1377C501.492 65.0944 500.708 65.2031 499.931 65.4636C499.154 65.7145 498.507 66.0996 497.99 66.6189C496.986 67.6299 496.43 69.1202 496.322 71.0899C496.196 73.3814 496.702 75.1207 497.84 76.3078C498.783 77.2984 500.074 77.8387 501.712 77.9285C503.565 78.03 505.088 77.7174 506.282 76.9907C506.717 76.7309 507.092 76.3994 507.408 75.9961L507.45 76.0278L507.225 80.1232C505.666 81.2798 503.623 81.7888 501.097 81.6504C498.123 81.4874 495.845 80.4138 494.262 78.4296C492.742 76.5369 492.063 74.1036 492.226 71.1295C492.399 67.9799 493.422 65.547 495.297 63.8306C497.191 62.1055 499.844 61.3365 503.257 61.5236ZM523.582 64.0901L523.068 68.3751L522.964 68.3987C522.302 67.2768 521.112 66.5074 519.394 66.0904C518.853 65.9533 518.33 65.8708 517.823 65.843C517.325 65.8157 516.894 65.8361 516.528 65.904C516.173 65.9726 515.863 66.0827 515.601 66.2346C515.045 66.5563 514.752 66.9998 514.721 67.5654C514.68 68.3065 514.884 68.8751 515.332 69.2713C515.892 69.7519 516.845 70.122 518.19 70.3816C519.536 70.6314 520.61 70.9348 521.412 71.2917C522.214 71.6487 522.865 72.0805 523.365 72.5871C524.311 73.5387 524.738 74.8336 524.649 76.4718C524.531 78.617 523.631 80.2254 521.949 81.2971C520.51 82.2158 518.737 82.6174 516.631 82.5019C514.934 82.4089 513.275 81.9952 511.652 81.2607C511.118 81.0163 510.654 80.7414 510.26 80.4362L510.688 75.5598L510.749 75.5191C511.844 77.6721 513.771 78.8242 516.531 78.9755C518.491 79.083 519.813 78.6811 520.499 77.77C520.731 77.46 520.858 77.11 520.879 76.7199C520.901 76.3201 520.856 75.99 520.743 75.7295C520.631 75.4593 520.433 75.2236 520.151 75.0222C519.606 74.6207 518.669 74.3199 517.34 74.1199C516.011 73.9199 514.932 73.6212 514.103 73.2236C513.274 72.8261 512.62 72.355 512.141 71.8104C511.276 70.8241 510.889 69.4923 510.981 67.8152C511.076 66.0795 511.762 64.7088 513.04 63.703C514.338 62.6787 516.036 62.2241 518.132 62.339C520.238 62.4545 522.055 63.0382 523.582 64.0901ZM550.269 82.2481C548.584 83.5543 546.6 84.1448 544.319 84.0197C542.076 83.8968 540.26 83.1273 538.87 81.7112C537.508 80.3358 536.88 78.6876 536.985 76.7666C537.08 75.0309 537.91 73.629 539.475 72.5607C539.943 72.2342 540.441 71.9681 540.971 71.7624C540.466 70.7959 540.239 69.8641 540.288 68.967C540.337 68.0699 540.525 67.3124 540.853 66.6947C541.18 66.0769 541.615 65.553 542.156 65.1231C543.312 64.2084 544.752 63.7983 546.478 63.8929C547.707 63.9603 548.817 64.3145 549.809 64.9557C549.715 65.7819 549.655 66.4192 549.631 66.8678C549.597 67.4821 549.581 67.8675 549.582 68.0241C549.593 68.1812 549.592 68.2936 549.578 68.3613C549.575 68.4198 549.567 68.4683 549.556 68.5068C549.513 68.5631 549.5 68.6309 549.515 68.7099L549.436 68.8083C549.078 68.2019 548.346 67.7411 547.238 67.4261C546.901 67.3294 546.465 67.2664 545.928 67.237C545.392 67.2076 544.939 67.3441 544.571 67.6467C544.212 67.9498 544.019 68.3451 543.992 68.8326C543.946 69.6712 544.483 70.7715 545.601 72.1336C545.949 72.5635 546.372 73.0512 546.871 73.5969L550.135 76.93C550.494 76.0988 550.699 75.2151 550.75 74.279C550.782 73.7037 550.662 73.2179 550.39 72.8216C550.327 72.7301 550.276 72.6687 550.239 72.6373L550.248 72.4617L552.323 73.4263C552.723 73.6146 553.048 73.7595 553.296 73.8612C553.545 73.9628 553.731 74.0464 553.855 74.1118C554.074 74.2216 554.18 74.335 554.174 74.452C554.077 76.2072 553.591 77.853 552.715 79.3894C553.664 80.263 554.278 80.7611 554.555 80.8839C554.831 81.0067 555.042 81.0818 555.188 81.1093C555.652 81.1935 555.927 81.189 556.01 81.0957L556.078 81.1875L554.391 84.3959C554.219 84.5038 553.933 84.5468 553.533 84.5249C552.919 84.4912 551.831 83.7323 550.269 82.2481ZM541.746 79.3015C542.517 80.048 543.468 80.4522 544.599 80.5142C545.74 80.5767 546.781 80.3208 547.722 79.7465L546.221 78.2119C544.618 76.5885 543.351 75.1791 542.419 73.9837C541.314 74.6958 540.733 75.5735 540.675 76.6168C540.618 77.6602 540.975 78.5551 541.746 79.3015ZM578.998 74.1405C581.294 75.2639 582.376 77.0152 582.246 79.3945C582.142 81.2862 581.281 82.8136 579.662 83.9767C577.962 85.2038 575.77 85.7439 573.089 85.5969C570.505 85.4552 568.461 84.7417 566.957 83.4563L567.112 79.5478L567.268 79.3803C568.351 81.0338 570.346 81.9403 573.251 82.0996C576.645 82.2856 578.403 81.2524 578.527 78.9999C578.571 78.1905 578.108 77.5295 577.139 77.0166C576.264 76.5579 575.232 76.296 574.043 76.2308C572.404 76.1409 571.131 76.3499 570.223 76.8576L570.141 76.7504L570.477 73.3066C571.674 73.0495 572.921 72.9565 574.218 73.0276L574.979 73.0692C575.252 73.0842 575.519 73.1087 575.782 73.1426C576.426 72.8063 576.861 72.2726 577.087 71.5417C577.157 71.3402 577.197 71.137 577.208 70.9322C577.22 70.7177 577.169 70.4997 577.054 70.2782C576.939 70.047 576.76 69.8416 576.515 69.6619C575.98 69.2512 575.362 69.0265 574.66 68.988C573.967 68.9501 573.38 68.957 572.898 69.0088C572.416 69.0607 571.947 69.1474 571.49 69.2691C570.507 69.5379 569.764 69.8982 569.26 70.3498L569.19 70.2726L569.22 66.5186C570.84 65.6881 572.772 65.3343 575.015 65.4573C576.779 65.554 578.23 66.0394 579.365 66.9134C580.585 67.8605 581.154 69.0653 581.074 70.528C581.03 71.3276 580.815 72.0395 580.429 72.6638C580.043 73.2784 579.566 73.7706 578.998 74.1405ZM574.401 73.4337C574.645 73.4471 574.851 73.4388 575.019 73.4089L574.401 73.4337ZM590.319 86.5414C588.739 86.4548 587.259 86.2466 585.879 85.9166L586.952 66.3464C588.247 66.2609 589.743 66.2647 591.44 66.3577C593.147 66.4512 594.674 66.7697 596.024 67.3131C597.383 67.8473 598.502 68.5689 599.382 69.4777C601.16 71.2965 601.964 73.7515 601.795 76.8425C601.605 80.3041 600.418 82.8748 598.233 84.5546C596.272 86.0609 593.634 86.7232 590.319 86.5414ZM589.856 82.9365C590.484 83.0882 591.114 83.1815 591.748 83.2162C592.382 83.251 593.071 83.1665 593.816 82.9628C594.561 82.7494 595.216 82.3941 595.782 81.8969C596.993 80.8484 597.657 79.2613 597.774 77.1356C597.965 73.6447 596.81 71.4297 594.309 70.4906C593.485 70.1814 592.522 69.9966 591.42 69.9362L591.025 69.9145C590.879 69.9065 590.727 69.9031 590.571 69.9043L589.856 82.9365ZM622.456 87.995C622.165 87.94 621.669 87.8932 620.967 87.8548L619.27 87.7617C618.939 87.7436 618.665 87.7384 618.449 87.7461L618.436 87.716C618.479 87.6499 618.503 87.573 618.508 87.4852C618.513 87.3975 618.508 87.3043 618.494 87.2057C618.489 87.1077 618.46 86.93 618.406 86.6727C618.361 86.416 618.288 86.0453 618.188 85.5605L614.167 67.9117C614.789 67.9849 615.544 68.0458 616.431 68.0944C617.319 68.1431 617.896 68.1356 618.164 68.072L620.89 81.4982L624.976 68.5042C625.122 68.522 625.253 68.5389 625.37 68.5551L625.691 68.5727C626.012 68.6099 626.416 68.6418 626.904 68.6685C627.391 68.6953 627.896 68.6838 628.417 68.6341L631.114 82.0587L634.776 69.0414C635.359 69.1125 636.123 69.1739 637.069 69.2258C638.015 69.2776 638.593 69.2702 638.802 69.2034L633.743 84.4034C633.11 86.1487 632.769 87.1863 632.722 87.5162C632.674 87.8462 632.647 88.0745 632.64 88.2013C632.633 88.328 632.647 88.4315 632.682 88.5116L632.65 88.5539C632.34 88.4978 631.849 88.4513 631.176 88.4144C630.591 88.3823 630.06 88.3532 629.582 88.327C629.104 88.3008 628.757 88.2916 628.542 88.2993L628.529 88.2693C628.571 88.2032 628.595 88.1262 628.6 88.0385C628.605 87.9507 628.605 87.8627 628.6 87.7744C628.595 87.6861 628.575 87.5187 628.539 87.2723C628.514 87.0166 628.466 86.6423 628.396 86.1494L628.11 84.1386L626.21 74.8948L623.432 83.8381C622.861 85.6749 622.559 86.7342 622.524 87.0159C622.455 87.55 622.443 87.8623 622.487 87.9528L622.456 87.995ZM642.229 86.7024C641.388 85.8054 640.742 84.7479 640.29 83.53C639.848 82.3126 639.666 80.9969 639.744 79.583C639.822 78.1594 640.134 76.8268 640.682 75.5854C641.229 74.344 641.973 73.2649 642.913 72.3482C643.853 71.4315 644.968 70.7248 646.257 70.2282C647.546 69.7219 648.971 69.5115 650.531 69.597C653.222 69.7445 655.443 70.7171 657.193 72.5148C659.063 74.4365 659.914 76.938 659.745 80.0193C659.581 83.0031 658.431 85.4291 656.294 87.2974C654.98 88.4479 653.447 89.2049 651.695 89.5686C650.835 89.7464 649.834 89.804 648.693 89.7414C647.562 89.6794 646.41 89.3815 645.236 88.8477C644.072 88.3145 643.07 87.5994 642.229 86.7024ZM643.821 79.6012C643.771 80.508 643.877 81.35 644.137 82.1271C644.398 82.9043 644.781 83.5806 645.288 84.156C646.366 85.3692 647.802 86.025 649.596 86.1233C651.302 86.2169 652.702 85.741 653.796 84.6958C654.912 83.6127 655.524 82.0863 655.632 80.1166C655.733 78.2639 655.316 76.6908 654.379 75.3974C653.37 74.0119 651.924 73.2676 650.042 73.1644C648.219 73.0645 646.734 73.6579 645.587 74.9448C644.514 76.1476 643.925 77.6997 643.821 79.6012ZM669.678 82.9404C669.384 82.9439 669.072 82.9365 668.74 82.9184C668.409 82.9002 667.918 82.8488 667.267 82.7643L666.85 90.37L662.974 90.1575L664.046 70.6019C665.421 70.5013 667.103 70.5054 669.092 70.6145C671.803 70.7631 673.794 71.3759 675.065 72.453C676.346 73.5208 676.93 75.0981 676.815 77.1848C676.727 78.8034 676.041 80.1547 674.759 81.2385C674.339 81.5871 673.863 81.8838 673.331 82.1285L675.97 88.5814C676.484 89.9104 676.891 90.7053 677.189 90.9662L677.112 91.0353C676.175 90.8274 674.688 90.7508 672.65 90.8054L669.678 82.9404ZM669.181 74.0816C668.683 74.0543 668.204 74.0525 667.743 74.0761L667.437 79.6634C667.911 79.7579 668.47 79.8228 669.113 79.858C669.757 79.8933 670.301 79.8694 670.746 79.7861C671.191 79.6932 671.581 79.5385 671.916 79.3221C672.636 78.8433 673.025 78.0871 673.082 77.0535C673.138 76.0199 672.817 75.2736 672.119 74.8148C671.467 74.3976 670.487 74.1532 669.181 74.0816ZM684.163 91.4071C683.493 91.3117 682.637 91.2354 681.594 91.1783L680.438 91.1149L681.508 71.6032L682.091 71.6645C682.5 71.7065 682.806 71.7331 683.011 71.7443L683.435 71.7675C684.293 71.8146 684.895 71.8084 685.241 71.7491L684.788 80.0131L691.161 72.1324C691.783 72.2056 692.309 72.254 692.738 72.2775L693.542 72.3216C694.546 72.3766 695.265 72.3769 695.699 72.3224L689.649 79.3847L694.602 90.7177C694.807 91.2669 695.005 91.6689 695.196 91.9239L694.304 91.875C692.247 91.7622 690.962 91.7309 690.451 91.7812C690.379 91.122 690.264 90.5435 690.106 90.0458L686.766 82.7329L684.493 85.3956L684.163 91.4071ZM710.654 74.3453L710.141 78.6302L710.037 78.6539C709.374 77.5319 708.184 76.7625 706.466 76.3456C705.926 76.2084 705.402 76.1259 704.895 76.0981C704.398 76.0708 703.967 76.0912 703.601 76.1592C703.245 76.2277 702.936 76.3379 702.673 76.4898C702.118 76.8114 701.825 77.255 701.794 77.8205C701.753 78.5616 701.956 79.1303 702.404 79.5265C702.965 80.0071 703.917 80.3772 705.263 80.6367C706.608 80.8866 707.682 81.1899 708.484 81.5469C709.286 81.9038 709.937 82.3356 710.438 82.8423C711.383 83.7939 711.811 85.0888 711.721 86.7269C711.604 88.8721 710.704 90.4806 709.021 91.5522C707.582 92.4709 705.81 92.8725 703.703 92.7571C702.007 92.664 700.347 92.2503 698.725 91.5159C698.191 91.2714 697.726 90.9966 697.332 90.6914L697.761 85.8149L697.822 85.7743C698.917 87.9273 700.844 89.0794 703.603 89.2307C705.563 89.3381 706.886 88.9363 707.572 88.0252C707.804 87.7152 707.931 87.3651 707.952 86.9751C707.974 86.5753 707.928 86.2452 707.816 85.9847C707.703 85.7145 707.506 85.4787 707.224 85.2774C706.678 84.8758 705.741 84.5751 704.412 84.3751C703.083 84.1751 702.004 83.8763 701.175 83.4788C700.346 83.0812 699.692 82.6102 699.214 82.0656C698.348 81.0792 697.962 79.7475 698.054 78.0703C698.149 76.3346 698.835 74.9639 700.113 73.9581C701.411 72.9339 703.108 72.4792 705.205 72.5942C707.311 72.7096 709.128 73.2933 710.654 74.3453ZM730.47 82.7227L731.164 78.6237L727.231 81.3275L725.511 78.4312L729.845 76.7176L725.769 74.0002L728.21 71.4933L731.327 74.8477L730.987 70.3399L734.556 70.5355L733.687 75.1531L737.183 72.396L739.246 75.1644L734.697 77.057L739.155 79.5019L737.046 82.115L733.496 78.8983L733.791 83.4183L730.383 83.2314C730.384 83.2217 730.412 83.0521 730.47 82.7227ZM769.396 84.2258C769.192 84.5472 769.056 85.3368 768.987 86.5947L768.739 91.1289C768.663 92.5038 767.886 93.6593 766.407 94.5953C764.876 95.5775 763.043 96.01 760.908 95.8929C757.943 95.7304 755.63 94.6696 753.967 92.7104C752.358 90.8422 751.629 88.5332 751.779 85.7834C751.94 82.8581 752.941 80.4679 754.784 78.6129C756.844 76.5253 759.576 75.5748 762.979 75.7613C765.251 75.8859 767.026 76.4233 768.304 77.3736L767.834 81.6755L767.715 81.6984C767.407 81.0849 766.76 80.5604 765.777 80.1251C764.841 79.7119 763.847 79.4765 762.794 79.4187C761.75 79.3615 760.825 79.4771 760.017 79.7653C759.218 80.0541 758.529 80.4906 757.95 81.075C756.73 82.2698 756.064 83.9008 755.95 85.968C755.851 87.772 756.279 89.2478 757.233 90.3955C758.188 91.5334 759.465 92.1462 761.064 92.2339C762.829 92.3307 764.044 91.9376 764.708 91.0547C764.919 90.7728 765.035 90.4466 765.055 90.0761L765.189 87.6481L763.302 87.5447C762.288 87.4891 761.732 87.5466 761.634 87.7173L761.591 87.7003L761.669 83.8756C761.938 83.9685 763.042 84.0682 764.983 84.1746L766.709 84.2692C767.781 84.328 768.663 84.303 769.354 84.1941L769.396 84.2258ZM779.377 88.954C779.083 88.9575 778.77 88.9501 778.439 88.9319C778.107 88.9138 777.616 88.8624 776.966 88.7778L776.549 96.3836L772.673 96.1711L773.745 76.6155C775.119 76.5148 776.801 76.519 778.791 76.6281C781.501 76.7767 783.492 77.3895 784.763 78.4665C786.045 79.5344 786.628 81.1116 786.514 83.1984C786.425 84.817 785.74 86.1682 784.458 87.252C784.038 87.6007 783.562 87.8973 783.03 88.142L785.669 94.595C786.183 95.9239 786.589 96.7188 786.888 96.9797L786.811 97.0489C785.874 96.841 784.386 96.7643 782.349 96.8189L779.377 88.954ZM778.879 80.0951C778.382 80.0679 777.903 80.0661 777.442 80.0897L777.136 85.677C777.61 85.7715 778.168 85.8363 778.812 85.8716C779.456 85.9069 780 85.8829 780.444 85.7997C780.89 85.7068 781.28 85.5521 781.614 85.3357C782.335 84.8569 782.723 84.1006 782.78 83.067C782.837 82.0334 782.516 81.2872 781.817 80.8283C781.165 80.4112 780.186 80.1668 778.879 80.0951ZM791.549 97.3233C790.715 97.1993 789.737 97.1066 788.616 97.0451L787.46 96.9817L794.8 79.5009C795.127 78.7168 795.293 78.2614 795.3 78.1346C795.308 77.9981 795.307 77.9149 795.299 77.8851L795.316 77.8567C795.948 77.9207 796.62 77.9722 797.332 78.0112C797.917 78.0433 798.619 78.072 799.439 78.0974L799.452 78.1275C799.431 78.1654 799.418 78.2185 799.414 78.2868C799.404 78.472 799.523 78.9725 799.772 79.7881L805.287 98.003C805.093 97.9826 804.864 97.9652 804.601 97.9507C804.601 97.9507 804.348 97.9271 803.842 97.8798C803.598 97.8664 803.379 97.8544 803.183 97.8437L800.916 97.7194L799.772 93.4316L793.161 93.0692L791.549 97.3233ZM798.824 89.8587L796.988 82.9363L794.465 89.6198L798.824 89.8587ZM808.453 78.5182C809.818 78.417 811.213 78.4054 812.636 78.4834C815.289 78.6288 817.268 79.3633 818.574 80.6868C819.891 82.0011 820.482 83.8966 820.346 86.3733C820.225 88.5868 819.373 90.2957 817.791 91.5C816.311 92.6316 814.459 93.1364 812.236 93.0146C811.982 93.0007 811.705 92.9708 811.405 92.925L811.111 98.2783L807.381 98.0738L808.453 78.5182ZM812.882 82.0325C812.589 82.0164 812.296 82.0102 812.003 82.0136L811.581 89.7072C811.891 89.7633 812.27 89.8036 812.719 89.8282C813.167 89.8528 813.64 89.7858 814.138 89.6273C814.636 89.459 815.06 89.2133 815.411 88.8902C816.142 88.2163 816.539 87.2992 816.603 86.1388C816.745 83.5451 815.505 82.1763 812.882 82.0325ZM826.61 99.2159C825.677 99.1061 824.567 99.0159 823.28 98.9454L822.812 98.9197L823.883 79.3934C824.485 79.4753 824.912 79.5232 825.166 79.5371L825.765 79.5699C826.536 79.6122 827.177 79.6082 827.688 79.558L827.261 87.3539L834.135 87.7307L834.56 79.9787C835.367 80.0718 836.15 80.1392 836.911 80.1809C837.681 80.2231 838.166 80.2106 838.365 80.1433L837.288 99.8013C836.823 99.7171 835.898 99.6371 834.513 99.5612L833.49 99.505L833.943 91.2411L827.068 90.8642L826.61 99.2159ZM844.14 80.5185C845.112 80.611 845.701 80.6628 845.906 80.674L846.959 80.7318C847.476 80.7601 847.893 80.7438 848.209 80.6829L847.121 100.252L843.07 100.03L844.14 80.5185ZM862.425 81.2128C864.248 81.3128 865.786 81.7149 867.039 82.4193L866.793 86.895L866.762 86.9227C866.262 86.0541 865.142 85.4353 863.402 85.066C862.89 84.9499 862.239 84.8702 861.449 84.8269C860.659 84.7836 859.876 84.8923 859.099 85.1529C858.322 85.4037 857.675 85.7888 857.158 86.3081C856.153 87.3191 855.597 88.8095 855.489 90.7792C855.364 93.0707 855.87 94.8099 857.008 95.9971C857.951 96.9877 859.242 97.5279 860.88 97.6177C862.733 97.7193 864.256 97.4067 865.45 96.6799C865.885 96.4201 866.26 96.0886 866.575 95.6853L866.618 95.717L866.393 99.8124C864.833 100.969 862.791 101.478 860.265 101.34C857.291 101.177 855.013 100.103 853.429 98.1188C851.91 96.2261 851.231 93.7928 851.394 90.8187C851.567 87.6692 852.59 85.2362 854.464 83.5198C856.358 81.7947 859.012 81.0257 862.425 81.2128ZM882.749 83.7794L882.236 88.0643L882.132 88.0879C881.47 86.966 880.279 86.1966 878.561 85.7797C878.021 85.6425 877.498 85.56 876.99 85.5322C876.493 85.5049 876.062 85.5253 875.696 85.5933C875.34 85.6618 875.031 85.772 874.768 85.9238C874.213 86.2455 873.92 86.6891 873.889 87.2546C873.848 87.9957 874.052 88.5643 874.499 88.9605C875.06 89.4412 876.013 89.8112 877.358 90.0708C878.704 90.3206 879.777 90.624 880.579 90.9809C881.381 91.3379 882.033 91.7697 882.533 92.2763C883.478 93.228 883.906 94.5228 883.816 96.161C883.699 98.3062 882.799 99.9147 881.117 100.986C879.677 101.905 877.905 102.307 875.799 102.191C874.102 102.098 872.442 101.684 870.82 100.95C870.286 100.706 869.821 100.431 869.427 100.125L869.856 95.249L869.917 95.2083C871.012 97.3613 872.939 98.5135 875.698 98.6647C877.658 98.7722 878.981 98.3704 879.667 97.4593C879.899 97.1492 880.026 96.7992 880.047 96.4092C880.069 96.0094 880.024 95.6792 879.911 95.4188C879.798 95.1485 879.601 94.9128 879.319 94.7115C878.773 94.3099 877.836 94.0092 876.507 93.8092C875.178 93.6092 874.099 93.3104 873.27 92.9129C872.441 92.5153 871.787 92.0443 871.309 91.4997C870.443 90.5133 870.057 89.1816 870.149 87.5044C870.244 85.7687 870.93 84.398 872.208 83.3922C873.506 82.368 875.203 81.9133 877.3 82.0282C879.406 82.1437 881.223 82.7274 882.749 83.7794ZM909.437 101.937C907.752 103.243 905.768 103.834 903.486 103.709C901.244 103.586 899.428 102.817 898.038 101.4C896.676 100.025 896.047 98.3768 896.153 96.4558C896.248 94.7202 897.078 93.3182 898.643 92.2499C899.11 91.9234 899.609 91.6574 900.139 91.4517C899.634 90.4851 899.407 89.5533 899.456 88.6562C899.505 87.7591 899.693 87.0017 900.02 86.3839C900.348 85.7661 900.782 85.2422 901.324 84.8123C902.48 83.8976 903.92 83.4875 905.646 83.5822C906.875 83.6495 907.985 84.0038 908.977 84.645C908.882 85.4711 908.823 86.1085 908.798 86.557C908.765 87.1713 908.749 87.5568 908.75 87.7133C908.761 87.8704 908.759 87.9828 908.746 88.0505C908.743 88.109 908.735 88.1575 908.723 88.196C908.681 88.2524 908.668 88.3201 908.683 88.3992L908.604 88.4975C908.246 87.8911 907.513 87.4304 906.406 87.1154C906.069 87.0187 905.632 86.9556 905.096 86.9262C904.56 86.8968 904.107 87.0334 903.739 87.3359C903.38 87.639 903.187 88.0343 903.16 88.5218C903.114 89.3604 903.65 90.4608 904.769 91.8229C905.117 92.2527 905.54 92.7405 906.038 93.2861L909.303 96.6193C909.662 95.788 909.867 94.9044 909.918 93.9683C909.949 93.393 909.829 92.9071 909.558 92.5108C909.494 92.4193 909.444 92.3579 909.406 92.3265L909.416 92.151L911.49 93.1156C911.891 93.3038 912.215 93.4487 912.464 93.5504C912.713 93.652 912.899 93.7356 913.023 93.801C913.241 93.9109 913.348 94.0243 913.341 94.1413C913.245 95.8964 912.759 97.5422 911.882 99.0786C912.832 99.9522 913.445 100.45 913.722 100.573C913.999 100.696 914.21 100.771 914.355 100.799C914.82 100.883 915.094 100.878 915.178 100.785L915.246 100.877L913.559 104.085C913.387 104.193 913.101 104.236 912.701 104.214C912.087 104.18 910.999 103.421 909.437 101.937ZM900.914 98.9908C901.685 99.7372 902.636 100.141 903.767 100.203C904.908 100.266 905.948 100.01 906.89 99.4357L905.389 97.9011C903.786 96.2777 902.519 94.8683 901.587 93.6729C900.482 94.385 899.9 95.2627 899.843 96.3061C899.786 97.3494 900.143 98.2443 900.914 98.9908ZM938.166 93.8297C940.462 94.9531 941.544 96.7045 941.414 99.0837C941.31 100.975 940.449 102.503 938.83 103.666C937.129 104.893 934.938 105.433 932.257 105.286C929.673 105.144 927.629 104.431 926.124 103.145L926.28 99.237L926.436 99.0695C927.519 100.723 929.513 101.629 932.419 101.789C935.812 101.975 937.571 100.942 937.694 98.6891C937.739 97.8798 937.276 97.2187 936.307 96.7059C935.432 96.2472 934.4 95.9852 933.21 95.92C931.572 95.8302 930.299 96.0391 929.391 96.5468L929.309 96.4396L929.644 92.9958C930.842 92.7387 932.089 92.6457 933.386 92.7168L934.146 92.7585C934.419 92.7734 934.687 92.7979 934.949 92.8318C935.594 92.4955 936.029 91.9619 936.255 91.231C936.324 91.0294 936.365 90.8262 936.376 90.6215C936.388 90.4069 936.336 90.1889 936.221 89.9675C936.107 89.7362 935.927 89.5308 935.683 89.3511C935.148 88.9404 934.529 88.7158 933.827 88.6773C933.135 88.6393 932.548 88.6463 932.066 88.6981C931.584 88.7499 931.114 88.8366 930.658 88.9583C929.675 89.2272 928.931 89.5874 928.427 90.039L928.358 89.9619L928.388 86.2079C930.008 85.3773 931.94 85.0235 934.182 85.1465C935.947 85.2432 937.397 85.7286 938.533 86.6026C939.752 87.5497 940.322 88.7546 940.242 90.2172C940.198 91.0168 939.983 91.7287 939.597 92.3531C939.211 92.9676 938.734 93.4599 938.166 93.8297ZM933.569 93.1229C933.813 93.1363 934.019 93.128 934.187 93.0981L933.569 93.1229ZM949.487 106.231C947.907 106.144 946.427 105.936 945.046 105.606L946.119 86.0356C947.415 85.9501 948.911 85.9539 950.608 86.0469C952.314 86.1405 953.842 86.4589 955.191 87.0024C956.551 87.5366 957.67 88.2581 958.55 89.167C960.328 90.9858 961.132 93.4407 960.963 96.5318C960.773 99.9934 959.585 102.564 957.4 104.244C955.44 105.75 952.802 106.412 949.487 106.231ZM949.024 102.626C949.652 102.777 950.282 102.871 950.916 102.905C951.55 102.94 952.239 102.856 952.984 102.652C953.729 102.439 954.384 102.083 954.949 101.586C956.161 100.538 956.825 98.9505 956.941 96.8248C957.133 93.3339 955.978 91.119 953.477 90.1799C952.653 89.8706 951.69 89.6858 950.588 89.6254L950.193 89.6037C950.047 89.5957 949.895 89.5923 949.739 89.5935L949.024 102.626ZM981.623 107.684C981.333 107.629 980.837 107.582 980.135 107.544L978.438 107.451C978.106 107.433 977.833 107.428 977.617 107.435L977.604 107.405C977.647 107.339 977.671 107.262 977.676 107.174C977.68 107.087 977.676 106.994 977.662 106.895C977.657 106.797 977.628 106.619 977.573 106.362C977.529 106.105 977.456 105.735 977.356 105.25L973.335 87.6009C973.957 87.6741 974.712 87.735 975.599 87.7837C976.486 87.8323 977.064 87.8248 977.331 87.7613L980.058 101.187L984.144 88.1934C984.29 88.2112 984.421 88.2282 984.537 88.2443L984.859 88.262C985.18 88.2991 985.584 88.331 986.072 88.3578C986.559 88.3845 987.063 88.373 987.585 88.3233L990.282 101.748L993.944 88.7306C994.527 88.8017 995.291 88.8632 996.237 88.915C997.183 88.9669 997.76 88.9594 997.969 88.8926L992.911 104.093C992.277 105.838 991.937 106.876 991.89 107.205C991.842 107.535 991.815 107.764 991.808 107.89C991.801 108.017 991.815 108.121 991.85 108.201L991.818 108.243C991.508 108.187 991.017 108.141 990.344 108.104C989.759 108.072 989.227 108.042 988.75 108.016C988.272 107.99 987.925 107.981 987.71 107.989L987.696 107.959C987.739 107.892 987.763 107.815 987.768 107.728C987.773 107.64 987.773 107.552 987.768 107.464C987.763 107.375 987.743 107.208 987.707 106.962C987.682 106.706 987.634 106.332 987.563 105.839L987.277 103.828L985.378 94.584L982.599 103.527C982.029 105.364 981.727 106.423 981.692 106.705C981.623 107.239 981.611 107.552 981.655 107.642L981.623 107.684ZM1001.4 106.392C1000.56 105.495 999.91 104.437 999.458 103.219C999.016 102.002 998.834 100.686 998.911 99.2723C998.989 97.8486 999.302 96.5161 999.849 95.2746C1000.4 94.0332 1001.14 92.9541 1002.08 92.0374C1003.02 91.1207 1004.14 90.4141 1005.42 89.9175C1006.71 89.4111 1008.14 89.2007 1009.7 89.2862C1012.39 89.4338 1014.61 90.4064 1016.36 92.2041C1018.23 94.1257 1019.08 96.6272 1018.91 99.7085C1018.75 102.692 1017.6 105.118 1015.46 106.987C1014.15 108.137 1012.61 108.894 1010.86 109.258C1010 109.436 1009 109.493 1007.86 109.431C1006.73 109.369 1005.58 109.071 1004.4 108.537C1003.24 108.004 1002.24 107.289 1001.4 106.392ZM1002.99 99.2904C1002.94 100.197 1003.04 101.039 1003.31 101.816C1003.57 102.594 1003.95 103.27 1004.46 103.845C1005.53 105.058 1006.97 105.714 1008.76 105.813C1010.47 105.906 1011.87 105.43 1012.96 104.385C1014.08 103.302 1014.69 101.776 1014.8 99.8058C1014.9 97.9531 1014.48 96.3801 1013.55 95.0866C1012.54 93.7012 1011.09 92.9568 1009.21 92.8537C1007.39 92.7537 1005.9 93.3472 1004.76 94.634C1003.68 95.8368 1003.09 97.3889 1002.99 99.2904ZM1028.85 102.63C1028.55 102.633 1028.24 102.626 1027.91 102.608C1027.58 102.589 1027.09 102.538 1026.43 102.453L1026.02 110.059L1022.14 109.847L1023.21 90.2912C1024.59 90.1905 1026.27 90.1947 1028.26 90.3037C1030.97 90.4523 1032.96 91.0651 1034.23 92.1422C1035.51 93.21 1036.1 94.7873 1035.98 96.874C1035.89 98.4927 1035.21 99.8439 1033.93 100.928C1033.51 101.276 1033.03 101.573 1032.5 101.818L1035.14 108.271C1035.65 109.6 1036.06 110.395 1036.36 110.655L1036.28 110.725C1035.34 110.517 1033.86 110.44 1031.82 110.495L1028.85 102.63ZM1028.35 93.7708C1027.85 93.7435 1027.37 93.7417 1026.91 93.7654L1026.6 99.3527C1027.08 99.4471 1027.64 99.512 1028.28 99.5473C1028.92 99.5825 1029.47 99.5586 1029.91 99.4754C1030.36 99.3824 1030.75 99.2277 1031.08 99.0114C1031.8 98.5325 1032.19 97.7763 1032.25 96.7427C1032.31 95.7091 1031.98 94.9629 1031.29 94.504C1030.63 94.0868 1029.66 93.8424 1028.35 93.7708ZM1043.33 111.096C1042.66 111.001 1041.8 110.925 1040.76 110.867L1039.61 110.804L1040.68 91.2924L1041.26 91.3537C1041.67 91.3957 1041.97 91.4223 1042.18 91.4335L1042.6 91.4568C1043.46 91.5038 1044.06 91.4977 1044.41 91.4384L1043.96 99.7023L1050.33 91.8216C1050.95 91.8948 1051.48 91.9432 1051.91 91.9667L1052.71 92.0108C1053.71 92.0659 1054.43 92.0662 1054.87 92.0117L1048.82 99.0739L1053.77 110.407C1053.97 110.956 1054.17 111.358 1054.36 111.613L1053.47 111.564C1051.41 111.451 1050.13 111.42 1049.62 111.47C1049.55 110.811 1049.43 110.233 1049.27 109.735L1045.93 102.422L1043.66 105.085L1043.33 111.096ZM1069.82 94.0345L1069.31 98.3194L1069.2 98.3431C1068.54 97.2212 1067.35 96.4517 1065.63 96.0348C1065.09 95.8976 1064.57 95.8151 1064.06 95.7873C1063.57 95.7601 1063.13 95.7804 1062.77 95.8484C1062.41 95.9169 1062.1 96.0271 1061.84 96.179C1061.29 96.5006 1060.99 96.9442 1060.96 97.5098C1060.92 98.2508 1061.12 98.8195 1061.57 99.2157C1062.13 99.6963 1063.09 100.066 1064.43 100.326C1065.78 100.576 1066.85 100.879 1067.65 101.236C1068.45 101.593 1069.11 102.025 1069.61 102.531C1070.55 103.483 1070.98 104.778 1070.89 106.416C1070.77 108.561 1069.87 110.17 1068.19 111.241C1066.75 112.16 1064.98 112.562 1062.87 112.446C1061.17 112.353 1059.51 111.94 1057.89 111.205C1057.36 110.961 1056.89 110.686 1056.5 110.381L1056.93 105.504L1056.99 105.463C1058.08 107.616 1060.01 108.769 1062.77 108.92C1064.73 109.027 1066.05 108.626 1066.74 107.714C1066.97 107.404 1067.1 107.054 1067.12 106.664C1067.14 106.265 1067.1 105.934 1066.98 105.674C1066.87 105.404 1066.67 105.168 1066.39 104.967C1065.85 104.565 1064.91 104.264 1063.58 104.064C1062.25 103.864 1061.17 103.566 1060.34 103.168C1059.51 102.77 1058.86 102.299 1058.38 101.755C1057.52 100.768 1057.13 99.4367 1057.22 97.7595C1057.32 96.0239 1058 94.6531 1059.28 93.6473C1060.58 92.6231 1062.28 92.1685 1064.37 92.2834C1066.48 92.3988 1068.3 92.9826 1069.82 94.0345ZM1089.64 102.412L1090.33 98.3129L1086.4 101.017L1084.68 98.1205L1089.01 96.4069L1084.94 93.6894L1087.38 91.1826L1090.49 94.5369L1090.15 90.0291L1093.72 90.2248L1092.85 94.8423L1096.35 92.0852L1098.41 94.8537L1093.86 96.7462L1098.32 99.1911L1096.21 101.804L1092.66 98.5875L1092.96 103.107L1089.55 102.921C1089.55 102.911 1089.58 102.741 1089.64 102.412ZM1128.56 103.915C1128.36 104.236 1128.22 105.026 1128.15 106.284L1127.91 110.818C1127.83 112.193 1127.05 113.348 1125.57 114.285C1124.04 115.267 1122.21 115.699 1120.08 115.582C1117.11 115.42 1114.8 114.359 1113.13 112.4C1111.53 110.531 1110.8 108.222 1110.95 105.473C1111.11 102.547 1112.11 100.157 1113.95 98.3021C1116.01 96.2145 1118.74 95.264 1122.15 95.4505C1124.42 95.5751 1126.19 96.1125 1127.47 97.0628L1127 101.365L1126.88 101.388C1126.57 100.774 1125.93 100.25 1124.94 99.8143C1124.01 99.4011 1123.01 99.1657 1121.96 99.108C1120.92 99.0508 1119.99 99.1663 1119.18 99.4545C1118.39 99.7433 1117.7 100.18 1117.12 100.764C1115.9 101.959 1115.23 103.59 1115.12 105.657C1115.02 107.461 1115.45 108.937 1116.4 110.085C1117.36 111.223 1118.63 111.835 1120.23 111.923C1122 112.02 1123.21 111.627 1123.88 110.744C1124.09 110.462 1124.2 110.136 1124.22 109.765L1124.36 107.337L1122.47 107.234C1121.46 107.178 1120.9 107.236 1120.8 107.407L1120.76 107.39L1120.84 103.565C1121.11 103.658 1122.21 103.757 1124.15 103.864L1125.88 103.958C1126.95 104.017 1127.83 103.992 1128.52 103.883L1128.56 103.915ZM1138.54 108.643C1138.25 108.647 1137.94 108.639 1137.61 108.621C1137.28 108.603 1136.78 108.552 1136.13 108.467L1135.72 116.073L1131.84 115.86L1132.91 96.3047C1134.29 96.2041 1135.97 96.2082 1137.96 96.3173C1140.67 96.4659 1142.66 97.0787 1143.93 98.1558C1145.21 99.2236 1145.8 100.801 1145.68 102.888C1145.59 104.506 1144.91 105.857 1143.63 106.941C1143.21 107.29 1142.73 107.587 1142.2 107.831L1144.84 114.284C1145.35 115.613 1145.76 116.408 1146.06 116.669L1145.98 116.738C1145.04 116.53 1143.55 116.454 1141.52 116.508L1138.54 108.643ZM1138.05 99.7844C1137.55 99.7571 1137.07 99.7553 1136.61 99.7789L1136.3 105.366C1136.78 105.461 1137.34 105.526 1137.98 105.561C1138.62 105.596 1139.17 105.572 1139.61 105.489C1140.06 105.396 1140.45 105.241 1140.78 105.025C1141.5 104.546 1141.89 103.79 1141.95 102.756C1142 101.723 1141.68 100.976 1140.98 100.518C1140.33 100.1 1139.35 99.856 1138.05 99.7844ZM1150.72 117.012C1149.88 116.889 1148.9 116.796 1147.78 116.734L1146.63 116.671L1153.97 99.1901C1154.29 98.406 1154.46 97.9506 1154.47 97.8238C1154.48 97.6873 1154.48 97.6042 1154.47 97.5744L1154.48 97.5459C1155.12 97.6099 1155.79 97.6614 1156.5 97.7004C1157.08 97.7325 1157.79 97.7613 1158.61 97.7867L1158.62 97.8167C1158.6 97.8546 1158.59 97.9077 1158.58 97.976C1158.57 98.1613 1158.69 98.6617 1158.94 99.4773L1164.46 117.692C1164.26 117.672 1164.03 117.654 1163.77 117.64C1163.77 117.64 1163.52 117.616 1163.01 117.569C1162.77 117.556 1162.55 117.544 1162.35 117.533L1160.08 117.409L1158.94 113.121L1152.33 112.758L1150.72 117.012ZM1157.99 109.548L1156.16 102.626L1153.63 109.309L1157.99 109.548ZM1167.62 98.2074C1168.99 98.1062 1170.38 98.0946 1171.8 98.1727C1174.46 98.3181 1176.44 99.0525 1177.74 100.376C1179.06 101.69 1179.65 103.586 1179.51 106.063C1179.39 108.276 1178.54 109.985 1176.96 111.189C1175.48 112.321 1173.63 112.826 1171.4 112.704C1171.15 112.69 1170.87 112.66 1170.57 112.614L1170.28 117.967L1166.55 117.763L1167.62 98.2074ZM1172.05 101.722C1171.76 101.706 1171.46 101.699 1171.17 101.703L1170.75 109.396C1171.06 109.452 1171.44 109.493 1171.89 109.517C1172.33 109.542 1172.81 109.475 1173.31 109.317C1173.8 109.148 1174.23 108.903 1174.58 108.579C1175.31 107.906 1175.71 106.988 1175.77 105.828C1175.91 103.234 1174.67 101.866 1172.05 101.722ZM1185.78 118.905C1184.85 118.795 1183.74 118.705 1182.45 118.635L1181.98 118.609L1183.05 99.0826C1183.65 99.1645 1184.08 99.2124 1184.33 99.2263L1184.93 99.2592C1185.7 99.3014 1186.34 99.2974 1186.86 99.2472L1186.43 107.043L1193.3 107.42L1193.73 99.6679C1194.53 99.761 1195.32 99.8284 1196.08 99.8701C1196.85 99.9124 1197.33 99.8998 1197.53 99.8325L1196.46 119.49C1195.99 119.406 1195.07 119.326 1193.68 119.25L1192.66 119.194L1193.11 110.93L1186.24 110.553L1185.78 118.905ZM1203.31 100.208C1204.28 100.3 1204.87 100.352 1205.07 100.363L1206.13 100.421C1206.64 100.449 1207.06 100.433 1207.38 100.372L1206.29 119.942L1202.24 119.719L1203.31 100.208ZM1221.59 100.902C1223.42 101.002 1224.95 101.404 1226.21 102.109L1225.96 106.584L1225.93 106.612C1225.43 105.743 1224.31 105.124 1222.57 104.755C1222.06 104.639 1221.41 104.559 1220.62 104.516C1219.83 104.473 1219.04 104.582 1218.27 104.842C1217.49 105.093 1216.84 105.478 1216.33 105.997C1215.32 107.008 1214.77 108.499 1214.66 110.468C1214.53 112.76 1215.04 114.499 1216.18 115.686C1217.12 116.677 1218.41 117.217 1220.05 117.307C1221.9 117.408 1223.42 117.096 1224.62 116.369C1225.05 116.109 1225.43 115.778 1225.74 115.375L1225.79 115.406L1225.56 119.502C1224 120.658 1221.96 121.167 1219.43 121.029C1216.46 120.866 1214.18 119.792 1212.6 117.808C1211.08 115.915 1210.4 113.482 1210.56 110.508C1210.73 107.358 1211.76 104.925 1213.63 103.209C1215.53 101.484 1218.18 100.715 1221.59 100.902ZM1241.92 103.469L1241.4 107.754L1241.3 107.777C1240.64 106.655 1239.45 105.886 1237.73 105.469C1237.19 105.332 1236.67 105.249 1236.16 105.221C1235.66 105.194 1235.23 105.215 1234.86 105.282C1234.51 105.351 1234.2 105.461 1233.94 105.613C1233.38 105.935 1233.09 106.378 1233.06 106.944C1233.02 107.685 1233.22 108.254 1233.67 108.65C1234.23 109.13 1235.18 109.5 1236.53 109.76C1237.87 110.01 1238.95 110.313 1239.75 110.67C1240.55 111.027 1241.2 111.459 1241.7 111.966C1242.65 112.917 1243.07 114.212 1242.98 115.85C1242.87 117.995 1241.97 119.604 1240.28 120.676C1238.85 121.594 1237.07 121.996 1234.97 121.88C1233.27 121.787 1231.61 121.374 1229.99 120.639C1229.45 120.395 1228.99 120.12 1228.6 119.815L1229.02 114.938L1229.08 114.898C1230.18 117.051 1232.11 118.203 1234.87 118.354C1236.83 118.461 1238.15 118.06 1238.83 117.148C1239.07 116.838 1239.19 116.488 1239.21 116.098C1239.24 115.699 1239.19 115.368 1239.08 115.108C1238.97 114.838 1238.77 114.602 1238.49 114.401C1237.94 113.999 1237 113.698 1235.68 113.498C1234.35 113.298 1233.27 113 1232.44 112.602C1231.61 112.205 1230.96 111.733 1230.48 111.189C1229.61 110.203 1229.22 108.871 1229.32 107.194C1229.41 105.458 1230.1 104.087 1231.38 103.081C1232.67 102.057 1234.37 101.603 1236.47 101.717C1238.57 101.833 1240.39 102.417 1241.92 103.469ZM1268.6 121.627C1266.92 122.933 1264.94 123.523 1262.65 123.398C1260.41 123.275 1258.6 122.506 1257.21 121.09C1255.84 119.714 1255.22 118.066 1255.32 116.145C1255.42 114.409 1256.25 113.007 1257.81 111.939C1258.28 111.613 1258.78 111.347 1259.31 111.141C1258.8 110.174 1258.57 109.243 1258.62 108.345C1258.67 107.448 1258.86 106.691 1259.19 106.073C1259.52 105.455 1259.95 104.931 1260.49 104.502C1261.65 103.587 1263.09 103.177 1264.81 103.271C1266.04 103.339 1267.15 103.693 1268.14 104.334C1268.05 105.16 1267.99 105.798 1267.97 106.246C1267.93 106.861 1267.92 107.246 1267.92 107.403C1267.93 107.56 1267.93 107.672 1267.91 107.74C1267.91 107.798 1267.9 107.847 1267.89 107.885C1267.85 107.942 1267.84 108.009 1267.85 108.088L1267.77 108.187C1267.41 107.58 1266.68 107.12 1265.57 106.805C1265.24 106.708 1264.8 106.645 1264.26 106.615C1263.73 106.586 1263.27 106.723 1262.91 107.025C1262.55 107.328 1262.35 107.724 1262.33 108.211C1262.28 109.05 1262.82 110.15 1263.94 111.512C1264.28 111.942 1264.71 112.43 1265.21 112.975L1268.47 116.308C1268.83 115.477 1269.03 114.594 1269.09 113.658C1269.12 113.082 1269 112.596 1268.73 112.2C1268.66 112.109 1268.61 112.047 1268.57 112.016L1268.58 111.84L1270.66 112.805C1271.06 112.993 1271.38 113.138 1271.63 113.24C1271.88 113.341 1272.07 113.425 1272.19 113.49C1272.41 113.6 1272.52 113.713 1272.51 113.83C1272.41 115.586 1271.93 117.231 1271.05 118.768C1272 119.641 1272.61 120.14 1272.89 120.262C1273.17 120.385 1273.38 120.46 1273.52 120.488C1273.99 120.572 1274.26 120.567 1274.35 120.474L1274.41 120.566L1272.73 123.774C1272.55 123.882 1272.27 123.925 1271.87 123.903C1271.25 123.87 1270.17 123.111 1268.6 121.627ZM1260.08 118.68C1260.85 119.426 1261.8 119.831 1262.93 119.893C1264.08 119.955 1265.12 119.699 1266.06 119.125L1264.56 117.59C1262.95 115.967 1261.69 114.558 1260.75 113.362C1259.65 114.074 1259.07 114.952 1259.01 115.995C1258.95 117.039 1259.31 117.934 1260.08 118.68ZM1297.33 113.519C1299.63 114.642 1300.71 116.394 1300.58 118.773C1300.48 120.665 1299.62 122.192 1298 123.355C1296.3 124.582 1294.11 125.122 1291.42 124.975C1288.84 124.834 1286.8 124.12 1285.29 122.835L1285.45 118.926L1285.6 118.759C1286.69 120.412 1288.68 121.319 1291.59 121.478C1294.98 121.664 1296.74 120.631 1296.86 118.378C1296.91 117.569 1296.44 116.908 1295.47 116.395C1294.6 115.936 1293.57 115.674 1292.38 115.609C1290.74 115.519 1289.47 115.728 1288.56 116.236L1288.48 116.129L1288.81 112.685C1290.01 112.428 1291.26 112.335 1292.55 112.406L1293.31 112.448C1293.59 112.463 1293.85 112.487 1294.12 112.521C1294.76 112.185 1295.2 111.651 1295.42 110.92C1295.49 110.719 1295.53 110.515 1295.54 110.311C1295.56 110.096 1295.5 109.878 1295.39 109.657C1295.27 109.425 1295.1 109.22 1294.85 109.04C1294.32 108.63 1293.7 108.405 1293 108.366C1292.3 108.329 1291.72 108.335 1291.23 108.387C1290.75 108.439 1290.28 108.526 1289.83 108.648C1288.84 108.916 1288.1 109.277 1287.6 109.728L1287.53 109.651L1287.56 105.897C1289.18 105.067 1291.11 104.713 1293.35 104.836C1295.12 104.932 1296.57 105.418 1297.7 106.292C1298.92 107.239 1299.49 108.444 1299.41 109.906C1299.37 110.706 1299.15 111.418 1298.76 112.042C1298.38 112.657 1297.9 113.149 1297.33 113.519ZM1292.74 112.812C1292.98 112.826 1293.19 112.817 1293.35 112.787L1292.74 112.812ZM1308.65 125.92C1307.07 125.833 1305.59 125.625 1304.21 125.295L1305.29 105.725C1306.58 105.639 1308.08 105.643 1309.78 105.736C1311.48 105.83 1313.01 106.148 1314.36 106.692C1315.72 107.226 1316.84 107.947 1317.72 108.856C1319.5 110.675 1320.3 113.13 1320.13 116.221C1319.94 119.683 1318.75 122.253 1316.57 123.933C1314.61 125.439 1311.97 126.102 1308.65 125.92ZM1308.19 122.315C1308.82 122.467 1309.45 122.56 1310.08 122.595C1310.72 122.629 1311.41 122.545 1312.15 122.341C1312.9 122.128 1313.55 121.773 1314.12 121.275C1315.33 120.227 1315.99 118.64 1316.11 116.514C1316.3 113.023 1315.15 110.808 1312.64 109.869C1311.82 109.56 1310.86 109.375 1309.76 109.315L1309.36 109.293C1309.21 109.285 1309.06 109.282 1308.91 109.283L1308.19 122.315ZM1340.79 127.373C1340.5 127.318 1340 127.272 1339.3 127.233L1337.61 127.14C1337.27 127.122 1337 127.117 1336.79 127.125L1336.77 127.094C1336.81 127.028 1336.84 126.951 1336.84 126.864C1336.85 126.776 1336.84 126.683 1336.83 126.584C1336.82 126.486 1336.8 126.308 1336.74 126.051C1336.7 125.794 1336.62 125.424 1336.52 124.939L1332.5 107.29C1333.12 107.363 1333.88 107.424 1334.77 107.473C1335.65 107.522 1336.23 107.514 1336.5 107.451L1339.23 120.877L1343.31 107.883C1343.46 107.9 1343.59 107.917 1343.71 107.934L1344.03 107.951C1344.35 107.988 1344.75 108.02 1345.24 108.047C1345.73 108.074 1346.23 108.062 1346.75 108.013L1349.45 121.437L1353.11 108.42C1353.69 108.491 1354.46 108.552 1355.4 108.604C1356.35 108.656 1356.93 108.649 1357.14 108.582L1352.08 123.782C1351.45 125.527 1351.1 126.565 1351.06 126.895C1351.01 127.225 1350.98 127.453 1350.98 127.58C1350.97 127.706 1350.98 127.81 1351.02 127.89L1350.99 127.932C1350.68 127.876 1350.18 127.83 1349.51 127.793C1348.93 127.761 1348.4 127.732 1347.92 127.705C1347.44 127.679 1347.09 127.67 1346.88 127.678L1346.86 127.648C1346.91 127.582 1346.93 127.505 1346.94 127.417C1346.94 127.329 1346.94 127.241 1346.94 127.153C1346.93 127.065 1346.91 126.897 1346.87 126.651C1346.85 126.395 1346.8 126.021 1346.73 125.528L1346.45 123.517L1344.55 114.273L1341.77 123.217C1341.2 125.053 1340.89 126.113 1340.86 126.394C1340.79 126.928 1340.78 127.241 1340.82 127.331L1340.79 127.373ZM1360.56 126.081C1359.72 125.184 1359.08 124.126 1358.63 122.908C1358.18 121.691 1358 120.375 1358.08 118.961C1358.16 117.538 1358.47 116.205 1359.02 114.964C1359.56 113.722 1360.31 112.643 1361.25 111.727C1362.19 110.81 1363.3 110.103 1364.59 109.607C1365.88 109.1 1367.31 108.89 1368.87 108.975C1371.56 109.123 1373.78 110.096 1375.53 111.893C1377.4 113.815 1378.25 116.316 1378.08 119.398C1377.92 122.382 1376.77 124.808 1374.63 126.676C1373.32 127.826 1371.78 128.583 1370.03 128.947C1369.17 129.125 1368.17 129.182 1367.03 129.12C1365.9 129.058 1364.75 128.76 1363.57 128.226C1362.41 127.693 1361.41 126.978 1360.56 126.081ZM1362.16 118.98C1362.11 119.886 1362.21 120.728 1362.47 121.506C1362.73 122.283 1363.12 122.959 1363.62 123.534C1364.7 124.748 1366.14 125.403 1367.93 125.502C1369.64 125.595 1371.04 125.119 1372.13 124.074C1373.25 122.991 1373.86 121.465 1373.97 119.495C1374.07 117.642 1373.65 116.069 1372.72 114.776C1371.71 113.39 1370.26 112.646 1368.38 112.543C1366.55 112.443 1365.07 113.036 1363.92 114.323C1362.85 115.526 1362.26 117.078 1362.16 118.98ZM1388.01 122.319C1387.72 122.322 1387.41 122.315 1387.08 122.297C1386.74 122.279 1386.25 122.227 1385.6 122.143L1385.19 129.748L1381.31 129.536L1382.38 109.98C1383.76 109.88 1385.44 109.884 1387.43 109.993C1390.14 110.142 1392.13 110.754 1393.4 111.831C1394.68 112.899 1395.27 114.477 1395.15 116.563C1395.06 118.182 1394.38 119.533 1393.09 120.617C1392.67 120.966 1392.2 121.262 1391.67 121.507L1394.31 127.96C1394.82 129.289 1395.23 130.084 1395.52 130.345L1395.45 130.414C1394.51 130.206 1393.02 130.129 1390.99 130.184L1388.01 122.319ZM1387.52 113.46C1387.02 113.433 1386.54 113.431 1386.08 113.455L1385.77 119.042C1386.25 119.136 1386.81 119.201 1387.45 119.236C1388.09 119.272 1388.64 119.248 1389.08 119.165C1389.53 119.072 1389.92 118.917 1390.25 118.701C1390.97 118.222 1391.36 117.466 1391.42 116.432C1391.47 115.398 1391.15 114.652 1390.45 114.193C1389.8 113.776 1388.82 113.532 1387.52 113.46ZM1402.5 130.786C1401.83 130.69 1400.97 130.614 1399.93 130.557L1398.77 130.493L1399.84 110.982L1400.43 111.043C1400.84 111.085 1401.14 111.112 1401.35 111.123L1401.77 111.146C1402.63 111.193 1403.23 111.187 1403.58 111.128L1403.12 119.392L1409.5 111.511C1410.12 111.584 1410.64 111.632 1411.07 111.656L1411.88 111.7C1412.88 111.755 1413.6 111.755 1414.03 111.701L1407.98 118.763L1412.94 130.096C1413.14 130.645 1413.34 131.047 1413.53 131.302L1412.64 131.253C1410.58 131.141 1409.3 131.109 1408.79 131.16C1408.71 130.5 1408.6 129.922 1408.44 129.424L1405.1 122.111L1402.83 124.774L1402.5 130.786ZM1428.99 113.724L1428.48 118.009L1428.37 118.032C1427.71 116.91 1426.52 116.141 1424.8 115.724C1424.26 115.587 1423.74 115.504 1423.23 115.477C1422.73 115.449 1422.3 115.47 1421.94 115.538C1421.58 115.606 1421.27 115.716 1421.01 115.868C1420.45 116.19 1420.16 116.633 1420.13 117.199C1420.09 117.94 1420.29 118.509 1420.74 118.905C1421.3 119.386 1422.25 119.756 1423.6 120.015C1424.94 120.265 1426.02 120.568 1426.82 120.925C1427.62 121.282 1428.27 121.714 1428.77 122.221C1429.72 123.172 1430.15 124.467 1430.06 126.105C1429.94 128.251 1429.04 129.859 1427.36 130.931C1425.92 131.849 1424.15 132.251 1422.04 132.136C1420.34 132.042 1418.68 131.629 1417.06 130.894C1416.53 130.65 1416.06 130.375 1415.67 130.07L1416.1 125.193L1416.16 125.153C1417.25 127.306 1419.18 128.458 1421.94 128.609C1423.9 128.717 1425.22 128.315 1425.91 127.404C1426.14 127.094 1426.27 126.744 1426.29 126.354C1426.31 125.954 1426.26 125.624 1426.15 125.363C1426.04 125.093 1425.84 124.857 1425.56 124.656C1425.01 124.254 1424.08 123.954 1422.75 123.754C1421.42 123.554 1420.34 123.255 1419.51 122.857C1418.68 122.46 1418.03 121.989 1417.55 121.444C1416.68 120.458 1416.3 119.126 1416.39 117.449C1416.48 115.713 1417.17 114.342 1418.45 113.337C1419.75 112.312 1421.44 111.858 1423.54 111.973C1425.65 112.088 1427.46 112.672 1428.99 113.724ZM1448.81 122.101L1449.5 118.002L1445.57 120.706L1443.85 117.81L1448.18 116.096L1444.1 113.379L1446.55 110.872L1449.66 114.226L1449.32 109.718L1452.89 109.914L1452.02 114.532L1455.52 111.774L1457.58 114.543L1453.03 116.435L1457.49 118.88L1455.38 121.493L1451.83 118.277L1452.13 122.797L1448.72 122.61C1448.72 122.6 1448.75 122.431 1448.81 122.101ZM1487.73 123.604C1487.53 123.926 1487.39 124.715 1487.32 125.973L1487.07 130.507C1487 131.882 1486.22 133.038 1484.74 133.974C1483.21 134.956 1481.38 135.388 1479.24 135.271C1476.28 135.109 1473.97 134.048 1472.3 132.089C1470.69 130.221 1469.96 127.912 1470.11 125.162C1470.28 122.237 1471.28 119.846 1473.12 117.991C1475.18 115.904 1477.91 114.953 1481.31 115.14C1483.59 115.264 1485.36 115.802 1486.64 116.752L1486.17 121.054L1486.05 121.077C1485.74 120.463 1485.1 119.939 1484.11 119.504C1483.18 119.09 1482.18 118.855 1481.13 118.797C1480.09 118.74 1479.16 118.856 1478.35 119.144C1477.55 119.433 1476.86 119.869 1476.29 120.453C1475.07 121.648 1474.4 123.279 1474.29 125.346C1474.19 127.15 1474.61 128.626 1475.57 129.774C1476.52 130.912 1477.8 131.525 1479.4 131.612C1481.16 131.709 1482.38 131.316 1483.04 130.433C1483.25 130.151 1483.37 129.825 1483.39 129.455L1483.52 127.027L1481.64 126.923C1480.62 126.868 1480.07 126.925 1479.97 127.096L1479.93 127.079L1480 123.254C1480.27 123.347 1481.38 123.447 1483.32 123.553L1485.04 123.648C1486.12 123.706 1487 123.681 1487.69 123.573L1487.73 123.604ZM1497.71 128.332C1497.42 128.336 1497.11 128.329 1496.77 128.31C1496.44 128.292 1495.95 128.241 1495.3 128.156L1494.88 135.762L1491.01 135.55L1492.08 115.994C1493.45 115.893 1495.14 115.897 1497.13 116.007C1499.84 116.155 1501.83 116.768 1503.1 117.845C1504.38 118.913 1504.96 120.49 1504.85 122.577C1504.76 124.195 1504.08 125.547 1502.79 126.631C1502.37 126.979 1501.9 127.276 1501.37 127.52L1504 133.973C1504.52 135.302 1504.92 136.097 1505.22 136.358L1505.15 136.427C1504.21 136.219 1502.72 136.143 1500.68 136.197L1497.71 128.332ZM1497.21 119.474C1496.72 119.446 1496.24 119.445 1495.78 119.468L1495.47 125.055C1495.95 125.15 1496.5 125.215 1497.15 125.25C1497.79 125.285 1498.34 125.261 1498.78 125.178C1499.23 125.085 1499.62 124.931 1499.95 124.714C1500.67 124.235 1501.06 123.479 1501.12 122.445C1501.17 121.412 1500.85 120.666 1500.15 120.207C1499.5 119.79 1498.52 119.545 1497.21 119.474ZM1509.88 136.702C1509.05 136.578 1508.07 136.485 1506.95 136.424L1505.8 136.36L1513.14 118.879C1513.46 118.095 1513.63 117.64 1513.64 117.513C1513.64 117.377 1513.64 117.293 1513.63 117.264L1513.65 117.235C1514.28 117.299 1514.96 117.351 1515.67 117.39C1516.25 117.422 1516.95 117.45 1517.77 117.476L1517.79 117.506C1517.77 117.544 1517.75 117.597 1517.75 117.665C1517.74 117.85 1517.86 118.351 1518.11 119.167L1523.62 137.381C1523.43 137.361 1523.2 137.344 1522.94 137.329C1522.94 137.329 1522.68 137.306 1522.18 137.258C1521.93 137.245 1521.71 137.233 1521.52 137.222L1519.25 137.098L1518.11 132.81L1511.5 132.448L1509.88 136.702ZM1517.16 129.237L1515.32 122.315L1512.8 128.998L1517.16 129.237ZM1526.79 117.897C1528.15 117.795 1529.55 117.784 1530.97 117.862C1533.62 118.007 1535.6 118.742 1536.91 120.065C1538.23 121.38 1538.82 123.275 1538.68 125.752C1538.56 127.965 1537.71 129.674 1536.13 130.878C1534.65 132.01 1532.79 132.515 1530.57 132.393C1530.32 132.379 1530.04 132.349 1529.74 132.303L1529.45 137.657L1525.72 137.452L1526.79 117.897ZM1531.22 121.411C1530.92 121.395 1530.63 121.389 1530.34 121.392L1529.92 129.086C1530.23 129.142 1530.61 129.182 1531.05 129.207C1531.5 129.231 1531.98 129.164 1532.47 129.006C1532.97 128.837 1533.4 128.592 1533.75 128.269C1534.48 127.595 1534.88 126.678 1534.94 125.517C1535.08 122.924 1533.84 121.555 1531.22 121.411ZM1544.95 138.594C1544.01 138.485 1542.9 138.394 1541.62 138.324L1541.15 138.298L1542.22 118.772C1542.82 118.854 1543.25 118.902 1543.5 118.916L1544.1 118.948C1544.87 118.991 1545.51 118.987 1546.02 118.936L1545.6 126.732L1552.47 127.109L1552.9 119.357C1553.7 119.45 1554.49 119.518 1555.25 119.559C1556.02 119.602 1556.5 119.589 1556.7 119.522L1555.62 139.18C1555.16 139.096 1554.23 139.016 1552.85 138.94L1551.83 138.883L1552.28 130.62L1545.4 130.243L1544.95 138.594ZM1562.48 119.897C1563.45 119.989 1564.04 120.041 1564.24 120.052L1565.29 120.11C1565.81 120.139 1566.23 120.122 1566.54 120.061L1565.46 139.631L1561.41 139.409L1562.48 119.897ZM1580.76 120.591C1582.58 120.691 1584.12 121.093 1585.37 121.798L1585.13 126.273L1585.1 126.301C1584.6 125.433 1583.48 124.814 1581.74 124.444C1581.23 124.328 1580.57 124.249 1579.78 124.205C1578.99 124.162 1578.21 124.271 1577.43 124.531C1576.66 124.782 1576.01 125.167 1575.49 125.687C1574.49 126.698 1573.93 128.188 1573.82 130.158C1573.7 132.449 1574.21 134.188 1575.34 135.376C1576.29 136.366 1577.58 136.906 1579.22 136.996C1581.07 137.098 1582.59 136.785 1583.79 136.058C1584.22 135.799 1584.6 135.467 1584.91 135.064L1584.95 135.095L1584.73 139.191C1583.17 140.347 1581.13 140.857 1578.6 140.718C1575.63 140.555 1573.35 139.481 1571.76 137.497C1570.25 135.605 1569.57 133.171 1569.73 130.197C1569.9 127.048 1570.93 124.615 1572.8 122.898C1574.69 121.173 1577.35 120.404 1580.76 120.591ZM1601.08 123.158L1600.57 127.443L1600.47 127.466C1599.81 126.344 1598.61 125.575 1596.9 125.158C1596.36 125.021 1595.83 124.938 1595.33 124.911C1594.83 124.883 1594.4 124.904 1594.03 124.972C1593.68 125.04 1593.37 125.15 1593.1 125.302C1592.55 125.624 1592.26 126.068 1592.22 126.633C1592.18 127.374 1592.39 127.943 1592.83 128.339C1593.4 128.82 1594.35 129.19 1595.69 129.449C1597.04 129.699 1598.11 130.002 1598.92 130.359C1599.72 130.716 1600.37 131.148 1600.87 131.655C1601.81 132.606 1602.24 133.901 1602.15 135.539C1602.03 137.685 1601.13 139.293 1599.45 140.365C1598.01 141.283 1596.24 141.685 1594.13 141.57C1592.44 141.477 1590.78 141.063 1589.16 140.328C1588.62 140.084 1588.16 139.809 1587.76 139.504L1588.19 134.627L1588.25 134.587C1589.35 136.74 1591.27 137.892 1594.03 138.043C1595.99 138.151 1597.32 137.749 1598 136.838C1598.23 136.528 1598.36 136.178 1598.38 135.788C1598.4 135.388 1598.36 135.058 1598.25 134.797C1598.13 134.527 1597.94 134.291 1597.65 134.09C1597.11 133.688 1596.17 133.388 1594.84 133.188C1593.51 132.988 1592.44 132.689 1591.61 132.291C1590.78 131.894 1590.12 131.423 1589.64 130.878C1588.78 129.892 1588.39 128.56 1588.48 126.883C1588.58 125.147 1589.27 123.776 1590.54 122.771C1591.84 121.746 1593.54 121.292 1595.64 121.407C1597.74 121.522 1599.56 122.106 1601.08 123.158ZM1627.77 141.316C1626.09 142.622 1624.1 143.212 1621.82 143.087C1619.58 142.964 1617.76 142.195 1616.37 140.779C1615.01 139.403 1614.38 137.755 1614.49 135.834C1614.58 134.099 1615.41 132.697 1616.98 131.628C1617.45 131.302 1617.94 131.036 1618.47 130.83C1617.97 129.864 1617.74 128.932 1617.79 128.035C1617.84 127.138 1618.03 126.38 1618.36 125.762C1618.68 125.145 1619.12 124.621 1619.66 124.191C1620.82 123.276 1622.26 122.866 1623.98 122.961C1625.21 123.028 1626.32 123.382 1627.31 124.023C1627.22 124.85 1627.16 125.487 1627.13 125.935C1627.1 126.55 1627.08 126.935 1627.09 127.092C1627.1 127.249 1627.09 127.361 1627.08 127.429C1627.08 127.487 1627.07 127.536 1627.06 127.574C1627.02 127.631 1627 127.699 1627.02 127.778L1626.94 127.876C1626.58 127.27 1625.85 126.809 1624.74 126.494C1624.4 126.397 1623.97 126.334 1623.43 126.305C1622.9 126.275 1622.44 126.412 1622.07 126.714C1621.72 127.017 1621.52 127.413 1621.5 127.9C1621.45 128.739 1621.99 129.839 1623.1 131.201C1623.45 131.631 1623.88 132.119 1624.37 132.665L1627.64 135.998C1628 135.166 1628.2 134.283 1628.25 133.347C1628.29 132.771 1628.16 132.286 1627.89 131.889C1627.83 131.798 1627.78 131.736 1627.74 131.705L1627.75 131.529L1629.83 132.494C1630.23 132.682 1630.55 132.827 1630.8 132.929C1631.05 133.03 1631.23 133.114 1631.36 133.179C1631.58 133.289 1631.68 133.403 1631.68 133.52C1631.58 135.275 1631.09 136.921 1630.22 138.457C1631.17 139.331 1631.78 139.829 1632.06 139.952C1632.33 140.074 1632.55 140.149 1632.69 140.177C1633.16 140.261 1633.43 140.257 1633.51 140.163L1633.58 140.255L1631.89 143.464C1631.72 143.571 1631.44 143.614 1631.04 143.593C1630.42 143.559 1629.33 142.8 1627.77 141.316ZM1619.25 138.369C1620.02 139.116 1620.97 139.52 1622.1 139.582C1623.24 139.644 1624.28 139.389 1625.23 138.814L1623.72 137.28C1622.12 135.656 1620.85 134.247 1619.92 133.051C1618.82 133.763 1618.24 134.641 1618.18 135.685C1618.12 136.728 1618.48 137.623 1619.25 138.369ZM1656.5 133.208C1658.8 134.332 1659.88 136.083 1659.75 138.462C1659.65 140.354 1658.78 141.881 1657.17 143.044C1655.46 144.272 1653.27 144.812 1650.59 144.665C1648.01 144.523 1645.96 143.809 1644.46 142.524L1644.62 138.615L1644.77 138.448C1645.85 140.102 1647.85 141.008 1650.75 141.167C1654.15 141.353 1655.91 140.32 1656.03 138.068C1656.07 137.258 1655.61 136.597 1654.64 136.084C1653.77 135.626 1652.74 135.364 1651.55 135.298C1649.91 135.209 1648.63 135.418 1647.73 135.925L1647.64 135.818L1647.98 132.374C1649.18 132.117 1650.42 132.024 1651.72 132.095L1652.48 132.137C1652.76 132.152 1653.02 132.176 1653.28 132.21C1653.93 131.874 1654.36 131.34 1654.59 130.609C1654.66 130.408 1654.7 130.205 1654.71 130C1654.72 129.785 1654.67 129.567 1654.56 129.346C1654.44 129.115 1654.26 128.909 1654.02 128.73C1653.48 128.319 1652.86 128.094 1652.16 128.056C1651.47 128.018 1650.88 128.025 1650.4 128.077C1649.92 128.128 1649.45 128.215 1648.99 128.337C1648.01 128.606 1647.27 128.966 1646.76 129.417L1646.69 129.34L1646.72 125.586C1648.34 124.756 1650.28 124.402 1652.52 124.525C1654.28 124.622 1655.73 125.107 1656.87 125.981C1658.09 126.928 1658.66 128.133 1658.58 129.596C1658.53 130.395 1658.32 131.107 1657.93 131.732C1657.55 132.346 1657.07 132.838 1656.5 133.208ZM1651.9 132.501C1652.15 132.515 1652.35 132.506 1652.52 132.477L1651.9 132.501ZM1667.82 145.609C1666.24 145.523 1664.76 145.314 1663.38 144.984L1664.45 125.414C1665.75 125.329 1667.25 125.332 1668.94 125.425C1670.65 125.519 1672.18 125.837 1673.53 126.381C1674.89 126.915 1676.01 127.637 1676.89 128.545C1678.66 130.364 1679.47 132.819 1679.3 135.91C1679.11 139.372 1677.92 141.943 1675.74 143.622C1673.78 145.129 1671.14 145.791 1667.82 145.609ZM1667.36 142.004C1667.99 142.156 1668.62 142.249 1669.25 142.284C1669.89 142.319 1670.57 142.234 1671.32 142.031C1672.06 141.817 1672.72 141.462 1673.28 140.965C1674.5 139.916 1675.16 138.329 1675.28 136.203C1675.47 132.712 1674.31 130.497 1671.81 129.558C1670.99 129.249 1670.03 129.064 1668.92 129.004L1668.53 128.982C1668.38 128.974 1668.23 128.971 1668.07 128.972L1667.36 142.004ZM1699.96 147.063C1699.67 147.008 1699.17 146.961 1698.47 146.922L1696.77 146.829C1696.44 146.811 1696.17 146.806 1695.95 146.814L1695.94 146.784C1695.98 146.718 1696.01 146.641 1696.01 146.553C1696.02 146.465 1696.01 146.372 1696 146.273C1695.99 146.175 1695.96 145.998 1695.91 145.74C1695.86 145.484 1695.79 145.113 1695.69 144.628L1691.67 126.979C1692.29 127.053 1693.05 127.113 1693.93 127.162C1694.82 127.211 1695.4 127.203 1695.67 127.14L1698.39 140.566L1702.48 127.572C1702.63 127.59 1702.76 127.607 1702.87 127.623L1703.19 127.64C1703.52 127.678 1703.92 127.709 1704.41 127.736C1704.89 127.763 1705.4 127.751 1705.92 127.702L1708.62 141.126L1712.28 128.109C1712.86 128.18 1713.63 128.242 1714.57 128.293C1715.52 128.345 1716.1 128.338 1716.3 128.271L1711.25 143.471C1710.61 145.216 1710.27 146.254 1710.23 146.584C1710.18 146.914 1710.15 147.142 1710.14 147.269C1710.14 147.396 1710.15 147.499 1710.19 147.579L1710.15 147.622C1709.84 147.565 1709.35 147.519 1708.68 147.482C1708.09 147.45 1707.56 147.421 1707.09 147.395C1706.61 147.369 1706.26 147.359 1706.05 147.367L1706.03 147.337C1706.07 147.271 1706.1 147.194 1706.1 147.106C1706.11 147.018 1706.11 146.93 1706.1 146.842C1706.1 146.754 1706.08 146.586 1706.04 146.34C1706.02 146.084 1705.97 145.71 1705.9 145.217L1705.61 143.206L1703.71 133.962L1700.93 142.906C1700.36 144.743 1700.06 145.802 1700.03 146.084C1699.96 146.618 1699.95 146.93 1699.99 147.02L1699.96 147.063ZM1719.73 145.77C1718.89 144.873 1718.25 143.816 1717.79 142.598C1717.35 141.38 1717.17 140.065 1717.25 138.651C1717.33 137.227 1717.64 135.895 1718.18 134.653C1718.73 133.412 1719.48 132.333 1720.42 131.416C1721.36 130.499 1722.47 129.793 1723.76 129.296C1725.05 128.79 1726.47 128.579 1728.03 128.665C1730.73 128.812 1732.95 129.785 1734.7 131.583C1736.57 133.504 1737.42 136.006 1737.25 139.087C1737.08 142.071 1735.93 144.497 1733.8 146.365C1732.48 147.516 1730.95 148.273 1729.2 148.636C1728.34 148.814 1727.34 148.872 1726.2 148.809C1725.07 148.747 1723.91 148.449 1722.74 147.915C1721.58 147.382 1720.57 146.667 1719.73 145.77ZM1721.32 138.669C1721.27 139.576 1721.38 140.418 1721.64 141.195C1721.9 141.972 1722.28 142.648 1722.79 143.224C1723.87 144.437 1725.3 145.093 1727.1 145.191C1728.81 145.285 1730.21 144.809 1731.3 143.764C1732.42 142.68 1733.03 141.154 1733.14 139.184C1733.24 137.332 1732.82 135.759 1731.88 134.465C1730.87 133.08 1729.43 132.335 1727.55 132.232C1725.72 132.132 1724.24 132.726 1723.09 134.012C1722.02 135.215 1721.43 136.767 1721.32 138.669ZM1747.18 142.008C1746.89 142.012 1746.58 142.004 1746.24 141.986C1745.91 141.968 1745.42 141.917 1744.77 141.832L1744.35 149.438L1740.48 149.225L1741.55 129.67C1742.92 129.569 1744.61 129.573 1746.6 129.682C1749.31 129.831 1751.3 130.444 1752.57 131.521C1753.85 132.588 1754.43 134.166 1754.32 136.252C1754.23 137.871 1753.54 139.222 1752.26 140.306C1751.84 140.655 1751.37 140.951 1750.83 141.196L1753.47 147.649C1753.99 148.978 1754.39 149.773 1754.69 150.034L1754.62 150.103C1753.68 149.895 1752.19 149.818 1750.15 149.873L1747.18 142.008ZM1746.68 133.149C1746.19 133.122 1745.71 133.12 1745.25 133.144L1744.94 138.731C1745.41 138.826 1745.97 138.89 1746.62 138.926C1747.26 138.961 1747.8 138.937 1748.25 138.854C1748.69 138.761 1749.08 138.606 1749.42 138.39C1750.14 137.911 1750.53 137.155 1750.58 136.121C1750.64 135.088 1750.32 134.341 1749.62 133.882C1748.97 133.465 1747.99 133.221 1746.68 133.149ZM1761.67 150.475C1761 150.379 1760.14 150.303 1759.1 150.246L1757.94 150.183L1759.01 130.671L1759.59 130.732C1760 130.774 1760.31 130.801 1760.51 130.812L1760.94 130.835C1761.8 130.882 1762.4 130.876 1762.74 130.817L1762.29 139.081L1768.66 131.2C1769.29 131.273 1769.81 131.322 1770.24 131.345L1771.05 131.389C1772.05 131.444 1772.77 131.445 1773.2 131.39L1767.15 138.452L1772.11 149.785C1772.31 150.335 1772.51 150.737 1772.7 150.992L1771.81 150.943C1769.75 150.83 1768.47 150.799 1767.95 150.849C1767.88 150.19 1767.77 149.611 1767.61 149.113L1764.27 141.801L1762 144.463L1761.67 150.475ZM1788.16 133.413L1787.64 137.698L1787.54 137.722C1786.88 136.6 1785.69 135.83 1783.97 135.413C1783.43 135.276 1782.91 135.194 1782.4 135.166C1781.9 135.139 1781.47 135.159 1781.1 135.227C1780.75 135.295 1780.44 135.406 1780.18 135.557C1779.62 135.879 1779.33 136.323 1779.3 136.888C1779.26 137.629 1779.46 138.198 1779.91 138.594C1780.47 139.075 1781.42 139.445 1782.77 139.704C1784.11 139.954 1785.19 140.258 1785.99 140.615C1786.79 140.971 1787.44 141.403 1787.94 141.91C1788.89 142.862 1789.31 144.156 1789.22 145.795C1789.11 147.94 1788.21 149.548 1786.52 150.62C1785.09 151.539 1783.31 151.94 1781.21 151.825C1779.51 151.732 1777.85 151.318 1776.23 150.584C1775.69 150.339 1775.23 150.064 1774.84 149.759L1775.26 144.883L1775.33 144.842C1776.42 146.995 1778.35 148.147 1781.11 148.298C1783.07 148.406 1784.39 148.004 1785.08 147.093C1785.31 146.783 1785.43 146.433 1785.46 146.043C1785.48 145.643 1785.43 145.313 1785.32 145.052C1785.21 144.782 1785.01 144.546 1784.73 144.345C1784.18 143.944 1783.24 143.643 1781.92 143.443C1780.59 143.243 1779.51 142.944 1778.68 142.546C1777.85 142.149 1777.2 141.678 1776.72 141.133C1775.85 140.147 1775.46 138.815 1775.56 137.138C1775.65 135.402 1776.34 134.032 1777.62 133.026C1778.91 132.002 1780.61 131.547 1782.71 131.662C1784.81 131.777 1786.63 132.361 1788.16 133.413Z" fill="black"/>
</svg>
