<svg width="80" height="79" viewBox="0 0 80 79" fill="none" xmlns="http://www.w3.org/2000/svg">
<path d="M67.9038 65.7144L53.0284 60.1647C51.6761 59.6627 50.1983 60.4297 49.8358 61.824L45.8207 77.1901C45.2491 79.3932 42.2099 79.6582 41.2619 77.5805L34.6816 63.1348C34.0821 61.824 32.4928 61.3221 31.252 62.0471L17.5477 70.0788C15.5819 71.2361 13.2537 69.27 14.0484 67.1366L19.597 52.2586C20.0989 50.906 19.3321 49.428 17.938 49.0654L2.60253 45.0496C0.399794 44.4779 0.134909 41.4382 2.21217 40.49L16.6554 33.9085C17.9659 33.3089 18.4678 31.7194 17.7428 30.4784L9.71262 16.7716C8.55548 14.8055 10.5212 12.4769 12.6542 13.2717L27.5297 18.8213C28.882 19.3233 30.3598 18.5564 30.7222 17.162L34.7373 1.80988C35.3089 -0.393244 38.3482 -0.658176 39.2962 1.41945L45.8765 15.8652C46.476 17.176 48.0653 17.6779 49.306 16.9529L63.0104 8.92122C64.9761 7.76389 67.3043 9.72996 66.5097 11.8634L60.961 26.7414C60.4591 28.094 61.2259 29.572 62.62 29.9345L77.9834 33.9504C80.1861 34.5221 80.451 37.5618 78.3738 38.51L63.9305 45.0915C62.62 45.691 62.1182 47.2806 62.8431 48.5216L70.8733 62.2284C72.0026 64.1945 70.0508 66.5092 67.9038 65.7144Z" fill="#F68BCB"/>
</svg>
